<?xml version="1.0" encoding="UTF-8" standalone="no"?>
<svg
   width="300"
   height="300"
   viewBox="0 0 135.46667 135.46668"
   version="1.1"
   id="svg1"
   sodipodi:docname="processed-icon.svg"
   inkscape:version="1.4.2 (ebf0e940d0, 2025-05-08)"
   xmlns:inkscape="http://www.inkscape.org/namespaces/inkscape"
   xmlns:sodipodi="http://sodipodi.sourceforge.net/DTD/sodipodi-0.dtd"
   xmlns:xlink="http://www.w3.org/1999/xlink"
   xmlns="http://www.w3.org/2000/svg"
   xmlns:svg="http://www.w3.org/2000/svg">
  <sodipodi:namedview
     id="namedview1"
     borderopacity="1"
     inkscape:showpageshadow="0"
     inkscape:pageopacity="0"
     inkscape:pagecheckerboard="1"
     inkscape:zoom="1.5347643"
     inkscape:cx="193.84084"
     inkscape:cy="116.95607"
     inkscape:window-width="1653"
     inkscape:window-height="1048"
     inkscape:window-x="0"
     inkscape:window-y="0"
     inkscape:window-maximized="0"
     inkscape:current-layer="g71"
     pagecolor="#505050"
     bordercolor="#ffffff"
     inkscape:deskcolor="#505050" />
  <defs
     id="defs1">
    <linearGradient
       id="linearGradient1"
       inkscape:collect="always">
      <stop
         style="stop-color:#d8485f;stop-opacity:1;"
         offset="0"
         id="stop1" />
      <stop
         style="stop-color:#d88748;stop-opacity:1;"
         offset="1"
         id="stop2" />
    </linearGradient>
    <filter
       style="color-interpolation-filters:sRGB"
       id="filter21"
       x="-0.35129357"
       y="-0.93287114"
       width="1.7025871"
       height="2.8657423">
      <feGaussianBlur
         stdDeviation="5.0792937"
         id="feGaussianBlur21" />
    </filter>
    <filter
       style="color-interpolation-filters:sRGB"
       id="filter22"
       x="-0.42891072"
       y="-0.64938287"
       width="1.8578214"
       height="2.2987657">
      <feGaussianBlur
         stdDeviation="6.5904956"
         id="feGaussianBlur22" />
    </filter>
    <filter
       style="color-interpolation-filters:sRGB"
       id="filter23"
       x="-0.41511482"
       y="-0.64325018"
       width="1.8302296"
       height="2.2865004">
      <feGaussianBlur
         stdDeviation="7.8584288"
         id="feGaussianBlur23" />
    </filter>
    <filter
       style="color-interpolation-filters:sRGB"
       id="filter24"
       x="-0.36140346"
       y="-0.92623631"
       width="1.7228069"
       height="2.8524726">
      <feGaussianBlur
         stdDeviation="5.269127"
         id="feGaussianBlur24" />
    </filter>
    <filter
       style="color-interpolation-filters:sRGB"
       id="filter27"
       x="-0.3220365"
       y="-1.5317638"
       width="1.644073"
       height="4.0635276">
      <feGaussianBlur
         stdDeviation="8.7093071"
         id="feGaussianBlur26" />
    </filter>
    <filter
       style="color-interpolation-filters:sRGB"
       id="filter52"
       x="-0.33025388"
       y="-1.0968854"
       width="1.6605078"
       height="3.1937708">
      <feGaussianBlur
         stdDeviation="4.2575558"
         id="feGaussianBlur52" />
    </filter>
    <filter
       style="color-interpolation-filters:sRGB"
       id="filter53"
       x="-0.34014132"
       y="-1.0243618"
       width="1.6802826"
       height="3.0487236">
      <feGaussianBlur
         stdDeviation="4.3187927"
         id="feGaussianBlur54" />
    </filter>
    <filter
       style="color-interpolation-filters:sRGB"
       id="filter55"
       x="-0.33171227"
       y="-1.0929411"
       width="1.6634245"
       height="3.1858823">
      <feGaussianBlur
         stdDeviation="4.4263355"
         id="feGaussianBlur55" />
    </filter>
    <filter
       style="color-interpolation-filters:sRGB"
       id="filter56"
       x="-0.34596671"
       y="-0.98818076"
       width="1.6919334"
       height="2.9763615">
      <feGaussianBlur
         stdDeviation="4.9267071"
         id="feGaussianBlur56" />
    </filter>
    <filter
       style="color-interpolation-filters:sRGB"
       id="filter57"
       x="-0.50604737"
       y="-0.53225252"
       width="2.0120947"
       height="2.064505">
      <feGaussianBlur
         stdDeviation="5.8261111"
         id="feGaussianBlur57" />
    </filter>
    <filter
       style="color-interpolation-filters:sRGB"
       id="filter58"
       x="-0.32130078"
       y="-1.1307663"
       width="1.6426016"
       height="3.2615325">
      <feGaussianBlur
         stdDeviation="4.2390405"
         id="feGaussianBlur58" />
    </filter>
    <filter
       style="color-interpolation-filters:sRGB"
       id="filter59"
       x="-0.4030115"
       y="-0.71156066"
       width="1.806023"
       height="2.4231213">
      <feGaussianBlur
         stdDeviation="4.4950086"
         id="feGaussianBlur59" />
    </filter>
    <filter
       style="color-interpolation-filters:sRGB"
       id="filter60"
       x="-0.53873945"
       y="-1.1033097"
       width="2.0774789"
       height="3.2066195">
      <feGaussianBlur
         stdDeviation="14.7 5.204"
         id="feGaussianBlur60" />
    </filter>
    <filter
       style="color-interpolation-filters:sRGB"
       id="filter70"
       x="-0.43159762"
       y="-0.3122953"
       width="1.8631952"
       height="1.6245906">
      <feGaussianBlur
         stdDeviation="18.461288"
         id="feGaussianBlur70" />
    </filter>
    <filter
       style="color-interpolation-filters:sRGB"
       id="filter72"
       x="-0.43271319"
       y="-0.31310251"
       width="1.8654264"
       height="1.626205">
      <feGaussianBlur
         stdDeviation="18.509006"
         id="feGaussianBlur72" />
    </filter>
    <filter
       style="color-interpolation-filters:sRGB"
       id="filter1"
       x="-0.45705071"
       y="-0.57220236"
       width="1.9141014"
       height="2.1444047">
      <feGaussianBlur
         stdDeviation="8.5810337"
         id="feGaussianBlur1" />
    </filter>
    <filter
       style="color-interpolation-filters:sRGB"
       id="filter2"
       x="-0.545201"
       y="-0.88686217"
       width="2.090402"
       height="2.7737243">
      <feGaussianBlur
         stdDeviation="4.3199889"
         id="feGaussianBlur2" />
    </filter>
    <clipPath
       clipPathUnits="userSpaceOnUse"
       id="clipPath1">
      <path
         style="font-size:224.608px;line-height:393.415px;font-family:'Cherry Bomb One';-inkscape-font-specification:'Cherry Bomb One';letter-spacing:0px;fill:#bf4040;fill-opacity:1;stroke:none;stroke-width:2.11667;stroke-linecap:square;paint-order:stroke fill markers"
         d="m 452.78682,224.36663 q -8.98432,0 -12.80266,-4.94138 -3.59373,-5.16598 -4.26757,-12.80265 -0.67381,-7.86128 -0.67381,-15.72256 0,-11.90423 -3.36913,-19.09168 -3.36912,-7.41207 -11.90421,-7.41207 -7.63667,0 -11.2304,7.41207 -3.59373,7.18745 -3.59373,19.09168 0,7.86128 -0.67384,15.49795 -0.44921,7.63667 -4.04294,12.80266 -3.59373,4.94137 -13.02726,4.94137 -6.96286,0 -11.67961,-5.16598 -4.49217,-5.16599 -6.96285,-13.47648 -2.47068,-8.3105 -3.59373,-17.96864 -0.89842,-9.65815 -0.89842,-18.64247 0,-8.98432 0.89842,-18.41785 0.89844,-9.43354 3.14452,-17.51943 2.47068,-8.08588 6.96285,-13.02726 4.49215,-4.94138 11.67961,-4.94138 12.80266,0 15.94715,11.67962 2.69531,-2.9199 8.53512,-5.39059 6.0644,-2.6953 13.70107,-2.6953 17.29484,0 28.30063,8.75971 11.00577,8.75972 15.94715,24.25767 5.16599,15.27334 4.94139,35.48806 0,10.33197 -2.02147,18.86707 -1.79687,8.3105 -6.51365,13.47648 -4.49215,4.94138 -12.80263,4.94138 z"
         id="path5" />
    </clipPath>
    <clipPath
       clipPathUnits="userSpaceOnUse"
       id="clipPath5">
      <path
         style="font-size:224.608px;line-height:393.415px;font-family:'Cherry Bomb One';-inkscape-font-specification:'Cherry Bomb One';letter-spacing:0px;fill:#bf4040;fill-opacity:1;stroke:none;stroke-width:2.11667;stroke-linecap:square;paint-order:stroke fill markers"
         d="m 452.78682,224.36663 q -8.98432,0 -12.80266,-4.94138 -3.59373,-5.16598 -4.26757,-12.80265 -0.67381,-7.86128 -0.67381,-15.72256 0,-11.90423 -3.36913,-19.09168 -3.36912,-7.41207 -11.90421,-7.41207 -7.63667,0 -11.2304,7.41207 -3.59373,7.18745 -3.59373,19.09168 0,7.86128 -0.67384,15.49795 -0.44921,7.63667 -4.04294,12.80266 -3.59373,4.94137 -13.02726,4.94137 -6.96286,0 -11.67961,-5.16598 -4.49217,-5.16599 -6.96285,-13.47648 -2.47068,-8.3105 -3.59373,-17.96864 -0.89842,-9.65815 -0.89842,-18.64247 0,-8.98432 0.89842,-18.41785 0.89844,-9.43354 3.14452,-17.51943 2.47068,-8.08588 6.96285,-13.02726 4.49215,-4.94138 11.67961,-4.94138 12.80266,0 15.94715,11.67962 2.69531,-2.9199 8.53512,-5.39059 6.0644,-2.6953 13.70107,-2.6953 17.29484,0 28.30063,8.75971 11.00577,8.75972 15.94715,24.25767 5.16599,15.27334 4.94139,35.48806 0,10.33197 -2.02147,18.86707 -1.79687,8.3105 -6.51365,13.47648 -4.49215,4.94138 -12.80263,4.94138 z"
         id="path8" />
    </clipPath>
    <clipPath
       clipPathUnits="userSpaceOnUse"
       id="clipPath8">
      <path
         style="font-size:224.608px;line-height:393.415px;font-family:'Cherry Bomb One';-inkscape-font-specification:'Cherry Bomb One';letter-spacing:0px;fill:#bf4040;fill-opacity:1;stroke:none;stroke-width:2.11667;stroke-linecap:square;paint-order:stroke fill markers"
         d="m 452.78682,224.36663 q -8.98432,0 -12.80266,-4.94138 -3.59373,-5.16598 -4.26757,-12.80265 -0.67381,-7.86128 -0.67381,-15.72256 0,-11.90423 -3.36913,-19.09168 -3.36912,-7.41207 -11.90421,-7.41207 -7.63667,0 -11.2304,7.41207 -3.59373,7.18745 -3.59373,19.09168 0,7.86128 -0.67384,15.49795 -0.44921,7.63667 -4.04294,12.80266 -3.59373,4.94137 -13.02726,4.94137 -6.96286,0 -11.67961,-5.16598 -4.49217,-5.16599 -6.96285,-13.47648 -2.47068,-8.3105 -3.59373,-17.96864 -0.89842,-9.65815 -0.89842,-18.64247 0,-8.98432 0.89842,-18.41785 0.89844,-9.43354 3.14452,-17.51943 2.47068,-8.08588 6.96285,-13.02726 4.49215,-4.94138 11.67961,-4.94138 12.80266,0 15.94715,11.67962 2.69531,-2.9199 8.53512,-5.39059 6.0644,-2.6953 13.70107,-2.6953 17.29484,0 28.30063,8.75971 11.00577,8.75972 15.94715,24.25767 5.16599,15.27334 4.94139,35.48806 0,10.33197 -2.02147,18.86707 -1.79687,8.3105 -6.51365,13.47648 -4.49215,4.94138 -12.80263,4.94138 z"
         id="path11" />
    </clipPath>
    <clipPath
       clipPathUnits="userSpaceOnUse"
       id="clipPath11">
      <path
         style="font-size:224.608px;line-height:393.415px;font-family:'Cherry Bomb One';-inkscape-font-specification:'Cherry Bomb One';letter-spacing:0px;fill:#bf4040;fill-opacity:1;stroke:none;stroke-width:2.11667;stroke-linecap:square;paint-order:stroke fill markers"
         d="m 452.78682,224.36663 q -8.98432,0 -12.80266,-4.94138 -3.59373,-5.16598 -4.26757,-12.80265 -0.67381,-7.86128 -0.67381,-15.72256 0,-11.90423 -3.36913,-19.09168 -3.36912,-7.41207 -11.90421,-7.41207 -7.63667,0 -11.2304,7.41207 -3.59373,7.18745 -3.59373,19.09168 0,7.86128 -0.67384,15.49795 -0.44921,7.63667 -4.04294,12.80266 -3.59373,4.94137 -13.02726,4.94137 -6.96286,0 -11.67961,-5.16598 -4.49217,-5.16599 -6.96285,-13.47648 -2.47068,-8.3105 -3.59373,-17.96864 -0.89842,-9.65815 -0.89842,-18.64247 0,-8.98432 0.89842,-18.41785 0.89844,-9.43354 3.14452,-17.51943 2.47068,-8.08588 6.96285,-13.02726 4.49215,-4.94138 11.67961,-4.94138 12.80266,0 15.94715,11.67962 2.69531,-2.9199 8.53512,-5.39059 6.0644,-2.6953 13.70107,-2.6953 17.29484,0 28.30063,8.75971 11.00577,8.75972 15.94715,24.25767 5.16599,15.27334 4.94139,35.48806 0,10.33197 -2.02147,18.86707 -1.79687,8.3105 -6.51365,13.47648 -4.49215,4.94138 -12.80263,4.94138 z"
         id="path12" />
    </clipPath>
    <clipPath
       clipPathUnits="userSpaceOnUse"
       id="clipPath12">
      <path
         style="font-size:224.608px;line-height:393.415px;font-family:'Cherry Bomb One';-inkscape-font-specification:'Cherry Bomb One';letter-spacing:0px;fill:#bf4040;fill-opacity:1;stroke:none;stroke-width:2.11667;stroke-linecap:square;paint-order:stroke fill markers"
         d="m 452.78682,224.36663 q -8.98432,0 -12.80266,-4.94138 -3.59373,-5.16598 -4.26757,-12.80265 -0.67381,-7.86128 -0.67381,-15.72256 0,-11.90423 -3.36913,-19.09168 -3.36912,-7.41207 -11.90421,-7.41207 -7.63667,0 -11.2304,7.41207 -3.59373,7.18745 -3.59373,19.09168 0,7.86128 -0.67384,15.49795 -0.44921,7.63667 -4.04294,12.80266 -3.59373,4.94137 -13.02726,4.94137 -6.96286,0 -11.67961,-5.16598 -4.49217,-5.16599 -6.96285,-13.47648 -2.47068,-8.3105 -3.59373,-17.96864 -0.89842,-9.65815 -0.89842,-18.64247 0,-8.98432 0.89842,-18.41785 0.89844,-9.43354 3.14452,-17.51943 2.47068,-8.08588 6.96285,-13.02726 4.49215,-4.94138 11.67961,-4.94138 12.80266,0 15.94715,11.67962 2.69531,-2.9199 8.53512,-5.39059 6.0644,-2.6953 13.70107,-2.6953 17.29484,0 28.30063,8.75971 11.00577,8.75972 15.94715,24.25767 5.16599,15.27334 4.94139,35.48806 0,10.33197 -2.02147,18.86707 -1.79687,8.3105 -6.51365,13.47648 -4.49215,4.94138 -12.80263,4.94138 z"
         id="path14" />
    </clipPath>
    <clipPath
       clipPathUnits="userSpaceOnUse"
       id="clipPath15">
      <path
         style="font-size:224.608px;line-height:393.415px;font-family:'Cherry Bomb One';-inkscape-font-specification:'Cherry Bomb One';letter-spacing:0px;fill:#bf4040;fill-opacity:1;stroke:none;stroke-width:2.11667;stroke-linecap:square;paint-order:stroke fill markers"
         d="m 511.63431,224.36663 q -8.98433,0 -13.47647,-5.16598 -4.26755,-5.16599 -5.83981,-15.72256 -1.34765,-10.78119 -1.57226,-27.62679 0,-16.8456 1.34763,-27.62678 1.57226,-10.78119 6.06444,-15.72256 4.49214,-5.16599 13.47647,-5.16599 8.98432,0 13.25187,5.16599 4.49217,4.94137 6.06443,15.72256 1.57223,10.78118 1.57223,27.62678 0.22461,16.8456 -1.34762,27.62679 -1.57226,10.55657 -6.06444,15.72256 -4.49215,5.16598 -13.47647,5.16598 z"
         id="path16" />
    </clipPath>
    <clipPath
       clipPathUnits="userSpaceOnUse"
       id="clipPath17">
      <path
         style="font-size:224.608px;line-height:393.415px;font-family:'Cherry Bomb One';-inkscape-font-specification:'Cherry Bomb One';letter-spacing:0px;fill:#bf4040;fill-opacity:1;stroke:none;stroke-width:2.11667;stroke-linecap:square;paint-order:stroke fill markers"
         d="m 681.32926,224.3022 q -8.98433,0 -13.47647,-5.16597 -4.26755,-5.16599 -5.83981,-15.72257 -1.34765,-10.78118 -1.57226,-27.62678 0,-16.8456 1.34763,-27.62678 1.57226,-10.78119 6.06444,-15.72257 4.49214,-5.16598 13.47647,-5.16598 8.98432,0 13.25187,5.16598 4.49217,4.94138 6.06443,15.72257 1.57223,10.78118 1.57223,27.62678 0.22461,16.8456 -1.34762,27.62678 -1.57226,10.55658 -6.06444,15.72257 -4.49215,5.16597 -13.47647,5.16597 z"
         id="path17" />
    </clipPath>
    <clipPath
       clipPathUnits="userSpaceOnUse"
       id="clipPath18">
      <path
         style="font-size:224.608px;line-height:393.415px;font-family:'Cherry Bomb One';-inkscape-font-specification:'Cherry Bomb One';letter-spacing:0px;fill:#bf4040;fill-opacity:1;stroke:none;stroke-width:2.11667;stroke-linecap:square;paint-order:stroke fill markers"
         d="m 573.177,224.36663 q -7.63667,0 -12.57805,-4.94138 -4.71678,-5.16598 -7.18746,-13.70108 -2.47068,-8.53511 -3.36913,-19.5409 -0.89842,-11.00579 -0.89842,-22.68541 0,-7.86128 0.22461,-15.94717 0.44921,-8.31049 2.24607,-15.27334 2.02147,-6.96285 6.51362,-11.2304 4.71678,-4.49216 13.25187,-4.49216 6.06443,0 11.00582,2.9199 4.94136,2.6953 6.28901,8.3105 5.16599,-4.71677 13.02727,-6.73824 8.08587,-2.24608 16.62099,-2.24608 7.18746,0 14.59952,3.59373 7.41207,3.36912 12.57803,9.43353 5.16599,6.06442 5.16599,13.70109 0,6.51363 -4.94136,12.35344 -4.71678,5.83981 -13.4765,5.83981 -3.81831,0 -6.28901,-0.89843 -2.47068,-1.12304 -4.71676,-2.02147 -2.2461,-0.89844 -5.39059,-0.89844 -8.31051,0 -15.27337,6.73824 -6.73822,6.51364 -6.73822,17.74404 0,5.8398 -0.44921,12.80265 -0.22463,6.73824 -2.02147,13.02727 -1.57226,6.28902 -5.83983,10.33196 -4.26754,3.81834 -12.35342,3.81834 z"
         id="path19" />
    </clipPath>
    <clipPath
       clipPathUnits="userSpaceOnUse"
       id="clipPath19">
      <path
         style="font-size:224.608px;line-height:393.415px;font-family:'Cherry Bomb One';-inkscape-font-specification:'Cherry Bomb One';letter-spacing:0px;fill:#bf4040;fill-opacity:1;stroke:none;stroke-width:2.11667;stroke-linecap:square;paint-order:stroke fill markers"
         d="m 573.177,224.36663 q -7.63667,0 -12.57805,-4.94138 -4.71678,-5.16598 -7.18746,-13.70108 -2.47068,-8.53511 -3.36913,-19.5409 -0.89842,-11.00579 -0.89842,-22.68541 0,-7.86128 0.22461,-15.94717 0.44921,-8.31049 2.24607,-15.27334 2.02147,-6.96285 6.51362,-11.2304 4.71678,-4.49216 13.25187,-4.49216 6.06443,0 11.00582,2.9199 4.94136,2.6953 6.28901,8.3105 5.16599,-4.71677 13.02727,-6.73824 8.08587,-2.24608 16.62099,-2.24608 7.18746,0 14.59952,3.59373 7.41207,3.36912 12.57803,9.43353 5.16599,6.06442 5.16599,13.70109 0,6.51363 -4.94136,12.35344 -4.71678,5.83981 -13.4765,5.83981 -3.81831,0 -6.28901,-0.89843 -2.47068,-1.12304 -4.71676,-2.02147 -2.2461,-0.89844 -5.39059,-0.89844 -8.31051,0 -15.27337,6.73824 -6.73822,6.51364 -6.73822,17.74404 0,5.8398 -0.44921,12.80265 -0.22463,6.73824 -2.02147,13.02727 -1.57226,6.28902 -5.83983,10.33196 -4.26754,3.81834 -12.35342,3.81834 z"
         id="path20" />
    </clipPath>
    <clipPath
       clipPathUnits="userSpaceOnUse"
       id="clipPath20">
      <path
         style="font-size:224.608px;line-height:393.415px;font-family:'Cherry Bomb One';-inkscape-font-specification:'Cherry Bomb One';letter-spacing:0px;fill:#bf4040;fill-opacity:1;stroke:none;stroke-width:2.11667;stroke-linecap:square;paint-order:stroke fill markers"
         d="m 573.177,224.36663 q -7.63667,0 -12.57805,-4.94138 -4.71678,-5.16598 -7.18746,-13.70108 -2.47068,-8.53511 -3.36913,-19.5409 -0.89842,-11.00579 -0.89842,-22.68541 0,-7.86128 0.22461,-15.94717 0.44921,-8.31049 2.24607,-15.27334 2.02147,-6.96285 6.51362,-11.2304 4.71678,-4.49216 13.25187,-4.49216 6.06443,0 11.00582,2.9199 4.94136,2.6953 6.28901,8.3105 5.16599,-4.71677 13.02727,-6.73824 8.08587,-2.24608 16.62099,-2.24608 7.18746,0 14.59952,3.59373 7.41207,3.36912 12.57803,9.43353 5.16599,6.06442 5.16599,13.70109 0,6.51363 -4.94136,12.35344 -4.71678,5.83981 -13.4765,5.83981 -3.81831,0 -6.28901,-0.89843 -2.47068,-1.12304 -4.71676,-2.02147 -2.2461,-0.89844 -5.39059,-0.89844 -8.31051,0 -15.27337,6.73824 -6.73822,6.51364 -6.73822,17.74404 0,5.8398 -0.44921,12.80265 -0.22463,6.73824 -2.02147,13.02727 -1.57226,6.28902 -5.83983,10.33196 -4.26754,3.81834 -12.35342,3.81834 z"
         id="path21" />
    </clipPath>
    <clipPath
       clipPathUnits="userSpaceOnUse"
       id="clipPath21">
      <path
         style="font-size:224.608px;line-height:393.415px;font-family:'Cherry Bomb One';-inkscape-font-specification:'Cherry Bomb One';letter-spacing:0px;fill:#bf4040;fill-opacity:1;stroke:none;stroke-width:2.11667;stroke-linecap:square;paint-order:stroke fill markers"
         d="m 573.177,224.36663 q -7.63667,0 -12.57805,-4.94138 -4.71678,-5.16598 -7.18746,-13.70108 -2.47068,-8.53511 -3.36913,-19.5409 -0.89842,-11.00579 -0.89842,-22.68541 0,-7.86128 0.22461,-15.94717 0.44921,-8.31049 2.24607,-15.27334 2.02147,-6.96285 6.51362,-11.2304 4.71678,-4.49216 13.25187,-4.49216 6.06443,0 11.00582,2.9199 4.94136,2.6953 6.28901,8.3105 5.16599,-4.71677 13.02727,-6.73824 8.08587,-2.24608 16.62099,-2.24608 7.18746,0 14.59952,3.59373 7.41207,3.36912 12.57803,9.43353 5.16599,6.06442 5.16599,13.70109 0,6.51363 -4.94136,12.35344 -4.71678,5.83981 -13.4765,5.83981 -3.81831,0 -6.28901,-0.89843 -2.47068,-1.12304 -4.71676,-2.02147 -2.2461,-0.89844 -5.39059,-0.89844 -8.31051,0 -15.27337,6.73824 -6.73822,6.51364 -6.73822,17.74404 0,5.8398 -0.44921,12.80265 -0.22463,6.73824 -2.02147,13.02727 -1.57226,6.28902 -5.83983,10.33196 -4.26754,3.81834 -12.35342,3.81834 z"
         id="path22" />
    </clipPath>
    <clipPath
       clipPathUnits="userSpaceOnUse"
       id="clipPath23">
      <path
         style="font-size:224.608px;line-height:393.415px;font-family:'Cherry Bomb One';-inkscape-font-specification:'Cherry Bomb One';letter-spacing:0px;fill:#bf4040;fill-opacity:1;stroke:none;stroke-width:2.11667;stroke-linecap:square;paint-order:stroke fill markers"
         d="m 681.43807,224.36663 q -8.98432,0 -13.47647,-5.16598 -4.26757,-5.16599 -5.83983,-15.72256 -1.34763,-10.78119 -1.57226,-27.62679 0,-16.8456 1.34765,-27.62678 1.57226,-10.78119 6.06444,-15.72256 4.49215,-5.16599 13.47647,-5.16599 8.98432,0 13.25187,5.16599 4.49215,4.94137 6.06441,15.72256 1.57226,10.78118 1.57226,27.62678 0.2246,16.8456 -1.34766,27.62679 -1.57223,10.55657 -6.06441,15.72256 -4.49215,5.16598 -13.47647,5.16598 z"
         id="path25" />
    </clipPath>
    <clipPath
       clipPathUnits="userSpaceOnUse"
       id="clipPath25">
      <path
         style="font-size:224.608px;line-height:393.415px;font-family:'Cherry Bomb One';-inkscape-font-specification:'Cherry Bomb One';letter-spacing:0px;fill:#bf4040;fill-opacity:1;stroke:none;stroke-width:2.11667;stroke-linecap:square;paint-order:stroke fill markers"
         d="m 681.43807,224.36663 q -8.98432,0 -13.47647,-5.16598 -4.26757,-5.16599 -5.83983,-15.72256 -1.34763,-10.78119 -1.57226,-27.62679 0,-16.8456 1.34765,-27.62678 1.57226,-10.78119 6.06444,-15.72256 4.49215,-5.16599 13.47647,-5.16599 8.98432,0 13.25187,5.16599 4.49215,4.94137 6.06441,15.72256 1.57226,10.78118 1.57226,27.62678 0.2246,16.8456 -1.34766,27.62679 -1.57223,10.55657 -6.06441,15.72256 -4.49215,5.16598 -13.47647,5.16598 z"
         id="path26" />
    </clipPath>
    <clipPath
       clipPathUnits="userSpaceOnUse"
       id="clipPath34">
      <path
         id="path35"
         style="fill:#bf4040;fill-opacity:1;stroke-width:2.11667;stroke-linecap:square;paint-order:stroke fill markers"
         d="m 169.33334,220.13334 c 0,8.46667 -4.23334,16.93333 -33.86667,16.93333 -29.63333,0 -33.86667,-8.46666 -33.86667,-16.93333 0,-12.7 8.46667,-21.16667 33.86667,-21.16667 25.4,0 33.86667,8.46667 33.86667,21.16667 z" />
    </clipPath>
    <clipPath
       clipPathUnits="userSpaceOnUse"
       id="clipPath35">
      <path
         id="path36"
         style="fill:#bf4040;fill-opacity:1;stroke-width:2.11667;stroke-linecap:square;paint-order:stroke fill markers"
         d="m 715.91343,141.3418 c 0,8.46667 -4.23334,16.93332 -33.86667,16.93332 -29.63333,0 -33.86667,-8.46665 -33.86667,-16.93332 0,-12.7 8.46667,-21.16668 33.86667,-21.16668 25.4,0 33.86667,8.46668 33.86667,21.16668 z" />
    </clipPath>
    <filter
       style="color-interpolation-filters:sRGB"
       id="filter61"
       x="-0.43233622"
       y="-0.31282974"
       width="1.8646724"
       height="1.6256595">
      <feGaussianBlur
         stdDeviation="18.492881"
         id="feGaussianBlur61" />
    </filter>
    <linearGradient
       inkscape:collect="always"
       xlink:href="#linearGradient1"
       id="linearGradient2"
       x1="-3.6298752"
       y1="229.95894"
       x2="160.69257"
       y2="24.819994"
       gradientUnits="userSpaceOnUse" />
  </defs>
  <g
     id="layer1"
     transform="translate(255.60477,-19.034522)">
    <g
       id="g71"
       transform="matrix(0.53845513,0,0,0.53845513,-260.51955,13.25883)"
       inkscape:label="ICON">
      <g
         id="g4"
         inkscape:label="OUTLINE">
        <path
           id="path1"
           style="display:inline;fill:#2d2d2d;fill-opacity:1;stroke-width:2.11667;stroke-linecap:square;paint-order:stroke fill markers"
           d="m 131.35535,193.41317 c -8.42529,0.21555 -17.07195,1.23898 -24.70899,5.03516 -6.56852,3.28887 -11.780948,9.56904 -13.037575,16.89416 -1.12503,5.50318 -0.847502,11.50687 1.819693,16.54193 2.619641,4.74577 7.282642,8.08459 12.343352,9.82958 7.20278,2.70364 14.97875,3.20323 22.59699,3.46523 7.89843,0.20478 15.85819,-0.17121 23.61105,-1.76836 5.63625,-1.25422 11.31076,-3.51115 15.35105,-7.77992 3.29144,-3.52234 5.05422,-8.32066 5.11255,-13.1185 0.31661,-6.70741 -1.69285,-13.72981 -6.39837,-18.65616 -4.18578,-4.5464 -10.04779,-7.11576 -15.95626,-8.569 -6.77112,-1.66654 -13.79057,-1.92415 -20.73349,-1.87412 z" />
        <path
           id="path4"
           style="display:inline;mix-blend-mode:normal;fill:#2d2d2d;fill-opacity:1;stroke:none;stroke-width:2.11667;stroke-linecap:square;stroke-opacity:1;paint-order:stroke fill markers"
           d="m 98.902224,36.772549 c -6.995893,0.126233 -13.62619,4.553849 -16.638172,10.834978 -3.470673,6.368967 -4.476788,13.68672 -5.225527,20.799337 -1.546324,15.903589 -0.51861,31.905986 -1.354082,47.842876 -0.544064,12.91133 -1.490643,25.96714 0.724426,38.77934 1.594594,9.15149 5.382372,18.1514 11.945332,24.8552 5.649973,5.83947 12.892719,10.17523 20.761639,12.23377 4.29395,0.94959 9.28733,-0.57303 11.73776,-4.36606 2.38164,-3.59662 2.34796,-8.32076 0.82613,-12.24486 -1.20789,-3.11502 -2.64307,-6.14315 -3.64842,-9.33584 -1.12185,-3.39459 -1.94228,-6.99797 -2.3869,-10.47882 -0.55748,-4.05967 -0.49766,-8.22945 -0.15435,-12.24032 0.58298,-6.27022 1.46357,-12.5645 3.39036,-18.57849 0.79153,-2.26867 1.52928,-4.64049 3.02766,-6.55814 5.54574,0.77098 10.63142,3.47347 15.10865,6.73077 1.80507,1.34294 3.49258,2.79574 5.00233,4.33482 4.14952,4.21383 7.69916,9.25861 9.14438,15.0671 1.23316,4.77068 1.46924,9.85005 0.41871,14.67703 -1.02032,4.50982 -3.25363,8.60065 -5.45452,12.62181 -1.87577,3.646 -3.05511,7.8744 -2.17051,11.96837 0.96209,4.20638 4.82507,7.5927 9.1658,7.8093 4.52117,0.38592 8.79301,-1.6188 12.64582,-3.75368 9.91038,-5.51624 17.57193,-14.7796 21.44242,-25.41236 3.56981,-9.82442 4.74142,-20.45137 3.89537,-30.84701 -1.23706,-11.29301 -6.03879,-21.87272 -12.00583,-31.42104 -8.7119,-13.884894 -20.08721,-25.908588 -32.38582,-36.666079 -9.92644,-8.582365 -20.62052,-16.394651 -32.3549,-22.32888 -4.66406,-2.261816 -9.65523,-4.278849 -14.913576,-4.33312 -0.18139,0.0033 -0.36279,0.0067 -0.54418,0.01 z" />
      </g>
      <path
         id="path2"
         style="display:inline;fill:url(#linearGradient2);fill-opacity:1;stroke-width:2.11667;stroke-linecap:square;paint-order:stroke fill markers"
         d="M 101.5994 42.333286 C 84.666067 42.333286 84.666625 67.732989 84.666625 101.59965 C 84.666625 123.79745 80.433973 148.16671 88.900639 165.10004 C 94.120654 175.54007 102.8727 180.83855 110.17226 183.52332 C 116.85346 185.98066 119.34762 181.52878 116.3685 175.04874 C 113.20966 168.17779 110.06743 158.69699 110.06743 148.16726 C 110.06743 134.95286 114.29954 110.06605 122.7662 110.06604 C 128.82404 110.06603 139.70034 114.29978 148.16701 122.76645 C 156.63368 131.23312 160.86741 139.69963 160.86741 152.39963 C 160.86741 159.48891 158.07401 166.40619 154.75634 172.12178 C 149.81849 180.62857 152.27761 186.15558 161.15568 182.01152 C 172.87504 176.54121 186.26658 164.03894 186.26658 135.46685 C 186.26658 93.13352 118.53274 42.333286 101.5994 42.333286 z M 135.4666 198.96723 C 110.0666 198.96723 101.5994 207.43403 101.5994 220.13403 C 101.5994 228.6007 105.83327 237.06681 135.4666 237.06681 C 165.09993 237.06681 169.3338 228.6007 169.3338 220.13403 C 169.3338 207.43403 160.8666 198.96723 135.4666 198.96723 z " />
      <g
         id="g26"
         clip-path="none"
         style="display:inline"
         inkscape:label="STUB">
        <path
           style="mix-blend-mode:normal;fill:#ffffff;fill-opacity:0.745813;fill-rule:nonzero;stroke:none;stroke-width:1.292;stroke-linecap:round;stroke-linejoin:round;stroke-opacity:1;filter:url(#filter27)"
           d="m 649.45734,133.81724 c 0.30861,-0.52382 1.24567,-1.10943 2.25778,-1.9344 0.71834,-0.58551 1.60294,-1.1585 2.689,-1.71704 1.33566,-0.68692 2.82604,-1.27591 4.41873,-1.81477 0.91309,-0.30893 1.90318,-0.61043 2.97552,-0.89949 2.75909,-0.74374 5.93213,-1.36936 9.45117,-1.81993 3.4485,-0.44153 7.02191,-0.68799 10.54487,-0.74159 0.11888,-0.002 0.23758,-0.003 0.35611,-0.005 3.42087,-0.0395 6.87572,0.10105 10.20745,0.42751 3.52675,0.34557 6.72,0.8799 9.50577,1.55294 1.13268,0.27365 2.17777,0.56526 3.14025,0.86932 1.5536,0.49082 3.01719,1.0374 4.3387,1.68661 1.10269,0.54172 2.00605,1.10621 2.74422,1.69041 1.03948,0.82267 1.92442,1.4682 2.24848,1.99812 -0.19311,-0.57592 -0.56732,-1.6128 -1.44388,-2.71822 -0.62575,-0.78911 -1.46647,-2.06647 -2.53663,-2.85214 -1.27528,-0.93627 -2.69843,-2.19648 -4.28815,-2.8662 -0.98885,-0.41658 -2.24548,-1.23914 -3.41727,-1.59811 -2.87657,-0.88121 -5.61102,-1.58246 -9.24402,-2.0046 -3.43498,-0.39913 -7.78163,-0.93367 -11.29835,-0.89735 -0.12203,0.001 -0.24424,0.003 -0.36663,0.005 -3.62086,0.0519 -8.29298,0.61115 -11.8461,1.12441 -3.62258,0.5233 -6.54204,1.50557 -9.38537,2.45693 -1.10746,0.37055 -2.4353,1.22472 -3.37108,1.64065 -1.62494,0.72224 -2.75555,1.66679 -4.03455,2.65099 -1.04655,0.80534 -1.65707,2.24134 -2.25723,3.03279 -0.84139,1.10955 -1.24261,2.1654 -1.41747,2.7334 z"
           id="path24"
           transform="translate(-546.58009,78.791545)"
           clip-path="url(#clipPath35)"
           sodipodi:nodetypes="csssssccssssscsssssccssssscc" />
        <path
           style="mix-blend-mode:normal;fill:#000000;fill-opacity:0.747711;fill-rule:nonzero;stroke:none;stroke-width:1.292;stroke-linecap:round;stroke-linejoin:round;filter:url(#filter60)"
           d="m 102.62873,226.09888 c 0.21837,0.59119 0.61147,1.63901 1.62645,2.90953 0.71917,0.90024 1.67343,1.81283 2.88011,2.66136 0.63885,0.44924 1.326,0.86437 2.04583,1.23422 1.73607,0.89199 3.88794,1.6902 6.44451,2.35832 3.15978,0.82576 6.73316,1.3998 10.52375,1.74639 2.77174,0.25344 5.543,0.37487 8.21345,0.40382 1.03453,0.0112 2.07172,0.008 3.10774,-0.0105 3.80268,-0.0675 7.55355,-0.33754 11.05616,-0.82447 3.61058,-0.50195 6.89851,-1.22612 9.69476,-2.17075 0.18263,-0.0617 0.36305,-0.1243 0.54123,-0.1878 2.50252,-0.89183 4.82056,-2.11237 6.51802,-3.52561 0.94359,-0.78561 1.6151,-1.56242 2.06492,-2.2946 0.63371,-1.03151 0.74175,-1.832 0.76927,-2.29791 -0.27946,0.40619 -0.77594,0.89664 -1.67451,1.38662 -0.63117,0.34418 -1.42595,0.67135 -2.41953,0.98728 -1.84319,0.58607 -3.98976,1.02107 -6.42445,1.47239 -0.16947,0.0314 -0.34092,0.0627 -0.51435,0.094 -2.66528,0.48001 -5.74678,0.9266 -9.18723,1.27047 -3.33185,0.33301 -6.89061,0.55814 -10.52391,0.6262 -0.98784,0.0185 -1.97654,0.0253 -2.96263,0.0197 -2.54936,-0.0146 -5.17908,-0.11853 -7.80849,-0.31818 -3.6162,-0.27458 -6.92286,-0.70577 -9.89494,-1.23993 -2.40547,-0.43232 -4.36461,-0.8899 -6.04479,-1.31771 -0.70208,-0.17876 -1.35634,-0.34389 -2.02406,-0.52251 -1.24448,-0.33289 -2.31304,-0.65483 -3.26912,-1.01993 -1.3453,-0.51373 -2.22471,-1.029 -2.73819,-1.44035 z"
           id="path59"
           clip-path="url(#clipPath34)" />
      </g>
    </g>
  </g>
</svg>
