<?xml version="1.0" encoding="UTF-8" standalone="no"?>
<svg
   width="253.46544"
   height="134.92722"
   viewBox="0 0 123.86632 37.866682"
   version="1.1"
   id="svg1"
   sodipodi:docname="niri-logo-smol.svg"
   inkscape:version="1.4.2 (ebf0e940d0, 2025-05-08)"
   inkscape:export-filename="niri-logo-smol.png"
   inkscape:export-xdpi="96"
   inkscape:export-ydpi="96"
   xmlns:inkscape="http://www.inkscape.org/namespaces/inkscape"
   xmlns:sodipodi="http://sodipodi.sourceforge.net/DTD/sodipodi-0.dtd"
   xmlns="http://www.w3.org/2000/svg"
   xmlns:svg="http://www.w3.org/2000/svg">
  <sodipodi:namedview
     id="namedview1"
     borderopacity="1"
     inkscape:showpageshadow="0"
     inkscape:pageopacity="0"
     inkscape:pagecheckerboard="1"
     inkscape:zoom="0.2284248"
     inkscape:cx="76.611646"
     inkscape:cy="89.745071"
     inkscape:window-width="990"
     inkscape:window-height="1048"
     inkscape:window-x="0"
     inkscape:window-y="0"
     inkscape:window-maximized="0"
     inkscape:current-layer="layer1"
     pagecolor="#ffffff"
     bordercolor="#000000"
     inkscape:deskcolor="#d1d1d1" />
  <defs
     id="defs1">
    <filter
       style="color-interpolation-filters:sRGB"
       id="filter21"
       x="-0.35129356"
       y="-0.93287116"
       width="1.7025871"
       height="2.8657422">
      <feGaussianBlur
         stdDeviation="5.0792937"
         id="feGaussianBlur21" />
    </filter>
    <filter
       style="color-interpolation-filters:sRGB"
       id="filter22"
       x="-0.42891073"
       y="-0.64938289"
       width="1.8578213"
       height="2.2987657">
      <feGaussianBlur
         stdDeviation="6.5904956"
         id="feGaussianBlur22" />
    </filter>
    <filter
       style="color-interpolation-filters:sRGB"
       id="filter23"
       x="-0.41511482"
       y="-0.64325017"
       width="1.8302296"
       height="2.2865005">
      <feGaussianBlur
         stdDeviation="7.8584288"
         id="feGaussianBlur23" />
    </filter>
    <filter
       style="color-interpolation-filters:sRGB"
       id="filter24"
       x="-0.36140347"
       y="-0.92623633"
       width="1.7228069"
       height="2.8524725">
      <feGaussianBlur
         stdDeviation="5.269127"
         id="feGaussianBlur24" />
    </filter>
    <filter
       style="color-interpolation-filters:sRGB"
       id="filter27"
       x="-0.30853596"
       y="-1.6721658"
       width="1.6170719"
       height="4.3443317">
      <feGaussianBlur
         stdDeviation="8.2543341"
         id="feGaussianBlur26" />
    </filter>
    <filter
       style="color-interpolation-filters:sRGB"
       id="filter52"
       x="-0.33025387"
       y="-1.0968854"
       width="1.6605078"
       height="3.1937709">
      <feGaussianBlur
         stdDeviation="4.2575558"
         id="feGaussianBlur52" />
    </filter>
    <filter
       style="color-interpolation-filters:sRGB"
       id="filter53"
       x="-0.34014133"
       y="-1.0243618"
       width="1.6802826"
       height="3.0487237">
      <feGaussianBlur
         stdDeviation="4.3187927"
         id="feGaussianBlur54" />
    </filter>
    <filter
       style="color-interpolation-filters:sRGB"
       id="filter55"
       x="-0.33171228"
       y="-1.092941"
       width="1.6634245"
       height="3.1858823">
      <feGaussianBlur
         stdDeviation="4.4263355"
         id="feGaussianBlur55" />
    </filter>
    <filter
       style="color-interpolation-filters:sRGB"
       id="filter56"
       x="-0.3459667"
       y="-0.98818076"
       width="1.6919334"
       height="2.9763615">
      <feGaussianBlur
         stdDeviation="4.9267071"
         id="feGaussianBlur56" />
    </filter>
    <filter
       style="color-interpolation-filters:sRGB"
       id="filter57"
       x="-0.50604737"
       y="-0.53225249"
       width="2.0120947"
       height="2.0645051">
      <feGaussianBlur
         stdDeviation="5.8261111"
         id="feGaussianBlur57" />
    </filter>
    <filter
       style="color-interpolation-filters:sRGB"
       id="filter58"
       x="-0.32130077"
       y="-1.1307663"
       width="1.6426016"
       height="3.2615325">
      <feGaussianBlur
         stdDeviation="4.2390405"
         id="feGaussianBlur58" />
    </filter>
    <filter
       style="color-interpolation-filters:sRGB"
       id="filter59"
       x="-0.4030115"
       y="-0.71156067"
       width="1.806023"
       height="2.4231212">
      <feGaussianBlur
         stdDeviation="4.4950086"
         id="feGaussianBlur59" />
    </filter>
    <filter
       style="color-interpolation-filters:sRGB"
       id="filter60"
       x="-0.2985791"
       y="-1.7272615"
       width="1.5971582"
       height="4.4545231">
      <feGaussianBlur
         stdDeviation="8.1470038"
         id="feGaussianBlur60" />
    </filter>
    <filter
       style="color-interpolation-filters:sRGB"
       id="filter70"
       x="-0.44225678"
       y="-0.3197549"
       width="1.8841637"
       height="1.6395177">
      <feGaussianBlur
         stdDeviation="18.461288"
         id="feGaussianBlur70" />
    </filter>
    <filter
       style="color-interpolation-filters:sRGB"
       id="filter72"
       x="-0.43271318"
       y="-0.31310251"
       width="1.8654264"
       height="1.626205">
      <feGaussianBlur
         stdDeviation="18.509006"
         id="feGaussianBlur72" />
    </filter>
    <filter
       style="color-interpolation-filters:sRGB"
       id="filter1"
       x="-0.45705071"
       y="-0.57220238"
       width="1.9141014"
       height="2.1444046">
      <feGaussianBlur
         stdDeviation="8.5810337"
         id="feGaussianBlur1" />
    </filter>
    <filter
       style="color-interpolation-filters:sRGB"
       id="filter2"
       x="-0.545201"
       y="-0.88686216"
       width="2.0904019"
       height="2.7737243">
      <feGaussianBlur
         stdDeviation="4.3199889"
         id="feGaussianBlur2" />
    </filter>
    <clipPath
       clipPathUnits="userSpaceOnUse"
       id="clipPath1">
      <path
         style="font-size:224.608px;line-height:393.415px;font-family:'Cherry Bomb One';-inkscape-font-specification:'Cherry Bomb One';letter-spacing:0px;fill:#d55c44;fill-opacity:1;stroke:none;stroke-width:2.11667;stroke-linecap:square;paint-order:stroke fill markers"
         d="m 452.78682,224.36663 q -8.98432,0 -12.80266,-4.94138 -3.59373,-5.16598 -4.26757,-12.80265 -0.67381,-7.86128 -0.67381,-15.72256 0,-11.90423 -3.36913,-19.09168 -3.36912,-7.41207 -11.90421,-7.41207 -7.63667,0 -11.2304,7.41207 -3.59373,7.18745 -3.59373,19.09168 0,7.86128 -0.67384,15.49795 -0.44921,7.63667 -4.04294,12.80266 -3.59373,4.94137 -13.02726,4.94137 -6.96286,0 -11.67961,-5.16598 -4.49217,-5.16599 -6.96285,-13.47648 -2.47068,-8.3105 -3.59373,-17.96864 -0.89842,-9.65815 -0.89842,-18.64247 0,-8.98432 0.89842,-18.41785 0.89844,-9.43354 3.14452,-17.51943 2.47068,-8.08588 6.96285,-13.02726 4.49215,-4.94138 11.67961,-4.94138 12.80266,0 15.94715,11.67962 2.69531,-2.9199 8.53512,-5.39059 6.0644,-2.6953 13.70107,-2.6953 17.29484,0 28.30063,8.75971 11.00577,8.75972 15.94715,24.25767 5.16599,15.27334 4.94139,35.48806 0,10.33197 -2.02147,18.86707 -1.79687,8.3105 -6.51365,13.47648 -4.49215,4.94138 -12.80263,4.94138 z"
         id="path5" />
    </clipPath>
    <clipPath
       clipPathUnits="userSpaceOnUse"
       id="clipPath5">
      <path
         style="font-size:224.608px;line-height:393.415px;font-family:'Cherry Bomb One';-inkscape-font-specification:'Cherry Bomb One';letter-spacing:0px;fill:#d55c44;fill-opacity:1;stroke:none;stroke-width:2.11667;stroke-linecap:square;paint-order:stroke fill markers"
         d="m 452.78682,224.36663 q -8.98432,0 -12.80266,-4.94138 -3.59373,-5.16598 -4.26757,-12.80265 -0.67381,-7.86128 -0.67381,-15.72256 0,-11.90423 -3.36913,-19.09168 -3.36912,-7.41207 -11.90421,-7.41207 -7.63667,0 -11.2304,7.41207 -3.59373,7.18745 -3.59373,19.09168 0,7.86128 -0.67384,15.49795 -0.44921,7.63667 -4.04294,12.80266 -3.59373,4.94137 -13.02726,4.94137 -6.96286,0 -11.67961,-5.16598 -4.49217,-5.16599 -6.96285,-13.47648 -2.47068,-8.3105 -3.59373,-17.96864 -0.89842,-9.65815 -0.89842,-18.64247 0,-8.98432 0.89842,-18.41785 0.89844,-9.43354 3.14452,-17.51943 2.47068,-8.08588 6.96285,-13.02726 4.49215,-4.94138 11.67961,-4.94138 12.80266,0 15.94715,11.67962 2.69531,-2.9199 8.53512,-5.39059 6.0644,-2.6953 13.70107,-2.6953 17.29484,0 28.30063,8.75971 11.00577,8.75972 15.94715,24.25767 5.16599,15.27334 4.94139,35.48806 0,10.33197 -2.02147,18.86707 -1.79687,8.3105 -6.51365,13.47648 -4.49215,4.94138 -12.80263,4.94138 z"
         id="path8" />
    </clipPath>
    <clipPath
       clipPathUnits="userSpaceOnUse"
       id="clipPath8">
      <path
         style="font-size:224.608px;line-height:393.415px;font-family:'Cherry Bomb One';-inkscape-font-specification:'Cherry Bomb One';letter-spacing:0px;fill:#d55c44;fill-opacity:1;stroke:none;stroke-width:2.11667;stroke-linecap:square;paint-order:stroke fill markers"
         d="m 452.78682,224.36663 q -8.98432,0 -12.80266,-4.94138 -3.59373,-5.16598 -4.26757,-12.80265 -0.67381,-7.86128 -0.67381,-15.72256 0,-11.90423 -3.36913,-19.09168 -3.36912,-7.41207 -11.90421,-7.41207 -7.63667,0 -11.2304,7.41207 -3.59373,7.18745 -3.59373,19.09168 0,7.86128 -0.67384,15.49795 -0.44921,7.63667 -4.04294,12.80266 -3.59373,4.94137 -13.02726,4.94137 -6.96286,0 -11.67961,-5.16598 -4.49217,-5.16599 -6.96285,-13.47648 -2.47068,-8.3105 -3.59373,-17.96864 -0.89842,-9.65815 -0.89842,-18.64247 0,-8.98432 0.89842,-18.41785 0.89844,-9.43354 3.14452,-17.51943 2.47068,-8.08588 6.96285,-13.02726 4.49215,-4.94138 11.67961,-4.94138 12.80266,0 15.94715,11.67962 2.69531,-2.9199 8.53512,-5.39059 6.0644,-2.6953 13.70107,-2.6953 17.29484,0 28.30063,8.75971 11.00577,8.75972 15.94715,24.25767 5.16599,15.27334 4.94139,35.48806 0,10.33197 -2.02147,18.86707 -1.79687,8.3105 -6.51365,13.47648 -4.49215,4.94138 -12.80263,4.94138 z"
         id="path11" />
    </clipPath>
    <clipPath
       clipPathUnits="userSpaceOnUse"
       id="clipPath11">
      <path
         style="font-size:224.608px;line-height:393.415px;font-family:'Cherry Bomb One';-inkscape-font-specification:'Cherry Bomb One';letter-spacing:0px;fill:#d55c44;fill-opacity:1;stroke:none;stroke-width:2.11667;stroke-linecap:square;paint-order:stroke fill markers"
         d="m 452.78682,224.36663 q -8.98432,0 -12.80266,-4.94138 -3.59373,-5.16598 -4.26757,-12.80265 -0.67381,-7.86128 -0.67381,-15.72256 0,-11.90423 -3.36913,-19.09168 -3.36912,-7.41207 -11.90421,-7.41207 -7.63667,0 -11.2304,7.41207 -3.59373,7.18745 -3.59373,19.09168 0,7.86128 -0.67384,15.49795 -0.44921,7.63667 -4.04294,12.80266 -3.59373,4.94137 -13.02726,4.94137 -6.96286,0 -11.67961,-5.16598 -4.49217,-5.16599 -6.96285,-13.47648 -2.47068,-8.3105 -3.59373,-17.96864 -0.89842,-9.65815 -0.89842,-18.64247 0,-8.98432 0.89842,-18.41785 0.89844,-9.43354 3.14452,-17.51943 2.47068,-8.08588 6.96285,-13.02726 4.49215,-4.94138 11.67961,-4.94138 12.80266,0 15.94715,11.67962 2.69531,-2.9199 8.53512,-5.39059 6.0644,-2.6953 13.70107,-2.6953 17.29484,0 28.30063,8.75971 11.00577,8.75972 15.94715,24.25767 5.16599,15.27334 4.94139,35.48806 0,10.33197 -2.02147,18.86707 -1.79687,8.3105 -6.51365,13.47648 -4.49215,4.94138 -12.80263,4.94138 z"
         id="path12" />
    </clipPath>
    <clipPath
       clipPathUnits="userSpaceOnUse"
       id="clipPath12">
      <path
         style="font-size:224.608px;line-height:393.415px;font-family:'Cherry Bomb One';-inkscape-font-specification:'Cherry Bomb One';letter-spacing:0px;fill:#d55c44;fill-opacity:1;stroke:none;stroke-width:2.11667;stroke-linecap:square;paint-order:stroke fill markers"
         d="m 452.78682,224.36663 q -8.98432,0 -12.80266,-4.94138 -3.59373,-5.16598 -4.26757,-12.80265 -0.67381,-7.86128 -0.67381,-15.72256 0,-11.90423 -3.36913,-19.09168 -3.36912,-7.41207 -11.90421,-7.41207 -7.63667,0 -11.2304,7.41207 -3.59373,7.18745 -3.59373,19.09168 0,7.86128 -0.67384,15.49795 -0.44921,7.63667 -4.04294,12.80266 -3.59373,4.94137 -13.02726,4.94137 -6.96286,0 -11.67961,-5.16598 -4.49217,-5.16599 -6.96285,-13.47648 -2.47068,-8.3105 -3.59373,-17.96864 -0.89842,-9.65815 -0.89842,-18.64247 0,-8.98432 0.89842,-18.41785 0.89844,-9.43354 3.14452,-17.51943 2.47068,-8.08588 6.96285,-13.02726 4.49215,-4.94138 11.67961,-4.94138 12.80266,0 15.94715,11.67962 2.69531,-2.9199 8.53512,-5.39059 6.0644,-2.6953 13.70107,-2.6953 17.29484,0 28.30063,8.75971 11.00577,8.75972 15.94715,24.25767 5.16599,15.27334 4.94139,35.48806 0,10.33197 -2.02147,18.86707 -1.79687,8.3105 -6.51365,13.47648 -4.49215,4.94138 -12.80263,4.94138 z"
         id="path14" />
    </clipPath>
    <clipPath
       clipPathUnits="userSpaceOnUse"
       id="clipPath15">
      <path
         style="font-size:224.608px;line-height:393.415px;font-family:'Cherry Bomb One';-inkscape-font-specification:'Cherry Bomb One';letter-spacing:0px;fill:#d55c44;fill-opacity:1;stroke:none;stroke-width:2.11667;stroke-linecap:square;paint-order:stroke fill markers"
         d="m 511.63431,224.36663 q -8.98433,0 -13.47647,-5.16598 -4.26755,-5.16599 -5.83981,-15.72256 -1.34765,-10.78119 -1.57226,-27.62679 0,-16.8456 1.34763,-27.62678 1.57226,-10.78119 6.06444,-15.72256 4.49214,-5.16599 13.47647,-5.16599 8.98432,0 13.25187,5.16599 4.49217,4.94137 6.06443,15.72256 1.57223,10.78118 1.57223,27.62678 0.22461,16.8456 -1.34762,27.62679 -1.57226,10.55657 -6.06444,15.72256 -4.49215,5.16598 -13.47647,5.16598 z"
         id="path16" />
    </clipPath>
    <clipPath
       clipPathUnits="userSpaceOnUse"
       id="clipPath17">
      <path
         style="font-size:224.608px;line-height:393.415px;font-family:'Cherry Bomb One';-inkscape-font-specification:'Cherry Bomb One';letter-spacing:0px;fill:#d55c44;fill-opacity:1;stroke:none;stroke-width:2.11667;stroke-linecap:square;paint-order:stroke fill markers"
         d="m 681.32926,224.3022 q -8.98433,0 -13.47647,-5.16597 -4.26755,-5.16599 -5.83981,-15.72257 -1.34765,-10.78118 -1.57226,-27.62678 0,-16.8456 1.34763,-27.62678 1.57226,-10.78119 6.06444,-15.72257 4.49214,-5.16598 13.47647,-5.16598 8.98432,0 13.25187,5.16598 4.49217,4.94138 6.06443,15.72257 1.57223,10.78118 1.57223,27.62678 0.22461,16.8456 -1.34762,27.62678 -1.57226,10.55658 -6.06444,15.72257 -4.49215,5.16597 -13.47647,5.16597 z"
         id="path17" />
    </clipPath>
    <clipPath
       clipPathUnits="userSpaceOnUse"
       id="clipPath18">
      <path
         style="font-size:224.608px;line-height:393.415px;font-family:'Cherry Bomb One';-inkscape-font-specification:'Cherry Bomb One';letter-spacing:0px;fill:#d55c44;fill-opacity:1;stroke:none;stroke-width:2.11667;stroke-linecap:square;paint-order:stroke fill markers"
         d="m 573.177,224.36663 q -7.63667,0 -12.57805,-4.94138 -4.71678,-5.16598 -7.18746,-13.70108 -2.47068,-8.53511 -3.36913,-19.5409 -0.89842,-11.00579 -0.89842,-22.68541 0,-7.86128 0.22461,-15.94717 0.44921,-8.31049 2.24607,-15.27334 2.02147,-6.96285 6.51362,-11.2304 4.71678,-4.49216 13.25187,-4.49216 6.06443,0 11.00582,2.9199 4.94136,2.6953 6.28901,8.3105 5.16599,-4.71677 13.02727,-6.73824 8.08587,-2.24608 16.62099,-2.24608 7.18746,0 14.59952,3.59373 7.41207,3.36912 12.57803,9.43353 5.16599,6.06442 5.16599,13.70109 0,6.51363 -4.94136,12.35344 -4.71678,5.83981 -13.4765,5.83981 -3.81831,0 -6.28901,-0.89843 -2.47068,-1.12304 -4.71676,-2.02147 -2.2461,-0.89844 -5.39059,-0.89844 -8.31051,0 -15.27337,6.73824 -6.73822,6.51364 -6.73822,17.74404 0,5.8398 -0.44921,12.80265 -0.22463,6.73824 -2.02147,13.02727 -1.57226,6.28902 -5.83983,10.33196 -4.26754,3.81834 -12.35342,3.81834 z"
         id="path19" />
    </clipPath>
    <clipPath
       clipPathUnits="userSpaceOnUse"
       id="clipPath19">
      <path
         style="font-size:224.608px;line-height:393.415px;font-family:'Cherry Bomb One';-inkscape-font-specification:'Cherry Bomb One';letter-spacing:0px;fill:#d55c44;fill-opacity:1;stroke:none;stroke-width:2.11667;stroke-linecap:square;paint-order:stroke fill markers"
         d="m 573.177,224.36663 q -7.63667,0 -12.57805,-4.94138 -4.71678,-5.16598 -7.18746,-13.70108 -2.47068,-8.53511 -3.36913,-19.5409 -0.89842,-11.00579 -0.89842,-22.68541 0,-7.86128 0.22461,-15.94717 0.44921,-8.31049 2.24607,-15.27334 2.02147,-6.96285 6.51362,-11.2304 4.71678,-4.49216 13.25187,-4.49216 6.06443,0 11.00582,2.9199 4.94136,2.6953 6.28901,8.3105 5.16599,-4.71677 13.02727,-6.73824 8.08587,-2.24608 16.62099,-2.24608 7.18746,0 14.59952,3.59373 7.41207,3.36912 12.57803,9.43353 5.16599,6.06442 5.16599,13.70109 0,6.51363 -4.94136,12.35344 -4.71678,5.83981 -13.4765,5.83981 -3.81831,0 -6.28901,-0.89843 -2.47068,-1.12304 -4.71676,-2.02147 -2.2461,-0.89844 -5.39059,-0.89844 -8.31051,0 -15.27337,6.73824 -6.73822,6.51364 -6.73822,17.74404 0,5.8398 -0.44921,12.80265 -0.22463,6.73824 -2.02147,13.02727 -1.57226,6.28902 -5.83983,10.33196 -4.26754,3.81834 -12.35342,3.81834 z"
         id="path20" />
    </clipPath>
    <clipPath
       clipPathUnits="userSpaceOnUse"
       id="clipPath20">
      <path
         style="font-size:224.608px;line-height:393.415px;font-family:'Cherry Bomb One';-inkscape-font-specification:'Cherry Bomb One';letter-spacing:0px;fill:#d55c44;fill-opacity:1;stroke:none;stroke-width:2.11667;stroke-linecap:square;paint-order:stroke fill markers"
         d="m 573.177,224.36663 q -7.63667,0 -12.57805,-4.94138 -4.71678,-5.16598 -7.18746,-13.70108 -2.47068,-8.53511 -3.36913,-19.5409 -0.89842,-11.00579 -0.89842,-22.68541 0,-7.86128 0.22461,-15.94717 0.44921,-8.31049 2.24607,-15.27334 2.02147,-6.96285 6.51362,-11.2304 4.71678,-4.49216 13.25187,-4.49216 6.06443,0 11.00582,2.9199 4.94136,2.6953 6.28901,8.3105 5.16599,-4.71677 13.02727,-6.73824 8.08587,-2.24608 16.62099,-2.24608 7.18746,0 14.59952,3.59373 7.41207,3.36912 12.57803,9.43353 5.16599,6.06442 5.16599,13.70109 0,6.51363 -4.94136,12.35344 -4.71678,5.83981 -13.4765,5.83981 -3.81831,0 -6.28901,-0.89843 -2.47068,-1.12304 -4.71676,-2.02147 -2.2461,-0.89844 -5.39059,-0.89844 -8.31051,0 -15.27337,6.73824 -6.73822,6.51364 -6.73822,17.74404 0,5.8398 -0.44921,12.80265 -0.22463,6.73824 -2.02147,13.02727 -1.57226,6.28902 -5.83983,10.33196 -4.26754,3.81834 -12.35342,3.81834 z"
         id="path21" />
    </clipPath>
    <clipPath
       clipPathUnits="userSpaceOnUse"
       id="clipPath21">
      <path
         style="font-size:224.608px;line-height:393.415px;font-family:'Cherry Bomb One';-inkscape-font-specification:'Cherry Bomb One';letter-spacing:0px;fill:#d55c44;fill-opacity:1;stroke:none;stroke-width:2.11667;stroke-linecap:square;paint-order:stroke fill markers"
         d="m 573.177,224.36663 q -7.63667,0 -12.57805,-4.94138 -4.71678,-5.16598 -7.18746,-13.70108 -2.47068,-8.53511 -3.36913,-19.5409 -0.89842,-11.00579 -0.89842,-22.68541 0,-7.86128 0.22461,-15.94717 0.44921,-8.31049 2.24607,-15.27334 2.02147,-6.96285 6.51362,-11.2304 4.71678,-4.49216 13.25187,-4.49216 6.06443,0 11.00582,2.9199 4.94136,2.6953 6.28901,8.3105 5.16599,-4.71677 13.02727,-6.73824 8.08587,-2.24608 16.62099,-2.24608 7.18746,0 14.59952,3.59373 7.41207,3.36912 12.57803,9.43353 5.16599,6.06442 5.16599,13.70109 0,6.51363 -4.94136,12.35344 -4.71678,5.83981 -13.4765,5.83981 -3.81831,0 -6.28901,-0.89843 -2.47068,-1.12304 -4.71676,-2.02147 -2.2461,-0.89844 -5.39059,-0.89844 -8.31051,0 -15.27337,6.73824 -6.73822,6.51364 -6.73822,17.74404 0,5.8398 -0.44921,12.80265 -0.22463,6.73824 -2.02147,13.02727 -1.57226,6.28902 -5.83983,10.33196 -4.26754,3.81834 -12.35342,3.81834 z"
         id="path22" />
    </clipPath>
    <clipPath
       clipPathUnits="userSpaceOnUse"
       id="clipPath23">
      <path
         style="font-size:224.608px;line-height:393.415px;font-family:'Cherry Bomb One';-inkscape-font-specification:'Cherry Bomb One';letter-spacing:0px;fill:#d55c44;fill-opacity:1;stroke:none;stroke-width:2.11667;stroke-linecap:square;paint-order:stroke fill markers"
         d="m 681.43807,224.36663 q -8.98432,0 -13.47647,-5.16598 -4.26757,-5.16599 -5.83983,-15.72256 -1.34763,-10.78119 -1.57226,-27.62679 0,-16.8456 1.34765,-27.62678 1.57226,-10.78119 6.06444,-15.72256 4.49215,-5.16599 13.47647,-5.16599 8.98432,0 13.25187,5.16599 4.49215,4.94137 6.06441,15.72256 1.57226,10.78118 1.57226,27.62678 0.2246,16.8456 -1.34766,27.62679 -1.57223,10.55657 -6.06441,15.72256 -4.49215,5.16598 -13.47647,5.16598 z"
         id="path25" />
    </clipPath>
    <clipPath
       clipPathUnits="userSpaceOnUse"
       id="clipPath25">
      <path
         style="font-size:224.608px;line-height:393.415px;font-family:'Cherry Bomb One';-inkscape-font-specification:'Cherry Bomb One';letter-spacing:0px;fill:#d55c44;fill-opacity:1;stroke:none;stroke-width:2.11667;stroke-linecap:square;paint-order:stroke fill markers"
         d="m 681.43807,224.36663 q -8.98432,0 -13.47647,-5.16598 -4.26757,-5.16599 -5.83983,-15.72256 -1.34763,-10.78119 -1.57226,-27.62679 0,-16.8456 1.34765,-27.62678 1.57226,-10.78119 6.06444,-15.72256 4.49215,-5.16599 13.47647,-5.16599 8.98432,0 13.25187,5.16599 4.49215,4.94137 6.06441,15.72256 1.57226,10.78118 1.57226,27.62678 0.2246,16.8456 -1.34766,27.62679 -1.57223,10.55657 -6.06441,15.72256 -4.49215,5.16598 -13.47647,5.16598 z"
         id="path26" />
    </clipPath>
    <clipPath
       clipPathUnits="userSpaceOnUse"
       id="clipPath34">
      <path
         id="path35"
         style="fill:#d55c44;fill-opacity:1;stroke-width:2.11667;stroke-linecap:square;paint-order:stroke fill markers"
         d="m 169.33334,220.13334 c 0,8.46667 -4.23334,16.93333 -33.86667,16.93333 -29.63333,0 -33.86667,-8.46666 -33.86667,-16.93333 0,-12.7 8.46667,-21.16667 33.86667,-21.16667 25.4,0 33.86667,8.46667 33.86667,21.16667 z" />
    </clipPath>
    <clipPath
       clipPathUnits="userSpaceOnUse"
       id="clipPath35">
      <path
         id="path36"
         style="fill:#d55c44;fill-opacity:1;stroke-width:2.11667;stroke-linecap:square;paint-order:stroke fill markers"
         d="m 715.91343,141.3418 c 0,8.46667 -4.23334,16.93332 -33.86667,16.93332 -29.63333,0 -33.86667,-8.46665 -33.86667,-16.93332 0,-12.7 8.46667,-21.16668 33.86667,-21.16668 25.4,0 33.86667,8.46668 33.86667,21.16668 z" />
    </clipPath>
    <filter
       style="color-interpolation-filters:sRGB"
       id="filter61"
       x="-0.43233621"
       y="-0.31282973"
       width="1.8646724"
       height="1.6256595">
      <feGaussianBlur
         stdDeviation="18.492881"
         id="feGaussianBlur61" />
    </filter>
  </defs>
  <g
     id="layer1"
     transform="translate(151.57,-212.41655)">
    <g
       id="g69"
       transform="matrix(1.1313091,0,0,1.1313091,-521.46052,171.60178)"
       style="fill:#d55c44;fill-opacity:1">
      <path
         style="font-size:224.608px;line-height:393.415px;font-family:'Cherry Bomb One';-inkscape-font-specification:'Cherry Bomb One';letter-spacing:0px;fill:#d55c44;fill-opacity:1;stroke:none;stroke-width:0.673514;stroke-linecap:square;paint-order:stroke fill markers"
         d="m 427.944,81.955473 q -2.85876,0 -4.28814,-1.64378 -1.35793,-1.6438 -1.85821,-5.00284 -0.42881,-3.43053 -0.50028,-8.79071 0,-5.36019 0.42881,-8.79071 0.50029,-3.43053 1.92968,-5.00285 1.42938,-1.64379 4.28814,-1.64379 2.85877,0 4.21669,1.64379 1.42938,1.57232 1.92966,5.00285 0.50029,3.43052 0.50029,8.79071 0.0715,5.36018 -0.42882,8.79071 -0.50028,3.35904 -1.92966,5.00284 -1.42939,1.64378 -4.28816,1.64378 z"
         id="path63" />
      <path
         style="font-size:224.608px;line-height:393.415px;font-family:'Cherry Bomb One';-inkscape-font-specification:'Cherry Bomb One';letter-spacing:0px;fill:#d55c44;fill-opacity:1;stroke:none;stroke-width:0.673514;stroke-linecap:square;paint-order:stroke fill markers"
         d="m 393.49586,81.955473 q -2.42995,0 -4.00228,-1.57232 -1.50085,-1.64379 -2.28701,-4.35961 -0.78616,-2.71584 -1.07204,-6.21782 -0.28588,-3.50199 -0.28588,-7.21839 0,-2.50142 0.0715,-5.07431 0.14294,-2.64436 0.71469,-4.8599 0.64323,-2.21555 2.07261,-3.57346 1.50085,-1.42938 4.21668,-1.42938 1.92967,0 3.50199,0.92909 1.57232,0.85763 2.00114,2.64436 1.64378,-1.50085 4.1452,-2.14407 2.5729,-0.71469 5.28873,-0.71469 2.28701,0 4.6455,1.1435 2.35848,1.07204 4.00227,3.00171 1.64379,1.92966 1.64379,4.35962 0,2.0726 -1.57233,3.9308 -1.50085,1.8582 -4.28814,1.8582 -1.21498,0 -2.00114,-0.28588 -0.78616,-0.35734 -1.50086,-0.64322 -0.71469,-0.28588 -1.71525,-0.28588 -2.64436,0 -4.85991,2.14408 -2.14408,2.07261 -2.14408,5.64607 0,1.85819 -0.14293,4.07373 -0.0715,2.14408 -0.64322,4.14522 -0.50029,2.00114 -1.8582,3.28758 -1.35792,1.21497 -3.9308,1.21497 z"
         id="path64" />
      <path
         style="font-size:224.608px;line-height:393.415px;font-family:'Cherry Bomb One';-inkscape-font-specification:'Cherry Bomb One';letter-spacing:0px;fill:#d55c44;fill-opacity:1;stroke:none;stroke-width:0.673514;stroke-linecap:square;paint-order:stroke fill markers"
         d="m 373.91327,81.955473 q -2.85877,0 -4.28815,-1.64378 -1.35791,-1.6438 -1.8582,-5.00284 -0.42881,-3.43053 -0.50028,-8.79071 0,-5.36019 0.42881,-8.79071 0.50029,-3.43053 1.92967,-5.00285 1.42938,-1.64379 4.28815,-1.64379 2.85877,0 4.21668,1.64379 1.42938,1.57232 1.92967,5.00285 0.50029,3.43052 0.50029,8.79071 0.0715,5.36018 -0.42882,8.79071 -0.50029,3.35904 -1.92967,5.00284 -1.42938,1.64378 -4.28815,1.64378 z"
         id="path65" />
      <path
         style="font-size:224.608px;line-height:393.415px;font-family:'Cherry Bomb One';-inkscape-font-specification:'Cherry Bomb One';letter-spacing:0px;fill:#d55c44;fill-opacity:1;stroke:none;stroke-width:0.673514;stroke-linecap:square;paint-order:stroke fill markers"
         d="m 355.18829,81.955473 q -2.85878,0 -4.07375,-1.57232 -1.14351,-1.64379 -1.35791,-4.07374 -0.21441,-2.50142 -0.21441,-5.00284 0,-3.78787 -1.07204,-6.07488 -1.07204,-2.35848 -3.78786,-2.35848 -2.42996,0 -3.57347,2.35848 -1.1435,2.28701 -1.1435,6.07488 0,2.50142 -0.21441,4.93137 -0.14294,2.42995 -1.28644,4.07375 -1.14351,1.57232 -4.14522,1.57232 -2.21554,0 -3.71639,-1.64379 -1.42939,-1.6438 -2.21554,-4.28815 -0.78617,-2.64437 -1.14352,-5.71754 -0.28587,-3.07317 -0.28587,-5.93194 0,-2.85877 0.28587,-5.86047 0.28588,-3.0017 1.00058,-5.5746 0.78616,-2.57289 2.21554,-4.14521 1.42938,-1.57232 3.71639,-1.57232 4.07375,0 5.07432,3.7164 0.85763,-0.9291 2.71583,-1.71526 1.92967,-0.85763 4.35962,-0.85763 5.50312,0 9.00511,2.78729 3.50199,2.78731 5.07431,7.71868 1.64379,4.8599 1.57233,11.29212 0,3.28759 -0.64323,6.00341 -0.57175,2.64436 -2.07261,4.28815 -1.42938,1.57232 -4.07373,1.57232 z"
         id="path66" />
      <path
         style="display:inline;mix-blend-mode:normal;fill:#d55c44;fill-opacity:1;stroke:none;stroke-width:4.02897;stroke-linecap:square;paint-order:stroke fill markers"
         d="m 101.6,42.333334 c 16.93334,0 84.66667,50.800005 84.66667,93.133336 0,28.57209 -13.39181,41.07402 -25.11117,46.54433 -8.87807,4.14406 -11.33775,-1.382 -6.3999,-9.88879 3.31767,-5.71559 6.11107,-12.63293 6.11107,-19.72221 0,-12.7 -4.23333,-21.16666 -12.7,-29.63333 -8.46667,-8.46667 -19.34216,-12.70001 -25.4,-12.7 -8.46666,1e-5 -12.7,24.8856 -12.7,38.1 0,10.52973 3.14292,20.01182 6.30176,26.88277 2.97912,6.48004 0.48516,10.93086 -6.19604,8.47352 -7.29956,-2.68477 -16.052373,-7.98293 -21.272388,-18.42296 -8.466666,-16.93333 -4.233333,-41.3022 -4.233333,-63.5 0,-33.866665 -7e-6,-59.266666 16.933331,-59.266666 z"
         id="path61"
         transform="matrix(0.16716789,0,0,0.16716789,351.42847,16.594243)" />
      <path
         style="display:inline;mix-blend-mode:normal;fill:#d55c44;fill-opacity:1;stroke:none;stroke-width:4.02897;stroke-linecap:square;paint-order:stroke fill markers"
         d="m 101.6,42.333334 c 16.93334,0 84.66667,50.800005 84.66667,93.133336 0,28.57209 -13.39181,41.07402 -25.11117,46.54433 -8.87807,4.14406 -11.33775,-1.382 -6.3999,-9.88879 3.31767,-5.71559 6.11107,-12.63293 6.11107,-19.72221 0,-12.7 -4.23333,-21.16666 -12.7,-29.63333 -8.46667,-8.46667 -19.34216,-12.70001 -25.4,-12.7 -8.46666,1e-5 -12.7,24.8856 -12.7,38.1 0,10.52973 3.14292,20.01182 6.30176,26.88277 2.97912,6.48004 0.48516,10.93086 -6.19604,8.47352 -7.29956,-2.68477 -16.052373,-7.98293 -21.272388,-18.42296 -8.466666,-16.93333 -4.233333,-41.3022 -4.233333,-63.5 0,-33.866665 -7e-6,-59.266666 16.933331,-59.266666 z"
         id="path62"
         transform="matrix(0.16716789,0,0,0.16716789,405.30952,16.594243)" />
    </g>
  </g>
</svg>
