<?xml version="1.0" encoding="UTF-8" standalone="no"?>
<svg
   id="niri-svg"
   width="75.5"
   height="75.5"
   viewBox="0 0 37.75 37.815982"
   version="1.1"
   sodipodi:docname="processed.svg"
   inkscape:version="1.4.2 (ebf0e940d0, 2025-05-08)"
   xmlns:inkscape="http://www.inkscape.org/namespaces/inkscape"
   xmlns:sodipodi="http://sodipodi.sourceforge.net/DTD/sodipodi-0.dtd"
   xmlns:xlink="http://www.w3.org/1999/xlink"
   xmlns="http://www.w3.org/2000/svg"
   xmlns:svg="http://www.w3.org/2000/svg">
  <sodipodi:namedview
     id="namedview9"
     pagecolor="#505050"
     bordercolor="#eeeeee"
     borderopacity="1"
     inkscape:showpageshadow="0"
     inkscape:pageopacity="0"
     inkscape:pagecheckerboard="0"
     inkscape:deskcolor="#505050"
     inkscape:zoom="12.53936"
     inkscape:cx="63.519987"
     inkscape:cy="44.69925"
     inkscape:window-width="2464"
     inkscape:window-height="1412"
     inkscape:window-x="0"
     inkscape:window-y="0"
     inkscape:window-maximized="0"
     inkscape:current-layer="g60" />
  <style
     id="svg-style">
:root {
--color-main: #1e97b5;
--color-dark: #0c3c48;
--color-light: #a5d5e1;
--color-highlight: #40a7c0;
--color-contour: #1a809a;
--color-shadow: #156a7f;
--color-flame-small: #78c1d3;
--color-flame-large: #4bacc4;
}
</style>
  <defs
     id="defs1">
    <linearGradient
       id="linearGradient28">
      <stop
         style="stop-color:#40a7c0;stop-opacity:1;"
         offset="0"
         id="stop27" />
      <stop
         style="stop-color:#1e97b5;stop-opacity:1;"
         offset="1"
         id="stop28" />
    </linearGradient>
    <linearGradient
       id="linearGradient26">
      <stop
         style="stop-color:#1a809a;stop-opacity:1;"
         offset="0"
         id="stop25" />
      <stop
         style="stop-color:#1e97b5;stop-opacity:1;"
         offset="1"
         id="stop26" />
    </linearGradient>
    <clipPath
       clipPathUnits="userSpaceOnUse"
       id="clipPath161">
      <g
         id="use161">
        <path
           id="path62"
           style="fill:#1e97b5;fill-opacity:1;stroke-width:2.31594;stroke-dasharray:none"
           d="m -79.263172,177.1396 c -0.9189,0 -1.333001,0.2642 -1.792451,0.79257 -0.459449,0.50539 -0.769623,1.30939 -0.930433,2.41207 -0.137835,1.10267 -0.206697,2.51548 -0.206697,4.23841 0.02297,1.72292 0.103383,3.13574 0.241219,4.23841 0.160805,1.0797 0.459436,1.88377 0.895911,2.41214 0.45945,0.52836 0.873551,0.79256 1.792451,0.79256 0.91889,0 1.057952,-0.2642 1.517397,-0.79256 0.459445,-0.52837 0.769628,-1.33244 0.930429,-2.41214 0.160809,-1.10267 0.229676,-2.51549 0.206706,-4.23841 0,-1.72293 -0.08042,-3.13574 -0.241223,-4.23841 -0.16081,-1.10268 -0.470919,-1.90668 -0.930359,-2.41207 -0.436476,-0.52837 -0.56406,-0.79257 -1.48295,-0.79257 z" />
      </g>
    </clipPath>
    <linearGradient
       xlink:href="#linearGradient26"
       id="linearGradient61"
       gradientUnits="userSpaceOnUse"
       x1="137.41386"
       y1="201.52441"
       x2="137.46588"
       y2="196.20343" />
    <linearGradient
       xlink:href="#linearGradient28"
       id="linearGradient62"
       gradientUnits="userSpaceOnUse"
       gradientTransform="matrix(0.46318782,0,0,0.52451075,-144.01168,87.591835)"
       x1="141.64835"
       y1="164.65019"
       x2="141.27319"
       y2="178.16483" />
  </defs>
  <g
     id="layer1"
     transform="translate(0,-75.112854)">
    <g
       id="g60"
       transform="matrix(0.96799634,0,0,0.96799634,-35.768817,-69.530467)">
      <path
         style="fill:#1d1d1d;fill-opacity:1;stroke:#156a7f;stroke-width:0;stroke-linecap:round;stroke-linejoin:round"
         id="path28"
         width="37.74538"
         height="37.74538"
         x="127.99472"
         y="211.97493"
         d="m 43.789315,149.4473 h 25.326771 a 6.8332732,6.8332732 0 0 1 6.83327,6.83327 v 25.32677 a 6.8332732,6.8332732 0 0 1 -6.83327,6.83327 H 43.789315 a 6.8332732,6.8332732 0 0 1 -6.833269,-6.83327 v -25.32677 a 6.8332732,6.8332732 0 0 1 6.833269,-6.83327 z" />
      <g
         id="g59"
         transform="translate(7.5784526,-1.8064928)">
        <path
           id="path32"
           style="fill:#d8d8d8;fill-opacity:1;stroke-width:0.0910496"
           d="m 45.187099,158.61815 c -0.302148,10e-4 -0.605031,0.021 -0.908078,0.0603 -1.454748,0.14375 -2.868651,1.16704 -3.15505,2.6543 -0.461825,1.94314 0.1676,3.9116 0.483667,5.8259 0.250504,1.20426 0.308096,2.44168 0.574956,3.64031 0.538685,2.05645 1.769246,3.94874 3.880552,4.73632 -0.458832,0.16661 -0.926789,0.39985 -1.447266,0.7271 -1.105347,0.94962 -1.267325,2.48784 -1.067699,3.7946 0.136191,0.90273 0.402527,1.88854 1.290848,2.41674 1.505817,0.95719 2.502837,0.97964 4.265457,1.06449 1.858675,0.0301 2.8475,-0.0754 4.594843,-0.69827 1.192373,-0.49922 2.028379,-1.65712 1.942678,-2.87371 0.125794,-1.34459 -0.05967,-2.93207 -1.339962,-3.793 -0.781721,-0.52717 -1.312703,-0.74603 -1.990191,-0.87498 0.227948,-0.11831 0.456961,-0.25058 0.689199,-0.39719 1.874862,-1.18358 3.446175,-4.0744 3.006107,-6.63254 -0.318679,-3.13127 -2.293998,-5.92504 -4.899137,-7.61643 -1.733901,-1.16817 -3.805889,-2.0442 -5.920924,-2.03397 z" />
        <path
           id="path33"
           style="fill:#156a7f;fill-opacity:1;stroke-width:0.0910496"
           d="m 44.445113,159.15754 c -1.225026,0.0614 -2.284605,1.12414 -2.317436,2.35641 -0.227979,2.14428 0.588254,4.20893 0.820068,6.31721 0.143482,1.27733 0.260044,2.63764 0.992627,3.74979 1.220803,2.07483 3.724133,3.34465 6.120535,2.94526 2.498868,-0.35493 4.726727,-2.37448 5.099641,-4.90814 0.379401,-2.54142 -0.876266,-5.05158 -2.622118,-6.8284 -1.83254,-1.878 -4.257534,-3.24655 -6.869656,-3.6233 -0.405847,-0.0464 -0.817242,-0.0549 -1.223665,-0.009 z" />
        <path
           id="path34"
           style="fill:#1e97b5;fill-opacity:1;stroke-width:3.11206;stroke-dasharray:none"
           d="m 45.261949,159.0635 c -0.317639,0.0197 -0.604298,0.0771 -0.851153,0.17309 -2.356247,0.91628 -0.404401,5.42542 -0.173257,8.70099 0.23503,3.33065 3.016799,5.45028 5.801769,5.25375 3.112092,-0.2196 5.472202,-2.91175 5.006558,-6.01645 -0.755424,-5.03682 -6.713562,-8.30492 -9.78392,-8.11142 z" />
        <path
           d="m 45.709212,162.01196 c -1.895364,0.73706 -0.325301,4.36419 -0.139371,6.99903 0.189059,2.67918 2.426704,4.38418 4.666922,4.2261 2.50335,-0.17665 4.401819,-2.34219 4.027254,-4.83961 -0.607662,-4.05159 -5.400369,-6.68051 -7.870145,-6.52478 z"
           style="fill:#4bacc4;fill-opacity:1;stroke-width:2.50333;stroke-dasharray:none"
           id="path35" />
        <path
           d="m 47.046334,164.74333 c -1.435428,0.55819 -0.246363,3.30515 -0.105552,5.30061 0.143181,2.02903 1.837829,3.32029 3.534427,3.20057 1.895873,-0.13378 3.333648,-1.77382 3.04998,-3.6652 -0.460206,-3.06842 -4.089889,-5.0594 -5.960342,-4.94144 z"
           style="fill:#78c1d3;fill-opacity:1;stroke-width:1.89587;stroke-dasharray:none"
           id="path36" />
        <path
           id="path50"
           style="fill:#156a7f;fill-opacity:1;stroke-width:1.96462;stroke-dasharray:none"
           d="m 49.411271,175.52644 c -2.770517,-4.6e-4 -3.917228,0.73451 -4.141486,1.47728 -0.771724,1.27726 -0.532061,2.58623 -0.225766,3.87269 0.221808,0.7128 0.516084,1.59122 3.162397,1.86262 2.593644,0.29291 4.686269,0.0305 5.800868,-0.74607 1.377001,-0.90205 1.085543,-1.91824 1.189752,-2.87904 -0.04996,-0.90666 -0.05421,-1.84632 -1.15415,-2.70801 -0.874311,-0.58541 -2.163911,-0.96333 -4.399568,-0.88134 l -0.159109,10e-4 z" />
        <g
           id="g56"
           transform="matrix(1.6908342,0,0,0.45209972,184.37615,95.325951)">
          <path
             id="path51"
             style="fill:#1e97b5;fill-opacity:1;stroke-width:2.31594;stroke-dasharray:none"
             d="m -79.263172,177.1396 c -0.9189,0 -1.333001,0.2642 -1.792451,0.79257 -0.459449,0.50539 -0.769623,1.30939 -0.930433,2.41207 -0.137835,1.10267 -0.206697,2.51548 -0.206697,4.23841 0.02297,1.72292 0.103383,3.13574 0.241219,4.23841 0.160805,1.0797 0.459436,1.88377 0.895911,2.41214 0.45945,0.52836 0.873551,0.79256 1.792451,0.79256 0.91889,0 1.057952,-0.2642 1.517397,-0.79256 0.459445,-0.52837 0.769628,-1.33244 0.930429,-2.41214 0.160809,-1.10267 0.229676,-2.51549 0.206706,-4.23841 0,-1.72293 -0.08042,-3.13574 -0.241223,-4.23841 -0.16081,-1.10268 -0.470919,-1.90668 -0.930359,-2.41207 -0.436476,-0.52837 -0.56406,-0.79257 -1.48295,-0.79257 z" />
          <g
             id="g55"
             clip-path="url(#clipPath161)">
            <g
               id="g54">
              <path
                 id="path52"
                 style="fill:#1e97b5;fill-opacity:1;stroke-width:2.31594;stroke-dasharray:none"
                 d="m -79.263172,177.1396 c -0.9189,0 -1.333001,0.2642 -1.792451,0.79257 -0.459449,0.50539 -0.769623,1.30939 -0.930433,2.41207 -0.137835,1.10267 -0.206697,2.51548 -0.206697,4.23841 0.02297,1.72292 0.103383,3.13574 0.241219,4.23841 0.160805,1.0797 0.459436,1.88377 0.895911,2.41214 0.45945,0.52836 0.873551,0.79256 1.792451,0.79256 0.91889,0 1.057952,-0.2642 1.517397,-0.79256 0.459445,-0.52837 0.769628,-1.33244 0.930429,-2.41214 0.160809,-1.10267 0.229676,-2.51549 0.206706,-4.23841 0,-1.72293 -0.08042,-3.13574 -0.241223,-4.23841 -0.16081,-1.10268 -0.470919,-1.90668 -0.930359,-2.41207 -0.436476,-0.52837 -0.56406,-0.79257 -1.48295,-0.79257 z" />
            </g>
            <path
               style="fill:url(#linearGradient61);fill-opacity:1;stroke:none;stroke-width:14;stroke-linecap:round;stroke-linejoin:round;stroke-dasharray:none;stroke-opacity:1"
               d="m 109.89581,198.91118 23.99465,-4.36321 c 3.52911,5.3132 6.41267,6.59247 12.60538,-0.56796 l 3.99311,18.97956 c 0,0 -45.50037,-9.58278 -40.59314,-14.04839 z"
               id="path54"
               clip-path="none"
               transform="matrix(0.46318782,0,0,0.46318782,-144.01168,98.000188)" />
            <path
               id="path55"
               clip-path="none"
               style="fill:url(#linearGradient62);fill-opacity:1;stroke:none;stroke-width:6.90055;stroke-linecap:round;stroke-linejoin:round;stroke-dasharray:none;stroke-opacity:1"
               d="m -83.016292,178.21282 0.172575,3.35345 c 2.180521,-2.34741 3.50037,-3.81102 6.40541,-0.81532 l 0.321698,-3.78685 -7.018166,-0.34695 0.03326,0.44832 z" />
          </g>
        </g>
        <g
           id="g58"
           transform="matrix(0.36433936,0,0,0.33651361,99.113643,112.50327)">
          <g
             id="g57"
             transform="matrix(2.3154095,0,0,0.67029271,123.43309,60.200682)" />
        </g>
      </g>
    </g>
  </g>
</svg>
