<?xml version="1.0" encoding="UTF-8" standalone="no"?>
<svg
   id="niri-svg"
   width="63.875"
   height="63.875"
   viewBox="0 0 31.9375 31.993322"
   version="1.1"
   sodipodi:docname="processed(1).svg"
   inkscape:version="1.4.2 (ebf0e940d0, 2025-05-08)"
   xmlns:inkscape="http://www.inkscape.org/namespaces/inkscape"
   xmlns:sodipodi="http://sodipodi.sourceforge.net/DTD/sodipodi-0.dtd"
   xmlns:xlink="http://www.w3.org/1999/xlink"
   xmlns="http://www.w3.org/2000/svg"
   xmlns:svg="http://www.w3.org/2000/svg">
  <sodipodi:namedview
     id="namedview9"
     pagecolor="#505050"
     bordercolor="#ffffff"
     borderopacity="1"
     inkscape:showpageshadow="0"
     inkscape:pageopacity="0"
     inkscape:pagecheckerboard="1"
     inkscape:deskcolor="#505050"
     inkscape:zoom="16"
     inkscape:cx="27.21875"
     inkscape:cy="30.71875"
     inkscape:window-width="2464"
     inkscape:window-height="1412"
     inkscape:window-x="0"
     inkscape:window-y="0"
     inkscape:window-maximized="0"
     inkscape:current-layer="g23" />
  <style
     id="svg-style">
:root {
--color-main: #1e97b5;
--color-dark: #1d1d1d;
--color-light: #d8d8d8;
--color-medium: #262626;
--color-highlight: #40a7c0;
--color-contour: #1a809a;
--color-shadow: #156a7f;
--color-flame-small: #78c1d3;
--color-flame-large: #4bacc4;
}
</style>
  <defs
     id="defs1">
    <inkscape:path-effect
       effect="fillet_chamfer"
       id="path-effect62"
       is_visible="true"
       lpeversion="1"
       nodesatellites_param="F,0,0,1,0,4.5,0,1 @ F,0,0,1,0,4.5,0,1 @ F,0,0,1,0,4.5,0,1 @ F,0,0,1,0,4.5,0,1"
       radius="10"
       unit="px"
       method="auto"
       mode="F"
       chamfer_steps="1"
       flexible="false"
       use_knot_distance="true"
       apply_no_radius="true"
       apply_with_radius="true"
       only_selected="false"
       hide_knots="false" />
    <inkscape:path-effect
       effect="fillet_chamfer"
       id="path-effect431"
       is_visible="true"
       lpeversion="1"
       nodesatellites_param="F,0,0,1,0,4.5,0,1 @ F,0,0,1,0,4.5,0,1 @ F,0,0,1,0,4.5,0,1 @ F,0,0,1,0,4.5,0,1"
       radius="10"
       unit="px"
       method="auto"
       mode="F"
       chamfer_steps="1"
       flexible="false"
       use_knot_distance="true"
       apply_no_radius="true"
       apply_with_radius="true"
       only_selected="false"
       hide_knots="false" />
    <inkscape:path-effect
       effect="fillet_chamfer"
       id="path-effect403"
       is_visible="true"
       lpeversion="1"
       nodesatellites_param="F,0,0,1,0,4.5,0,1 @ F,0,0,1,0,4.5,0,1 @ F,0,0,1,0,4.5,0,1 @ F,0,0,1,0,4.5,0,1"
       radius="10"
       unit="px"
       method="auto"
       mode="F"
       chamfer_steps="1"
       flexible="false"
       use_knot_distance="true"
       apply_no_radius="true"
       apply_with_radius="true"
       only_selected="false"
       hide_knots="false" />
    <inkscape:path-effect
       effect="fillet_chamfer"
       id="path-effect366"
       is_visible="true"
       lpeversion="1"
       nodesatellites_param="F,0,0,1,0,4.5,0,1 @ F,0,0,1,0,4.5,0,1 @ F,0,0,1,0,4.5,0,1 @ F,0,0,1,0,4.5,0,1"
       radius="10"
       unit="px"
       method="auto"
       mode="F"
       chamfer_steps="1"
       flexible="false"
       use_knot_distance="true"
       apply_no_radius="true"
       apply_with_radius="true"
       only_selected="false"
       hide_knots="false" />
    <linearGradient
       id="linearGradient28">
      <stop
         style="stop-color:#40a7c0;stop-opacity:1;"
         offset="0"
         id="stop27" />
      <stop
         style="stop-color:#1e97b5;stop-opacity:1;"
         offset="1"
         id="stop28" />
    </linearGradient>
    <linearGradient
       id="linearGradient26">
      <stop
         style="stop-color:#1a809a;stop-opacity:1;"
         offset="0"
         id="stop25" />
      <stop
         style="stop-color:#1e97b5;stop-opacity:1;"
         offset="1"
         id="stop26" />
    </linearGradient>
    <linearGradient
       id="linearGradient7">
      <stop
         style="stop-color:#1a809a;stop-opacity:1;"
         offset="0"
         id="stop6" />
      <stop
         style="stop-color:#1e97b5;stop-opacity:1;"
         offset="1"
         id="stop7" />
    </linearGradient>
    <linearGradient
       id="linearGradient5">
      <stop
         style="stop-color:#40a7c0;stop-opacity:1;"
         offset="0"
         id="stop4" />
      <stop
         style="stop-color:#1e97b5;stop-opacity:1;"
         offset="1"
         id="stop5" />
    </linearGradient>
    <linearGradient
       xlink:href="#linearGradient7"
       id="linearGradient146"
       gradientUnits="userSpaceOnUse"
       x1="101.37057"
       y1="202.59308"
       x2="101.34383"
       y2="199.69127" />
    <linearGradient
       id="linearGradient70">
      <stop
         style="stop-color:#1a809a;stop-opacity:1;"
         offset="0"
         id="stop70" />
      <stop
         style="stop-color:#1a809a;stop-opacity:0;"
         offset="1"
         id="stop71" />
    </linearGradient>
    <clipPath
       clipPathUnits="userSpaceOnUse"
       id="clipPath69">
      <path
         id="path70"
         style="fill:#1e97b5;fill-opacity:1;stroke-width:4.99999;stroke-dasharray:none"
         d="m 133.7982,143.67725 c -0.5113,-0.004 -0.97721,0.0553 -1.38368,0.1812 -3.8799,1.20201 -1.2617,8.6494 -1.2617,13.92518 0,5.36451 4.21853,9.07615 8.70413,9.07615 5.01247,0 9.09941,-4.04768 8.70426,-9.07615 -0.64107,-8.15777 -9.82036,-14.06943 -14.76301,-14.10638 z m -56.523497,0.0554 c -0.511302,-0.004 -0.977204,0.0553 -1.383697,0.18121 -3.879881,1.20199 -1.261692,8.6494 -1.261692,13.92518 0,5.3645 4.218528,9.07615 8.70412,9.07615 5.012489,0 9.09942,-4.04768 8.704273,-9.07615 -0.641064,-8.15778 -9.820362,-14.06944 -14.763004,-14.10639 z M 42.18327,166.76647 c -1.587082,0 -2.876545,0.54546 -3.868463,1.63658 -0.991923,1.09112 -1.760707,2.52941 -2.306267,4.31487 -0.495961,1.78548 -0.843182,3.7198 -1.041566,5.80284 -0.198385,2.08305 -0.297503,4.11651 -0.297503,6.10036 0,1.98385 0.09912,4.04208 0.297503,6.17472 0.247983,2.13264 0.64476,4.11638 1.19032,5.95144 0.545561,1.83507 1.314336,3.32306 2.306265,4.46378 1.041521,1.14071 2.330982,1.71096 3.868465,1.71096 2.083043,0 3.521485,-0.54545 4.31502,-1.63658 0.793539,-1.14071 1.239878,-2.55422 1.339067,-4.2405 0.148794,-1.68627 0.223131,-3.39729 0.223131,-5.13316 0,-2.6286 0.396777,-4.73654 1.190316,-6.32363 0.793543,-1.63667 2.033442,-2.45501 3.719716,-2.45501 1.884659,0 3.198897,0.81834 3.942834,2.45501 0.743945,1.58709 1.115944,3.69503 1.115944,6.32363 0,1.73587 0.07449,3.47167 0.223282,5.20754 0.148785,1.68627 0.6199,3.09978 1.413446,4.24049 0.843137,1.09111 2.256642,1.63673 4.240501,1.63673 1.835052,0 3.248565,-0.54562 4.240493,-1.63673 1.041514,-1.14071 1.76059,-2.62856 2.15736,-4.46361 0.446368,-1.88466 0.66953,-3.96783 0.66953,-6.24926 0.0496,-4.46365 -0.495863,-8.38175 -1.636575,-11.75429 -1.091115,-3.42214 -2.85184,-6.10033 -5.282062,-8.03459 -2.430219,-1.93425 -5.554736,-2.90141 -9.373648,-2.90141 -1.686274,0 -3.199053,0.29765 -4.538154,0.89281 -1.289505,0.54556 -2.231742,1.14073 -2.826896,1.78547 -0.694351,-2.579 -2.455071,-3.86846 -5.282059,-3.86846 z m 61.1524,0.52064 c -1.88466,0 -3.347877,0.49605 -4.389396,1.48797 -0.991923,0.94234 -1.710991,2.18223 -2.157359,3.71972 -0.39677,1.53748 -0.644724,3.22371 -0.743908,5.05878 -0.04959,1.78546 -0.07438,3.54619 -0.07438,5.28206 0,2.57901 0.09912,5.08358 0.2975,7.5138 0.198395,2.43021 0.570386,4.58773 1.115947,6.47237 0.545557,1.88466 1.339119,3.39729 2.380638,4.538 1.091118,1.09111 2.479848,1.63673 4.166118,1.63673 1.78547,0 3.14927,-0.42155 4.0916,-1.26469 0.94233,-0.89274 1.58706,-2.03351 1.93423,-3.42222 0.39677,-1.3887 0.61994,-2.82697 0.66953,-4.31486 0.0992,-1.53748 0.14891,-2.951 0.14891,-4.2405 0,-2.4798 0.74385,-4.43892 2.23173,-5.87722 1.53748,-1.48788 3.22389,-2.23173 5.05892,-2.23173 0.69436,0 1.28938,0.0991 1.78535,0.2975 0.49595,0.19839 1.01679,0.42156 1.56234,0.66954 0.54555,0.19838 1.23984,0.29766 2.083,0.29766 1.93424,0 3.42224,-0.64473 4.46375,-1.93424 1.09112,-1.2895 1.63658,-2.65344 1.63658,-4.09174 0,-1.68628 -0.57023,-3.19891 -1.71094,-4.538 -1.14072,-1.3391 -2.52945,-2.38061 -4.16613,-3.12456 -1.63666,-0.79353 -3.24857,-1.19031 -4.83565,-1.19031 -1.88464,0 -3.71972,0.24795 -5.50518,0.74391 -1.73588,0.44638 -3.17416,1.19021 -4.31488,2.23174 -0.29757,-1.23991 -0.99185,-2.15737 -2.08298,-2.75252 -1.09112,-0.64476 -2.30624,-0.96719 -3.64534,-0.96719 z m -19.789019,3.57095 c -1.983851,0 -3.471704,0.57039 -4.463632,1.71111 -0.991923,1.09111 -1.66143,2.82691 -2.008605,5.20754 -0.297577,2.38062 -0.4464,5.4308 -0.4464,9.15052 0.04959,3.71971 0.2232,6.76991 0.520774,9.15052 0.347178,2.33103 0.991902,4.06698 1.934231,5.20769 0.991928,1.14072 2.479781,1.7111 4.463632,1.7111 1.983851,0 3.471696,-0.57038 4.463616,-1.7111 0.991928,-1.14071 1.661589,-2.87666 2.008764,-5.20769 0.347179,-2.38061 0.495856,-5.43081 0.446257,-9.15052 0,-3.71972 -0.173458,-6.7699 -0.520634,-9.15052 -0.347178,-2.38063 -1.016833,-4.11643 -2.008764,-5.20754 -0.942329,-1.14072 -2.405388,-1.71111 -4.389239,-1.71111 z m 56.242229,0 c -1.98387,0 -3.4717,0.57039 -4.46364,1.71111 -0.99192,1.09111 -1.66157,2.82691 -2.00875,5.20754 -0.29758,2.38062 -0.44626,5.4308 -0.44626,9.15052 0.0496,3.71971 0.22321,6.76991 0.52079,9.15052 0.34717,2.33103 0.99189,4.06698 1.93422,5.20769 0.99194,1.14072 2.47977,1.7111 4.46364,1.7111 1.98383,0 3.47169,-0.57038 4.46361,-1.7111 0.99193,-1.14071 1.6616,-2.87666 2.00876,-5.20769 0.34717,-2.38061 0.49585,-5.43081 0.44627,-9.15052 0,-3.71972 -0.17363,-6.7699 -0.52079,-9.15052 -0.34718,-2.38063 -1.01669,-4.11643 -2.0086,-5.20754 -0.94234,-1.14072 -2.40542,-1.71111 -4.38925,-1.71111 z" />
    </clipPath>
    <linearGradient
       xlink:href="#linearGradient70"
       id="linearGradient147"
       gradientUnits="userSpaceOnUse"
       x1="53.549301"
       y1="186.30927"
       x2="53.810921"
       y2="180.57967" />
    <clipPath
       clipPathUnits="userSpaceOnUse"
       id="clipPath68">
      <path
         id="path69"
         style="fill:#1e97b5;fill-opacity:1;stroke-width:4.99999;stroke-dasharray:none"
         d="m 133.7982,143.67725 c -0.5113,-0.004 -0.97721,0.0553 -1.38368,0.1812 -3.8799,1.20201 -1.2617,8.6494 -1.2617,13.92518 0,5.36451 4.21853,9.07615 8.70413,9.07615 5.01247,0 9.09941,-4.04768 8.70426,-9.07615 -0.64107,-8.15777 -9.82036,-14.06943 -14.76301,-14.10638 z m -56.523497,0.0554 c -0.511302,-0.004 -0.977204,0.0553 -1.383697,0.18121 -3.879881,1.20199 -1.261692,8.6494 -1.261692,13.92518 0,5.3645 4.218528,9.07615 8.70412,9.07615 5.012489,0 9.09942,-4.04768 8.704273,-9.07615 -0.641064,-8.15778 -9.820362,-14.06944 -14.763004,-14.10639 z M 42.18327,166.76647 c -1.587082,0 -2.876545,0.54546 -3.868463,1.63658 -0.991923,1.09112 -1.760707,2.52941 -2.306267,4.31487 -0.495961,1.78548 -0.843182,3.7198 -1.041566,5.80284 -0.198385,2.08305 -0.297503,4.11651 -0.297503,6.10036 0,1.98385 0.09912,4.04208 0.297503,6.17472 0.247983,2.13264 0.64476,4.11638 1.19032,5.95144 0.545561,1.83507 1.314336,3.32306 2.306265,4.46378 1.041521,1.14071 2.330982,1.71096 3.868465,1.71096 2.083043,0 3.521485,-0.54545 4.31502,-1.63658 0.793539,-1.14071 1.239878,-2.55422 1.339067,-4.2405 0.148794,-1.68627 0.223131,-3.39729 0.223131,-5.13316 0,-2.6286 0.396777,-4.73654 1.190316,-6.32363 0.793543,-1.63667 2.033442,-2.45501 3.719716,-2.45501 1.884659,0 3.198897,0.81834 3.942834,2.45501 0.743945,1.58709 1.115944,3.69503 1.115944,6.32363 0,1.73587 0.07449,3.47167 0.223282,5.20754 0.148785,1.68627 0.6199,3.09978 1.413446,4.24049 0.843137,1.09111 2.256642,1.63673 4.240501,1.63673 1.835052,0 3.248565,-0.54562 4.240493,-1.63673 1.041514,-1.14071 1.76059,-2.62856 2.15736,-4.46361 0.446368,-1.88466 0.66953,-3.96783 0.66953,-6.24926 0.0496,-4.46365 -0.495863,-8.38175 -1.636575,-11.75429 -1.091115,-3.42214 -2.85184,-6.10033 -5.282062,-8.03459 -2.430219,-1.93425 -5.554736,-2.90141 -9.373648,-2.90141 -1.686274,0 -3.199053,0.29765 -4.538154,0.89281 -1.289505,0.54556 -2.231742,1.14073 -2.826896,1.78547 -0.694351,-2.579 -2.455071,-3.86846 -5.282059,-3.86846 z m 61.1524,0.52064 c -1.88466,0 -3.347877,0.49605 -4.389396,1.48797 -0.991923,0.94234 -1.710991,2.18223 -2.157359,3.71972 -0.39677,1.53748 -0.644724,3.22371 -0.743908,5.05878 -0.04959,1.78546 -0.07438,3.54619 -0.07438,5.28206 0,2.57901 0.09912,5.08358 0.2975,7.5138 0.198395,2.43021 0.570386,4.58773 1.115947,6.47237 0.545557,1.88466 1.339119,3.39729 2.380638,4.538 1.091118,1.09111 2.479848,1.63673 4.166118,1.63673 1.78547,0 3.14927,-0.42155 4.0916,-1.26469 0.94233,-0.89274 1.58706,-2.03351 1.93423,-3.42222 0.39677,-1.3887 0.61994,-2.82697 0.66953,-4.31486 0.0992,-1.53748 0.14891,-2.951 0.14891,-4.2405 0,-2.4798 0.74385,-4.43892 2.23173,-5.87722 1.53748,-1.48788 3.22389,-2.23173 5.05892,-2.23173 0.69436,0 1.28938,0.0991 1.78535,0.2975 0.49595,0.19839 1.01679,0.42156 1.56234,0.66954 0.54555,0.19838 1.23984,0.29766 2.083,0.29766 1.93424,0 3.42224,-0.64473 4.46375,-1.93424 1.09112,-1.2895 1.63658,-2.65344 1.63658,-4.09174 0,-1.68628 -0.57023,-3.19891 -1.71094,-4.538 -1.14072,-1.3391 -2.52945,-2.38061 -4.16613,-3.12456 -1.63666,-0.79353 -3.24857,-1.19031 -4.83565,-1.19031 -1.88464,0 -3.71972,0.24795 -5.50518,0.74391 -1.73588,0.44638 -3.17416,1.19021 -4.31488,2.23174 -0.29757,-1.23991 -0.99185,-2.15737 -2.08298,-2.75252 -1.09112,-0.64476 -2.30624,-0.96719 -3.64534,-0.96719 z m -19.789019,3.57095 c -1.983851,0 -3.471704,0.57039 -4.463632,1.71111 -0.991923,1.09111 -1.66143,2.82691 -2.008605,5.20754 -0.297577,2.38062 -0.4464,5.4308 -0.4464,9.15052 0.04959,3.71971 0.2232,6.76991 0.520774,9.15052 0.347178,2.33103 0.991902,4.06698 1.934231,5.20769 0.991928,1.14072 2.479781,1.7111 4.463632,1.7111 1.983851,0 3.471696,-0.57038 4.463616,-1.7111 0.991928,-1.14071 1.661589,-2.87666 2.008764,-5.20769 0.347179,-2.38061 0.495856,-5.43081 0.446257,-9.15052 0,-3.71972 -0.173458,-6.7699 -0.520634,-9.15052 -0.347178,-2.38063 -1.016833,-4.11643 -2.008764,-5.20754 -0.942329,-1.14072 -2.405388,-1.71111 -4.389239,-1.71111 z m 56.242229,0 c -1.98387,0 -3.4717,0.57039 -4.46364,1.71111 -0.99192,1.09111 -1.66157,2.82691 -2.00875,5.20754 -0.29758,2.38062 -0.44626,5.4308 -0.44626,9.15052 0.0496,3.71971 0.22321,6.76991 0.52079,9.15052 0.34717,2.33103 0.99189,4.06698 1.93422,5.20769 0.99194,1.14072 2.47977,1.7111 4.46364,1.7111 1.98383,0 3.47169,-0.57038 4.46361,-1.7111 0.99193,-1.14071 1.6616,-2.87666 2.00876,-5.20769 0.34717,-2.38061 0.49585,-5.43081 0.44627,-9.15052 0,-3.71972 -0.17363,-6.7699 -0.52079,-9.15052 -0.34718,-2.38063 -1.01669,-4.11643 -2.0086,-5.20754 -0.94234,-1.14072 -2.40542,-1.71111 -4.38925,-1.71111 z" />
    </clipPath>
    <linearGradient
       xlink:href="#linearGradient70"
       id="linearGradient148"
       gradientUnits="userSpaceOnUse"
       x1="120.68726"
       y1="184.44141"
       x2="120.78867"
       y2="180.51254" />
    <clipPath
       clipPathUnits="userSpaceOnUse"
       id="clipPath67">
      <path
         id="path68"
         style="fill:#1e97b5;fill-opacity:1;stroke-width:4.99999;stroke-dasharray:none"
         d="m 133.7982,143.67725 c -0.5113,-0.004 -0.97721,0.0553 -1.38368,0.1812 -3.8799,1.20201 -1.2617,8.6494 -1.2617,13.92518 0,5.36451 4.21853,9.07615 8.70413,9.07615 5.01247,0 9.09941,-4.04768 8.70426,-9.07615 -0.64107,-8.15777 -9.82036,-14.06943 -14.76301,-14.10638 z m -56.523497,0.0554 c -0.511302,-0.004 -0.977204,0.0553 -1.383697,0.18121 -3.879881,1.20199 -1.261692,8.6494 -1.261692,13.92518 0,5.3645 4.218528,9.07615 8.70412,9.07615 5.012489,0 9.09942,-4.04768 8.704273,-9.07615 -0.641064,-8.15778 -9.820362,-14.06944 -14.763004,-14.10639 z M 42.18327,166.76647 c -1.587082,0 -2.876545,0.54546 -3.868463,1.63658 -0.991923,1.09112 -1.760707,2.52941 -2.306267,4.31487 -0.495961,1.78548 -0.843182,3.7198 -1.041566,5.80284 -0.198385,2.08305 -0.297503,4.11651 -0.297503,6.10036 0,1.98385 0.09912,4.04208 0.297503,6.17472 0.247983,2.13264 0.64476,4.11638 1.19032,5.95144 0.545561,1.83507 1.314336,3.32306 2.306265,4.46378 1.041521,1.14071 2.330982,1.71096 3.868465,1.71096 2.083043,0 3.521485,-0.54545 4.31502,-1.63658 0.793539,-1.14071 1.239878,-2.55422 1.339067,-4.2405 0.148794,-1.68627 0.223131,-3.39729 0.223131,-5.13316 0,-2.6286 0.396777,-4.73654 1.190316,-6.32363 0.793543,-1.63667 2.033442,-2.45501 3.719716,-2.45501 1.884659,0 3.198897,0.81834 3.942834,2.45501 0.743945,1.58709 1.115944,3.69503 1.115944,6.32363 0,1.73587 0.07449,3.47167 0.223282,5.20754 0.148785,1.68627 0.6199,3.09978 1.413446,4.24049 0.843137,1.09111 2.256642,1.63673 4.240501,1.63673 1.835052,0 3.248565,-0.54562 4.240493,-1.63673 1.041514,-1.14071 1.76059,-2.62856 2.15736,-4.46361 0.446368,-1.88466 0.66953,-3.96783 0.66953,-6.24926 0.0496,-4.46365 -0.495863,-8.38175 -1.636575,-11.75429 -1.091115,-3.42214 -2.85184,-6.10033 -5.282062,-8.03459 -2.430219,-1.93425 -5.554736,-2.90141 -9.373648,-2.90141 -1.686274,0 -3.199053,0.29765 -4.538154,0.89281 -1.289505,0.54556 -2.231742,1.14073 -2.826896,1.78547 -0.694351,-2.579 -2.455071,-3.86846 -5.282059,-3.86846 z m 61.1524,0.52064 c -1.88466,0 -3.347877,0.49605 -4.389396,1.48797 -0.991923,0.94234 -1.710991,2.18223 -2.157359,3.71972 -0.39677,1.53748 -0.644724,3.22371 -0.743908,5.05878 -0.04959,1.78546 -0.07438,3.54619 -0.07438,5.28206 0,2.57901 0.09912,5.08358 0.2975,7.5138 0.198395,2.43021 0.570386,4.58773 1.115947,6.47237 0.545557,1.88466 1.339119,3.39729 2.380638,4.538 1.091118,1.09111 2.479848,1.63673 4.166118,1.63673 1.78547,0 3.14927,-0.42155 4.0916,-1.26469 0.94233,-0.89274 1.58706,-2.03351 1.93423,-3.42222 0.39677,-1.3887 0.61994,-2.82697 0.66953,-4.31486 0.0992,-1.53748 0.14891,-2.951 0.14891,-4.2405 0,-2.4798 0.74385,-4.43892 2.23173,-5.87722 1.53748,-1.48788 3.22389,-2.23173 5.05892,-2.23173 0.69436,0 1.28938,0.0991 1.78535,0.2975 0.49595,0.19839 1.01679,0.42156 1.56234,0.66954 0.54555,0.19838 1.23984,0.29766 2.083,0.29766 1.93424,0 3.42224,-0.64473 4.46375,-1.93424 1.09112,-1.2895 1.63658,-2.65344 1.63658,-4.09174 0,-1.68628 -0.57023,-3.19891 -1.71094,-4.538 -1.14072,-1.3391 -2.52945,-2.38061 -4.16613,-3.12456 -1.63666,-0.79353 -3.24857,-1.19031 -4.83565,-1.19031 -1.88464,0 -3.71972,0.24795 -5.50518,0.74391 -1.73588,0.44638 -3.17416,1.19021 -4.31488,2.23174 -0.29757,-1.23991 -0.99185,-2.15737 -2.08298,-2.75252 -1.09112,-0.64476 -2.30624,-0.96719 -3.64534,-0.96719 z m -19.789019,3.57095 c -1.983851,0 -3.471704,0.57039 -4.463632,1.71111 -0.991923,1.09111 -1.66143,2.82691 -2.008605,5.20754 -0.297577,2.38062 -0.4464,5.4308 -0.4464,9.15052 0.04959,3.71971 0.2232,6.76991 0.520774,9.15052 0.347178,2.33103 0.991902,4.06698 1.934231,5.20769 0.991928,1.14072 2.479781,1.7111 4.463632,1.7111 1.983851,0 3.471696,-0.57038 4.463616,-1.7111 0.991928,-1.14071 1.661589,-2.87666 2.008764,-5.20769 0.347179,-2.38061 0.495856,-5.43081 0.446257,-9.15052 0,-3.71972 -0.173458,-6.7699 -0.520634,-9.15052 -0.347178,-2.38063 -1.016833,-4.11643 -2.008764,-5.20754 -0.942329,-1.14072 -2.405388,-1.71111 -4.389239,-1.71111 z m 56.242229,0 c -1.98387,0 -3.4717,0.57039 -4.46364,1.71111 -0.99192,1.09111 -1.66157,2.82691 -2.00875,5.20754 -0.29758,2.38062 -0.44626,5.4308 -0.44626,9.15052 0.0496,3.71971 0.22321,6.76991 0.52079,9.15052 0.34717,2.33103 0.99189,4.06698 1.93422,5.20769 0.99194,1.14072 2.47977,1.7111 4.46364,1.7111 1.98383,0 3.47169,-0.57038 4.46361,-1.7111 0.99193,-1.14071 1.6616,-2.87666 2.00876,-5.20769 0.34717,-2.38061 0.49585,-5.43081 0.44627,-9.15052 0,-3.71972 -0.17363,-6.7699 -0.52079,-9.15052 -0.34718,-2.38063 -1.01669,-4.11643 -2.0086,-5.20754 -0.94234,-1.14072 -2.40542,-1.71111 -4.38925,-1.71111 z" />
    </clipPath>
    <linearGradient
       xlink:href="#linearGradient5"
       id="linearGradient149"
       gradientUnits="userSpaceOnUse"
       x1="93.752235"
       y1="164.38313"
       x2="93.377083"
       y2="177.89777" />
    <clipPath
       clipPathUnits="userSpaceOnUse"
       id="clipPath66">
      <path
         id="path67"
         style="fill:#1e97b5;fill-opacity:1;stroke-width:4.99999;stroke-dasharray:none"
         d="m 133.7982,143.67725 c -0.5113,-0.004 -0.97721,0.0553 -1.38368,0.1812 -3.8799,1.20201 -1.2617,8.6494 -1.2617,13.92518 0,5.36451 4.21853,9.07615 8.70413,9.07615 5.01247,0 9.09941,-4.04768 8.70426,-9.07615 -0.64107,-8.15777 -9.82036,-14.06943 -14.76301,-14.10638 z m -56.523497,0.0554 c -0.511302,-0.004 -0.977204,0.0553 -1.383697,0.18121 -3.879881,1.20199 -1.261692,8.6494 -1.261692,13.92518 0,5.3645 4.218528,9.07615 8.70412,9.07615 5.012489,0 9.09942,-4.04768 8.704273,-9.07615 -0.641064,-8.15778 -9.820362,-14.06944 -14.763004,-14.10639 z M 42.18327,166.76647 c -1.587082,0 -2.876545,0.54546 -3.868463,1.63658 -0.991923,1.09112 -1.760707,2.52941 -2.306267,4.31487 -0.495961,1.78548 -0.843182,3.7198 -1.041566,5.80284 -0.198385,2.08305 -0.297503,4.11651 -0.297503,6.10036 0,1.98385 0.09912,4.04208 0.297503,6.17472 0.247983,2.13264 0.64476,4.11638 1.19032,5.95144 0.545561,1.83507 1.314336,3.32306 2.306265,4.46378 1.041521,1.14071 2.330982,1.71096 3.868465,1.71096 2.083043,0 3.521485,-0.54545 4.31502,-1.63658 0.793539,-1.14071 1.239878,-2.55422 1.339067,-4.2405 0.148794,-1.68627 0.223131,-3.39729 0.223131,-5.13316 0,-2.6286 0.396777,-4.73654 1.190316,-6.32363 0.793543,-1.63667 2.033442,-2.45501 3.719716,-2.45501 1.884659,0 3.198897,0.81834 3.942834,2.45501 0.743945,1.58709 1.115944,3.69503 1.115944,6.32363 0,1.73587 0.07449,3.47167 0.223282,5.20754 0.148785,1.68627 0.6199,3.09978 1.413446,4.24049 0.843137,1.09111 2.256642,1.63673 4.240501,1.63673 1.835052,0 3.248565,-0.54562 4.240493,-1.63673 1.041514,-1.14071 1.76059,-2.62856 2.15736,-4.46361 0.446368,-1.88466 0.66953,-3.96783 0.66953,-6.24926 0.0496,-4.46365 -0.495863,-8.38175 -1.636575,-11.75429 -1.091115,-3.42214 -2.85184,-6.10033 -5.282062,-8.03459 -2.430219,-1.93425 -5.554736,-2.90141 -9.373648,-2.90141 -1.686274,0 -3.199053,0.29765 -4.538154,0.89281 -1.289505,0.54556 -2.231742,1.14073 -2.826896,1.78547 -0.694351,-2.579 -2.455071,-3.86846 -5.282059,-3.86846 z m 61.1524,0.52064 c -1.88466,0 -3.347877,0.49605 -4.389396,1.48797 -0.991923,0.94234 -1.710991,2.18223 -2.157359,3.71972 -0.39677,1.53748 -0.644724,3.22371 -0.743908,5.05878 -0.04959,1.78546 -0.07438,3.54619 -0.07438,5.28206 0,2.57901 0.09912,5.08358 0.2975,7.5138 0.198395,2.43021 0.570386,4.58773 1.115947,6.47237 0.545557,1.88466 1.339119,3.39729 2.380638,4.538 1.091118,1.09111 2.479848,1.63673 4.166118,1.63673 1.78547,0 3.14927,-0.42155 4.0916,-1.26469 0.94233,-0.89274 1.58706,-2.03351 1.93423,-3.42222 0.39677,-1.3887 0.61994,-2.82697 0.66953,-4.31486 0.0992,-1.53748 0.14891,-2.951 0.14891,-4.2405 0,-2.4798 0.74385,-4.43892 2.23173,-5.87722 1.53748,-1.48788 3.22389,-2.23173 5.05892,-2.23173 0.69436,0 1.28938,0.0991 1.78535,0.2975 0.49595,0.19839 1.01679,0.42156 1.56234,0.66954 0.54555,0.19838 1.23984,0.29766 2.083,0.29766 1.93424,0 3.42224,-0.64473 4.46375,-1.93424 1.09112,-1.2895 1.63658,-2.65344 1.63658,-4.09174 0,-1.68628 -0.57023,-3.19891 -1.71094,-4.538 -1.14072,-1.3391 -2.52945,-2.38061 -4.16613,-3.12456 -1.63666,-0.79353 -3.24857,-1.19031 -4.83565,-1.19031 -1.88464,0 -3.71972,0.24795 -5.50518,0.74391 -1.73588,0.44638 -3.17416,1.19021 -4.31488,2.23174 -0.29757,-1.23991 -0.99185,-2.15737 -2.08298,-2.75252 -1.09112,-0.64476 -2.30624,-0.96719 -3.64534,-0.96719 z m -19.789019,3.57095 c -1.983851,0 -3.471704,0.57039 -4.463632,1.71111 -0.991923,1.09111 -1.66143,2.82691 -2.008605,5.20754 -0.297577,2.38062 -0.4464,5.4308 -0.4464,9.15052 0.04959,3.71971 0.2232,6.76991 0.520774,9.15052 0.347178,2.33103 0.991902,4.06698 1.934231,5.20769 0.991928,1.14072 2.479781,1.7111 4.463632,1.7111 1.983851,0 3.471696,-0.57038 4.463616,-1.7111 0.991928,-1.14071 1.661589,-2.87666 2.008764,-5.20769 0.347179,-2.38061 0.495856,-5.43081 0.446257,-9.15052 0,-3.71972 -0.173458,-6.7699 -0.520634,-9.15052 -0.347178,-2.38063 -1.016833,-4.11643 -2.008764,-5.20754 -0.942329,-1.14072 -2.405388,-1.71111 -4.389239,-1.71111 z m 56.242229,0 c -1.98387,0 -3.4717,0.57039 -4.46364,1.71111 -0.99192,1.09111 -1.66157,2.82691 -2.00875,5.20754 -0.29758,2.38062 -0.44626,5.4308 -0.44626,9.15052 0.0496,3.71971 0.22321,6.76991 0.52079,9.15052 0.34717,2.33103 0.99189,4.06698 1.93422,5.20769 0.99194,1.14072 2.47977,1.7111 4.46364,1.7111 1.98383,0 3.47169,-0.57038 4.46361,-1.7111 0.99193,-1.14071 1.6616,-2.87666 2.00876,-5.20769 0.34717,-2.38061 0.49585,-5.43081 0.44627,-9.15052 0,-3.71972 -0.17363,-6.7699 -0.52079,-9.15052 -0.34718,-2.38063 -1.01669,-4.11643 -2.0086,-5.20754 -0.94234,-1.14072 -2.40542,-1.71111 -4.38925,-1.71111 z" />
    </clipPath>
    <clipPath
       clipPathUnits="userSpaceOnUse"
       id="clipPath161">
      <g
         id="use161">
        <path
           id="path62"
           style="fill:#1e97b5;fill-opacity:1;stroke-width:2.31594;stroke-dasharray:none"
           d="m -79.263172,177.1396 c -0.9189,0 -1.333001,0.2642 -1.792451,0.79257 -0.459449,0.50539 -0.769623,1.30939 -0.930433,2.41207 -0.137835,1.10267 -0.206697,2.51548 -0.206697,4.23841 0.02297,1.72292 0.103383,3.13574 0.241219,4.23841 0.160805,1.0797 0.459436,1.88377 0.895911,2.41214 0.45945,0.52836 0.873551,0.79256 1.792451,0.79256 0.91889,0 1.057952,-0.2642 1.517397,-0.79256 0.459445,-0.52837 0.769628,-1.33244 0.930429,-2.41214 0.160809,-1.10267 0.229676,-2.51549 0.206706,-4.23841 0,-1.72293 -0.08042,-3.13574 -0.241223,-4.23841 -0.16081,-1.10268 -0.470919,-1.90668 -0.930359,-2.41207 -0.436476,-0.52837 -0.56406,-0.79257 -1.48295,-0.79257 z" />
      </g>
    </clipPath>
    <linearGradient
       xlink:href="#linearGradient7"
       id="linearGradient22"
       gradientUnits="userSpaceOnUse"
       x1="101.37057"
       y1="202.59308"
       x2="101.34383"
       y2="199.69127" />
    <linearGradient
       xlink:href="#linearGradient70"
       id="linearGradient23"
       gradientUnits="userSpaceOnUse"
       x1="53.549301"
       y1="186.30927"
       x2="53.810921"
       y2="180.57967" />
    <linearGradient
       xlink:href="#linearGradient70"
       id="linearGradient24"
       gradientUnits="userSpaceOnUse"
       x1="120.68726"
       y1="184.44141"
       x2="120.78867"
       y2="180.51254" />
    <linearGradient
       xlink:href="#linearGradient5"
       id="linearGradient25"
       gradientUnits="userSpaceOnUse"
       x1="93.752235"
       y1="164.38313"
       x2="93.377083"
       y2="177.89777" />
    <linearGradient
       xlink:href="#linearGradient26"
       id="linearGradient61"
       gradientUnits="userSpaceOnUse"
       x1="137.41386"
       y1="201.52441"
       x2="137.46588"
       y2="196.20343" />
    <linearGradient
       xlink:href="#linearGradient28"
       id="linearGradient62"
       gradientUnits="userSpaceOnUse"
       gradientTransform="matrix(0.46318782,0,0,0.52451075,-144.01168,87.591835)"
       x1="141.64835"
       y1="164.65019"
       x2="141.27319"
       y2="178.16483" />
    <linearGradient
       xlink:href="#linearGradient26"
       id="linearGradient83"
       gradientUnits="userSpaceOnUse"
       x1="137.41386"
       y1="201.52441"
       x2="137.46588"
       y2="196.20343" />
    <linearGradient
       xlink:href="#linearGradient28"
       id="linearGradient84"
       gradientUnits="userSpaceOnUse"
       gradientTransform="matrix(0.46318782,0,0,0.52451075,-144.01168,87.591835)"
       x1="141.64835"
       y1="164.65019"
       x2="141.27319"
       y2="178.16483" />
    <clipPath
       clipPathUnits="userSpaceOnUse"
       id="clipPath161-2">
      <g
         id="use161-9">
        <path
           id="path62-1"
           style="fill:#1e97b5;fill-opacity:1;stroke-width:2.31594;stroke-dasharray:none"
           d="m -79.263172,177.1396 c -0.9189,0 -1.333001,0.2642 -1.792451,0.79257 -0.459449,0.50539 -0.769623,1.30939 -0.930433,2.41207 -0.137835,1.10267 -0.206697,2.51548 -0.206697,4.23841 0.02297,1.72292 0.103383,3.13574 0.241219,4.23841 0.160805,1.0797 0.459436,1.88377 0.895911,2.41214 0.45945,0.52836 0.873551,0.79256 1.792451,0.79256 0.91889,0 1.057952,-0.2642 1.517397,-0.79256 0.459445,-0.52837 0.769628,-1.33244 0.930429,-2.41214 0.160809,-1.10267 0.229676,-2.51549 0.206706,-4.23841 0,-1.72293 -0.08042,-3.13574 -0.241223,-4.23841 -0.16081,-1.10268 -0.470919,-1.90668 -0.930359,-2.41207 -0.436476,-0.52837 -0.56406,-0.79257 -1.48295,-0.79257 z" />
      </g>
    </clipPath>
    <clipPath
       clipPathUnits="userSpaceOnUse"
       id="clipPath69-5">
      <path
         id="path70-3"
         style="fill:#1e97b5;fill-opacity:1;stroke-width:4.99999;stroke-dasharray:none"
         d="m 133.7982,143.67725 c -0.5113,-0.004 -0.97721,0.0553 -1.38368,0.1812 -3.8799,1.20201 -1.2617,8.6494 -1.2617,13.92518 0,5.36451 4.21853,9.07615 8.70413,9.07615 5.01247,0 9.09941,-4.04768 8.70426,-9.07615 -0.64107,-8.15777 -9.82036,-14.06943 -14.76301,-14.10638 z m -56.523497,0.0554 c -0.511302,-0.004 -0.977204,0.0553 -1.383697,0.18121 -3.879881,1.20199 -1.261692,8.6494 -1.261692,13.92518 0,5.3645 4.218528,9.07615 8.70412,9.07615 5.012489,0 9.09942,-4.04768 8.704273,-9.07615 -0.641064,-8.15778 -9.820362,-14.06944 -14.763004,-14.10639 z M 42.18327,166.76647 c -1.587082,0 -2.876545,0.54546 -3.868463,1.63658 -0.991923,1.09112 -1.760707,2.52941 -2.306267,4.31487 -0.495961,1.78548 -0.843182,3.7198 -1.041566,5.80284 -0.198385,2.08305 -0.297503,4.11651 -0.297503,6.10036 0,1.98385 0.09912,4.04208 0.297503,6.17472 0.247983,2.13264 0.64476,4.11638 1.19032,5.95144 0.545561,1.83507 1.314336,3.32306 2.306265,4.46378 1.041521,1.14071 2.330982,1.71096 3.868465,1.71096 2.083043,0 3.521485,-0.54545 4.31502,-1.63658 0.793539,-1.14071 1.239878,-2.55422 1.339067,-4.2405 0.148794,-1.68627 0.223131,-3.39729 0.223131,-5.13316 0,-2.6286 0.396777,-4.73654 1.190316,-6.32363 0.793543,-1.63667 2.033442,-2.45501 3.719716,-2.45501 1.884659,0 3.198897,0.81834 3.942834,2.45501 0.743945,1.58709 1.115944,3.69503 1.115944,6.32363 0,1.73587 0.07449,3.47167 0.223282,5.20754 0.148785,1.68627 0.6199,3.09978 1.413446,4.24049 0.843137,1.09111 2.256642,1.63673 4.240501,1.63673 1.835052,0 3.248565,-0.54562 4.240493,-1.63673 1.041514,-1.14071 1.76059,-2.62856 2.15736,-4.46361 0.446368,-1.88466 0.66953,-3.96783 0.66953,-6.24926 0.0496,-4.46365 -0.495863,-8.38175 -1.636575,-11.75429 -1.091115,-3.42214 -2.85184,-6.10033 -5.282062,-8.03459 -2.430219,-1.93425 -5.554736,-2.90141 -9.373648,-2.90141 -1.686274,0 -3.199053,0.29765 -4.538154,0.89281 -1.289505,0.54556 -2.231742,1.14073 -2.826896,1.78547 -0.694351,-2.579 -2.455071,-3.86846 -5.282059,-3.86846 z m 61.1524,0.52064 c -1.88466,0 -3.347877,0.49605 -4.389396,1.48797 -0.991923,0.94234 -1.710991,2.18223 -2.157359,3.71972 -0.39677,1.53748 -0.644724,3.22371 -0.743908,5.05878 -0.04959,1.78546 -0.07438,3.54619 -0.07438,5.28206 0,2.57901 0.09912,5.08358 0.2975,7.5138 0.198395,2.43021 0.570386,4.58773 1.115947,6.47237 0.545557,1.88466 1.339119,3.39729 2.380638,4.538 1.091118,1.09111 2.479848,1.63673 4.166118,1.63673 1.78547,0 3.14927,-0.42155 4.0916,-1.26469 0.94233,-0.89274 1.58706,-2.03351 1.93423,-3.42222 0.39677,-1.3887 0.61994,-2.82697 0.66953,-4.31486 0.0992,-1.53748 0.14891,-2.951 0.14891,-4.2405 0,-2.4798 0.74385,-4.43892 2.23173,-5.87722 1.53748,-1.48788 3.22389,-2.23173 5.05892,-2.23173 0.69436,0 1.28938,0.0991 1.78535,0.2975 0.49595,0.19839 1.01679,0.42156 1.56234,0.66954 0.54555,0.19838 1.23984,0.29766 2.083,0.29766 1.93424,0 3.42224,-0.64473 4.46375,-1.93424 1.09112,-1.2895 1.63658,-2.65344 1.63658,-4.09174 0,-1.68628 -0.57023,-3.19891 -1.71094,-4.538 -1.14072,-1.3391 -2.52945,-2.38061 -4.16613,-3.12456 -1.63666,-0.79353 -3.24857,-1.19031 -4.83565,-1.19031 -1.88464,0 -3.71972,0.24795 -5.50518,0.74391 -1.73588,0.44638 -3.17416,1.19021 -4.31488,2.23174 -0.29757,-1.23991 -0.99185,-2.15737 -2.08298,-2.75252 -1.09112,-0.64476 -2.30624,-0.96719 -3.64534,-0.96719 z m -19.789019,3.57095 c -1.983851,0 -3.471704,0.57039 -4.463632,1.71111 -0.991923,1.09111 -1.66143,2.82691 -2.008605,5.20754 -0.297577,2.38062 -0.4464,5.4308 -0.4464,9.15052 0.04959,3.71971 0.2232,6.76991 0.520774,9.15052 0.347178,2.33103 0.991902,4.06698 1.934231,5.20769 0.991928,1.14072 2.479781,1.7111 4.463632,1.7111 1.983851,0 3.471696,-0.57038 4.463616,-1.7111 0.991928,-1.14071 1.661589,-2.87666 2.008764,-5.20769 0.347179,-2.38061 0.495856,-5.43081 0.446257,-9.15052 0,-3.71972 -0.173458,-6.7699 -0.520634,-9.15052 -0.347178,-2.38063 -1.016833,-4.11643 -2.008764,-5.20754 -0.942329,-1.14072 -2.405388,-1.71111 -4.389239,-1.71111 z m 56.242229,0 c -1.98387,0 -3.4717,0.57039 -4.46364,1.71111 -0.99192,1.09111 -1.66157,2.82691 -2.00875,5.20754 -0.29758,2.38062 -0.44626,5.4308 -0.44626,9.15052 0.0496,3.71971 0.22321,6.76991 0.52079,9.15052 0.34717,2.33103 0.99189,4.06698 1.93422,5.20769 0.99194,1.14072 2.47977,1.7111 4.46364,1.7111 1.98383,0 3.47169,-0.57038 4.46361,-1.7111 0.99193,-1.14071 1.6616,-2.87666 2.00876,-5.20769 0.34717,-2.38061 0.49585,-5.43081 0.44627,-9.15052 0,-3.71972 -0.17363,-6.7699 -0.52079,-9.15052 -0.34718,-2.38063 -1.01669,-4.11643 -2.0086,-5.20754 -0.94234,-1.14072 -2.40542,-1.71111 -4.38925,-1.71111 z" />
    </clipPath>
    <clipPath
       clipPathUnits="userSpaceOnUse"
       id="clipPath68-2">
      <path
         id="path69-9"
         style="fill:#1e97b5;fill-opacity:1;stroke-width:4.99999;stroke-dasharray:none"
         d="m 133.7982,143.67725 c -0.5113,-0.004 -0.97721,0.0553 -1.38368,0.1812 -3.8799,1.20201 -1.2617,8.6494 -1.2617,13.92518 0,5.36451 4.21853,9.07615 8.70413,9.07615 5.01247,0 9.09941,-4.04768 8.70426,-9.07615 -0.64107,-8.15777 -9.82036,-14.06943 -14.76301,-14.10638 z m -56.523497,0.0554 c -0.511302,-0.004 -0.977204,0.0553 -1.383697,0.18121 -3.879881,1.20199 -1.261692,8.6494 -1.261692,13.92518 0,5.3645 4.218528,9.07615 8.70412,9.07615 5.012489,0 9.09942,-4.04768 8.704273,-9.07615 -0.641064,-8.15778 -9.820362,-14.06944 -14.763004,-14.10639 z M 42.18327,166.76647 c -1.587082,0 -2.876545,0.54546 -3.868463,1.63658 -0.991923,1.09112 -1.760707,2.52941 -2.306267,4.31487 -0.495961,1.78548 -0.843182,3.7198 -1.041566,5.80284 -0.198385,2.08305 -0.297503,4.11651 -0.297503,6.10036 0,1.98385 0.09912,4.04208 0.297503,6.17472 0.247983,2.13264 0.64476,4.11638 1.19032,5.95144 0.545561,1.83507 1.314336,3.32306 2.306265,4.46378 1.041521,1.14071 2.330982,1.71096 3.868465,1.71096 2.083043,0 3.521485,-0.54545 4.31502,-1.63658 0.793539,-1.14071 1.239878,-2.55422 1.339067,-4.2405 0.148794,-1.68627 0.223131,-3.39729 0.223131,-5.13316 0,-2.6286 0.396777,-4.73654 1.190316,-6.32363 0.793543,-1.63667 2.033442,-2.45501 3.719716,-2.45501 1.884659,0 3.198897,0.81834 3.942834,2.45501 0.743945,1.58709 1.115944,3.69503 1.115944,6.32363 0,1.73587 0.07449,3.47167 0.223282,5.20754 0.148785,1.68627 0.6199,3.09978 1.413446,4.24049 0.843137,1.09111 2.256642,1.63673 4.240501,1.63673 1.835052,0 3.248565,-0.54562 4.240493,-1.63673 1.041514,-1.14071 1.76059,-2.62856 2.15736,-4.46361 0.446368,-1.88466 0.66953,-3.96783 0.66953,-6.24926 0.0496,-4.46365 -0.495863,-8.38175 -1.636575,-11.75429 -1.091115,-3.42214 -2.85184,-6.10033 -5.282062,-8.03459 -2.430219,-1.93425 -5.554736,-2.90141 -9.373648,-2.90141 -1.686274,0 -3.199053,0.29765 -4.538154,0.89281 -1.289505,0.54556 -2.231742,1.14073 -2.826896,1.78547 -0.694351,-2.579 -2.455071,-3.86846 -5.282059,-3.86846 z m 61.1524,0.52064 c -1.88466,0 -3.347877,0.49605 -4.389396,1.48797 -0.991923,0.94234 -1.710991,2.18223 -2.157359,3.71972 -0.39677,1.53748 -0.644724,3.22371 -0.743908,5.05878 -0.04959,1.78546 -0.07438,3.54619 -0.07438,5.28206 0,2.57901 0.09912,5.08358 0.2975,7.5138 0.198395,2.43021 0.570386,4.58773 1.115947,6.47237 0.545557,1.88466 1.339119,3.39729 2.380638,4.538 1.091118,1.09111 2.479848,1.63673 4.166118,1.63673 1.78547,0 3.14927,-0.42155 4.0916,-1.26469 0.94233,-0.89274 1.58706,-2.03351 1.93423,-3.42222 0.39677,-1.3887 0.61994,-2.82697 0.66953,-4.31486 0.0992,-1.53748 0.14891,-2.951 0.14891,-4.2405 0,-2.4798 0.74385,-4.43892 2.23173,-5.87722 1.53748,-1.48788 3.22389,-2.23173 5.05892,-2.23173 0.69436,0 1.28938,0.0991 1.78535,0.2975 0.49595,0.19839 1.01679,0.42156 1.56234,0.66954 0.54555,0.19838 1.23984,0.29766 2.083,0.29766 1.93424,0 3.42224,-0.64473 4.46375,-1.93424 1.09112,-1.2895 1.63658,-2.65344 1.63658,-4.09174 0,-1.68628 -0.57023,-3.19891 -1.71094,-4.538 -1.14072,-1.3391 -2.52945,-2.38061 -4.16613,-3.12456 -1.63666,-0.79353 -3.24857,-1.19031 -4.83565,-1.19031 -1.88464,0 -3.71972,0.24795 -5.50518,0.74391 -1.73588,0.44638 -3.17416,1.19021 -4.31488,2.23174 -0.29757,-1.23991 -0.99185,-2.15737 -2.08298,-2.75252 -1.09112,-0.64476 -2.30624,-0.96719 -3.64534,-0.96719 z m -19.789019,3.57095 c -1.983851,0 -3.471704,0.57039 -4.463632,1.71111 -0.991923,1.09111 -1.66143,2.82691 -2.008605,5.20754 -0.297577,2.38062 -0.4464,5.4308 -0.4464,9.15052 0.04959,3.71971 0.2232,6.76991 0.520774,9.15052 0.347178,2.33103 0.991902,4.06698 1.934231,5.20769 0.991928,1.14072 2.479781,1.7111 4.463632,1.7111 1.983851,0 3.471696,-0.57038 4.463616,-1.7111 0.991928,-1.14071 1.661589,-2.87666 2.008764,-5.20769 0.347179,-2.38061 0.495856,-5.43081 0.446257,-9.15052 0,-3.71972 -0.173458,-6.7699 -0.520634,-9.15052 -0.347178,-2.38063 -1.016833,-4.11643 -2.008764,-5.20754 -0.942329,-1.14072 -2.405388,-1.71111 -4.389239,-1.71111 z m 56.242229,0 c -1.98387,0 -3.4717,0.57039 -4.46364,1.71111 -0.99192,1.09111 -1.66157,2.82691 -2.00875,5.20754 -0.29758,2.38062 -0.44626,5.4308 -0.44626,9.15052 0.0496,3.71971 0.22321,6.76991 0.52079,9.15052 0.34717,2.33103 0.99189,4.06698 1.93422,5.20769 0.99194,1.14072 2.47977,1.7111 4.46364,1.7111 1.98383,0 3.47169,-0.57038 4.46361,-1.7111 0.99193,-1.14071 1.6616,-2.87666 2.00876,-5.20769 0.34717,-2.38061 0.49585,-5.43081 0.44627,-9.15052 0,-3.71972 -0.17363,-6.7699 -0.52079,-9.15052 -0.34718,-2.38063 -1.01669,-4.11643 -2.0086,-5.20754 -0.94234,-1.14072 -2.40542,-1.71111 -4.38925,-1.71111 z" />
    </clipPath>
    <clipPath
       clipPathUnits="userSpaceOnUse"
       id="clipPath67-1">
      <path
         id="path68-2"
         style="fill:#1e97b5;fill-opacity:1;stroke-width:4.99999;stroke-dasharray:none"
         d="m 133.7982,143.67725 c -0.5113,-0.004 -0.97721,0.0553 -1.38368,0.1812 -3.8799,1.20201 -1.2617,8.6494 -1.2617,13.92518 0,5.36451 4.21853,9.07615 8.70413,9.07615 5.01247,0 9.09941,-4.04768 8.70426,-9.07615 -0.64107,-8.15777 -9.82036,-14.06943 -14.76301,-14.10638 z m -56.523497,0.0554 c -0.511302,-0.004 -0.977204,0.0553 -1.383697,0.18121 -3.879881,1.20199 -1.261692,8.6494 -1.261692,13.92518 0,5.3645 4.218528,9.07615 8.70412,9.07615 5.012489,0 9.09942,-4.04768 8.704273,-9.07615 -0.641064,-8.15778 -9.820362,-14.06944 -14.763004,-14.10639 z M 42.18327,166.76647 c -1.587082,0 -2.876545,0.54546 -3.868463,1.63658 -0.991923,1.09112 -1.760707,2.52941 -2.306267,4.31487 -0.495961,1.78548 -0.843182,3.7198 -1.041566,5.80284 -0.198385,2.08305 -0.297503,4.11651 -0.297503,6.10036 0,1.98385 0.09912,4.04208 0.297503,6.17472 0.247983,2.13264 0.64476,4.11638 1.19032,5.95144 0.545561,1.83507 1.314336,3.32306 2.306265,4.46378 1.041521,1.14071 2.330982,1.71096 3.868465,1.71096 2.083043,0 3.521485,-0.54545 4.31502,-1.63658 0.793539,-1.14071 1.239878,-2.55422 1.339067,-4.2405 0.148794,-1.68627 0.223131,-3.39729 0.223131,-5.13316 0,-2.6286 0.396777,-4.73654 1.190316,-6.32363 0.793543,-1.63667 2.033442,-2.45501 3.719716,-2.45501 1.884659,0 3.198897,0.81834 3.942834,2.45501 0.743945,1.58709 1.115944,3.69503 1.115944,6.32363 0,1.73587 0.07449,3.47167 0.223282,5.20754 0.148785,1.68627 0.6199,3.09978 1.413446,4.24049 0.843137,1.09111 2.256642,1.63673 4.240501,1.63673 1.835052,0 3.248565,-0.54562 4.240493,-1.63673 1.041514,-1.14071 1.76059,-2.62856 2.15736,-4.46361 0.446368,-1.88466 0.66953,-3.96783 0.66953,-6.24926 0.0496,-4.46365 -0.495863,-8.38175 -1.636575,-11.75429 -1.091115,-3.42214 -2.85184,-6.10033 -5.282062,-8.03459 -2.430219,-1.93425 -5.554736,-2.90141 -9.373648,-2.90141 -1.686274,0 -3.199053,0.29765 -4.538154,0.89281 -1.289505,0.54556 -2.231742,1.14073 -2.826896,1.78547 -0.694351,-2.579 -2.455071,-3.86846 -5.282059,-3.86846 z m 61.1524,0.52064 c -1.88466,0 -3.347877,0.49605 -4.389396,1.48797 -0.991923,0.94234 -1.710991,2.18223 -2.157359,3.71972 -0.39677,1.53748 -0.644724,3.22371 -0.743908,5.05878 -0.04959,1.78546 -0.07438,3.54619 -0.07438,5.28206 0,2.57901 0.09912,5.08358 0.2975,7.5138 0.198395,2.43021 0.570386,4.58773 1.115947,6.47237 0.545557,1.88466 1.339119,3.39729 2.380638,4.538 1.091118,1.09111 2.479848,1.63673 4.166118,1.63673 1.78547,0 3.14927,-0.42155 4.0916,-1.26469 0.94233,-0.89274 1.58706,-2.03351 1.93423,-3.42222 0.39677,-1.3887 0.61994,-2.82697 0.66953,-4.31486 0.0992,-1.53748 0.14891,-2.951 0.14891,-4.2405 0,-2.4798 0.74385,-4.43892 2.23173,-5.87722 1.53748,-1.48788 3.22389,-2.23173 5.05892,-2.23173 0.69436,0 1.28938,0.0991 1.78535,0.2975 0.49595,0.19839 1.01679,0.42156 1.56234,0.66954 0.54555,0.19838 1.23984,0.29766 2.083,0.29766 1.93424,0 3.42224,-0.64473 4.46375,-1.93424 1.09112,-1.2895 1.63658,-2.65344 1.63658,-4.09174 0,-1.68628 -0.57023,-3.19891 -1.71094,-4.538 -1.14072,-1.3391 -2.52945,-2.38061 -4.16613,-3.12456 -1.63666,-0.79353 -3.24857,-1.19031 -4.83565,-1.19031 -1.88464,0 -3.71972,0.24795 -5.50518,0.74391 -1.73588,0.44638 -3.17416,1.19021 -4.31488,2.23174 -0.29757,-1.23991 -0.99185,-2.15737 -2.08298,-2.75252 -1.09112,-0.64476 -2.30624,-0.96719 -3.64534,-0.96719 z m -19.789019,3.57095 c -1.983851,0 -3.471704,0.57039 -4.463632,1.71111 -0.991923,1.09111 -1.66143,2.82691 -2.008605,5.20754 -0.297577,2.38062 -0.4464,5.4308 -0.4464,9.15052 0.04959,3.71971 0.2232,6.76991 0.520774,9.15052 0.347178,2.33103 0.991902,4.06698 1.934231,5.20769 0.991928,1.14072 2.479781,1.7111 4.463632,1.7111 1.983851,0 3.471696,-0.57038 4.463616,-1.7111 0.991928,-1.14071 1.661589,-2.87666 2.008764,-5.20769 0.347179,-2.38061 0.495856,-5.43081 0.446257,-9.15052 0,-3.71972 -0.173458,-6.7699 -0.520634,-9.15052 -0.347178,-2.38063 -1.016833,-4.11643 -2.008764,-5.20754 -0.942329,-1.14072 -2.405388,-1.71111 -4.389239,-1.71111 z m 56.242229,0 c -1.98387,0 -3.4717,0.57039 -4.46364,1.71111 -0.99192,1.09111 -1.66157,2.82691 -2.00875,5.20754 -0.29758,2.38062 -0.44626,5.4308 -0.44626,9.15052 0.0496,3.71971 0.22321,6.76991 0.52079,9.15052 0.34717,2.33103 0.99189,4.06698 1.93422,5.20769 0.99194,1.14072 2.47977,1.7111 4.46364,1.7111 1.98383,0 3.47169,-0.57038 4.46361,-1.7111 0.99193,-1.14071 1.6616,-2.87666 2.00876,-5.20769 0.34717,-2.38061 0.49585,-5.43081 0.44627,-9.15052 0,-3.71972 -0.17363,-6.7699 -0.52079,-9.15052 -0.34718,-2.38063 -1.01669,-4.11643 -2.0086,-5.20754 -0.94234,-1.14072 -2.40542,-1.71111 -4.38925,-1.71111 z" />
    </clipPath>
    <clipPath
       clipPathUnits="userSpaceOnUse"
       id="clipPath66-9">
      <path
         id="path67-3"
         style="fill:#1e97b5;fill-opacity:1;stroke-width:4.99999;stroke-dasharray:none"
         d="m 133.7982,143.67725 c -0.5113,-0.004 -0.97721,0.0553 -1.38368,0.1812 -3.8799,1.20201 -1.2617,8.6494 -1.2617,13.92518 0,5.36451 4.21853,9.07615 8.70413,9.07615 5.01247,0 9.09941,-4.04768 8.70426,-9.07615 -0.64107,-8.15777 -9.82036,-14.06943 -14.76301,-14.10638 z m -56.523497,0.0554 c -0.511302,-0.004 -0.977204,0.0553 -1.383697,0.18121 -3.879881,1.20199 -1.261692,8.6494 -1.261692,13.92518 0,5.3645 4.218528,9.07615 8.70412,9.07615 5.012489,0 9.09942,-4.04768 8.704273,-9.07615 -0.641064,-8.15778 -9.820362,-14.06944 -14.763004,-14.10639 z M 42.18327,166.76647 c -1.587082,0 -2.876545,0.54546 -3.868463,1.63658 -0.991923,1.09112 -1.760707,2.52941 -2.306267,4.31487 -0.495961,1.78548 -0.843182,3.7198 -1.041566,5.80284 -0.198385,2.08305 -0.297503,4.11651 -0.297503,6.10036 0,1.98385 0.09912,4.04208 0.297503,6.17472 0.247983,2.13264 0.64476,4.11638 1.19032,5.95144 0.545561,1.83507 1.314336,3.32306 2.306265,4.46378 1.041521,1.14071 2.330982,1.71096 3.868465,1.71096 2.083043,0 3.521485,-0.54545 4.31502,-1.63658 0.793539,-1.14071 1.239878,-2.55422 1.339067,-4.2405 0.148794,-1.68627 0.223131,-3.39729 0.223131,-5.13316 0,-2.6286 0.396777,-4.73654 1.190316,-6.32363 0.793543,-1.63667 2.033442,-2.45501 3.719716,-2.45501 1.884659,0 3.198897,0.81834 3.942834,2.45501 0.743945,1.58709 1.115944,3.69503 1.115944,6.32363 0,1.73587 0.07449,3.47167 0.223282,5.20754 0.148785,1.68627 0.6199,3.09978 1.413446,4.24049 0.843137,1.09111 2.256642,1.63673 4.240501,1.63673 1.835052,0 3.248565,-0.54562 4.240493,-1.63673 1.041514,-1.14071 1.76059,-2.62856 2.15736,-4.46361 0.446368,-1.88466 0.66953,-3.96783 0.66953,-6.24926 0.0496,-4.46365 -0.495863,-8.38175 -1.636575,-11.75429 -1.091115,-3.42214 -2.85184,-6.10033 -5.282062,-8.03459 -2.430219,-1.93425 -5.554736,-2.90141 -9.373648,-2.90141 -1.686274,0 -3.199053,0.29765 -4.538154,0.89281 -1.289505,0.54556 -2.231742,1.14073 -2.826896,1.78547 -0.694351,-2.579 -2.455071,-3.86846 -5.282059,-3.86846 z m 61.1524,0.52064 c -1.88466,0 -3.347877,0.49605 -4.389396,1.48797 -0.991923,0.94234 -1.710991,2.18223 -2.157359,3.71972 -0.39677,1.53748 -0.644724,3.22371 -0.743908,5.05878 -0.04959,1.78546 -0.07438,3.54619 -0.07438,5.28206 0,2.57901 0.09912,5.08358 0.2975,7.5138 0.198395,2.43021 0.570386,4.58773 1.115947,6.47237 0.545557,1.88466 1.339119,3.39729 2.380638,4.538 1.091118,1.09111 2.479848,1.63673 4.166118,1.63673 1.78547,0 3.14927,-0.42155 4.0916,-1.26469 0.94233,-0.89274 1.58706,-2.03351 1.93423,-3.42222 0.39677,-1.3887 0.61994,-2.82697 0.66953,-4.31486 0.0992,-1.53748 0.14891,-2.951 0.14891,-4.2405 0,-2.4798 0.74385,-4.43892 2.23173,-5.87722 1.53748,-1.48788 3.22389,-2.23173 5.05892,-2.23173 0.69436,0 1.28938,0.0991 1.78535,0.2975 0.49595,0.19839 1.01679,0.42156 1.56234,0.66954 0.54555,0.19838 1.23984,0.29766 2.083,0.29766 1.93424,0 3.42224,-0.64473 4.46375,-1.93424 1.09112,-1.2895 1.63658,-2.65344 1.63658,-4.09174 0,-1.68628 -0.57023,-3.19891 -1.71094,-4.538 -1.14072,-1.3391 -2.52945,-2.38061 -4.16613,-3.12456 -1.63666,-0.79353 -3.24857,-1.19031 -4.83565,-1.19031 -1.88464,0 -3.71972,0.24795 -5.50518,0.74391 -1.73588,0.44638 -3.17416,1.19021 -4.31488,2.23174 -0.29757,-1.23991 -0.99185,-2.15737 -2.08298,-2.75252 -1.09112,-0.64476 -2.30624,-0.96719 -3.64534,-0.96719 z m -19.789019,3.57095 c -1.983851,0 -3.471704,0.57039 -4.463632,1.71111 -0.991923,1.09111 -1.66143,2.82691 -2.008605,5.20754 -0.297577,2.38062 -0.4464,5.4308 -0.4464,9.15052 0.04959,3.71971 0.2232,6.76991 0.520774,9.15052 0.347178,2.33103 0.991902,4.06698 1.934231,5.20769 0.991928,1.14072 2.479781,1.7111 4.463632,1.7111 1.983851,0 3.471696,-0.57038 4.463616,-1.7111 0.991928,-1.14071 1.661589,-2.87666 2.008764,-5.20769 0.347179,-2.38061 0.495856,-5.43081 0.446257,-9.15052 0,-3.71972 -0.173458,-6.7699 -0.520634,-9.15052 -0.347178,-2.38063 -1.016833,-4.11643 -2.008764,-5.20754 -0.942329,-1.14072 -2.405388,-1.71111 -4.389239,-1.71111 z m 56.242229,0 c -1.98387,0 -3.4717,0.57039 -4.46364,1.71111 -0.99192,1.09111 -1.66157,2.82691 -2.00875,5.20754 -0.29758,2.38062 -0.44626,5.4308 -0.44626,9.15052 0.0496,3.71971 0.22321,6.76991 0.52079,9.15052 0.34717,2.33103 0.99189,4.06698 1.93422,5.20769 0.99194,1.14072 2.47977,1.7111 4.46364,1.7111 1.98383,0 3.47169,-0.57038 4.46361,-1.7111 0.99193,-1.14071 1.6616,-2.87666 2.00876,-5.20769 0.34717,-2.38061 0.49585,-5.43081 0.44627,-9.15052 0,-3.71972 -0.17363,-6.7699 -0.52079,-9.15052 -0.34718,-2.38063 -1.01669,-4.11643 -2.0086,-5.20754 -0.94234,-1.14072 -2.40542,-1.71111 -4.38925,-1.71111 z" />
    </clipPath>
    <inkscape:path-effect
       effect="fillet_chamfer"
       id="path-effect62-6"
       is_visible="true"
       lpeversion="1"
       nodesatellites_param="F,0,0,1,0,4.5,0,1 @ F,0,0,1,0,4.5,0,1 @ F,0,0,1,0,4.5,0,1 @ F,0,0,1,0,4.5,0,1"
       radius="10"
       unit="px"
       method="auto"
       mode="F"
       chamfer_steps="1"
       flexible="false"
       use_knot_distance="true"
       apply_no_radius="true"
       apply_with_radius="true"
       only_selected="false"
       hide_knots="false" />
    <clipPath
       clipPathUnits="userSpaceOnUse"
       id="clipPath69-1">
      <path
         id="path70-8"
         style="fill:#1e97b5;fill-opacity:1;stroke-width:4.99999;stroke-dasharray:none"
         d="m 133.7982,143.67725 c -0.5113,-0.004 -0.97721,0.0553 -1.38368,0.1812 -3.8799,1.20201 -1.2617,8.6494 -1.2617,13.92518 0,5.36451 4.21853,9.07615 8.70413,9.07615 5.01247,0 9.09941,-4.04768 8.70426,-9.07615 -0.64107,-8.15777 -9.82036,-14.06943 -14.76301,-14.10638 z m -56.523497,0.0554 c -0.511302,-0.004 -0.977204,0.0553 -1.383697,0.18121 -3.879881,1.20199 -1.261692,8.6494 -1.261692,13.92518 0,5.3645 4.218528,9.07615 8.70412,9.07615 5.012489,0 9.09942,-4.04768 8.704273,-9.07615 -0.641064,-8.15778 -9.820362,-14.06944 -14.763004,-14.10639 z M 42.18327,166.76647 c -1.587082,0 -2.876545,0.54546 -3.868463,1.63658 -0.991923,1.09112 -1.760707,2.52941 -2.306267,4.31487 -0.495961,1.78548 -0.843182,3.7198 -1.041566,5.80284 -0.198385,2.08305 -0.297503,4.11651 -0.297503,6.10036 0,1.98385 0.09912,4.04208 0.297503,6.17472 0.247983,2.13264 0.64476,4.11638 1.19032,5.95144 0.545561,1.83507 1.314336,3.32306 2.306265,4.46378 1.041521,1.14071 2.330982,1.71096 3.868465,1.71096 2.083043,0 3.521485,-0.54545 4.31502,-1.63658 0.793539,-1.14071 1.239878,-2.55422 1.339067,-4.2405 0.148794,-1.68627 0.223131,-3.39729 0.223131,-5.13316 0,-2.6286 0.396777,-4.73654 1.190316,-6.32363 0.793543,-1.63667 2.033442,-2.45501 3.719716,-2.45501 1.884659,0 3.198897,0.81834 3.942834,2.45501 0.743945,1.58709 1.115944,3.69503 1.115944,6.32363 0,1.73587 0.07449,3.47167 0.223282,5.20754 0.148785,1.68627 0.6199,3.09978 1.413446,4.24049 0.843137,1.09111 2.256642,1.63673 4.240501,1.63673 1.835052,0 3.248565,-0.54562 4.240493,-1.63673 1.041514,-1.14071 1.76059,-2.62856 2.15736,-4.46361 0.446368,-1.88466 0.66953,-3.96783 0.66953,-6.24926 0.0496,-4.46365 -0.495863,-8.38175 -1.636575,-11.75429 -1.091115,-3.42214 -2.85184,-6.10033 -5.282062,-8.03459 -2.430219,-1.93425 -5.554736,-2.90141 -9.373648,-2.90141 -1.686274,0 -3.199053,0.29765 -4.538154,0.89281 -1.289505,0.54556 -2.231742,1.14073 -2.826896,1.78547 -0.694351,-2.579 -2.455071,-3.86846 -5.282059,-3.86846 z m 61.1524,0.52064 c -1.88466,0 -3.347877,0.49605 -4.389396,1.48797 -0.991923,0.94234 -1.710991,2.18223 -2.157359,3.71972 -0.39677,1.53748 -0.644724,3.22371 -0.743908,5.05878 -0.04959,1.78546 -0.07438,3.54619 -0.07438,5.28206 0,2.57901 0.09912,5.08358 0.2975,7.5138 0.198395,2.43021 0.570386,4.58773 1.115947,6.47237 0.545557,1.88466 1.339119,3.39729 2.380638,4.538 1.091118,1.09111 2.479848,1.63673 4.166118,1.63673 1.78547,0 3.14927,-0.42155 4.0916,-1.26469 0.94233,-0.89274 1.58706,-2.03351 1.93423,-3.42222 0.39677,-1.3887 0.61994,-2.82697 0.66953,-4.31486 0.0992,-1.53748 0.14891,-2.951 0.14891,-4.2405 0,-2.4798 0.74385,-4.43892 2.23173,-5.87722 1.53748,-1.48788 3.22389,-2.23173 5.05892,-2.23173 0.69436,0 1.28938,0.0991 1.78535,0.2975 0.49595,0.19839 1.01679,0.42156 1.56234,0.66954 0.54555,0.19838 1.23984,0.29766 2.083,0.29766 1.93424,0 3.42224,-0.64473 4.46375,-1.93424 1.09112,-1.2895 1.63658,-2.65344 1.63658,-4.09174 0,-1.68628 -0.57023,-3.19891 -1.71094,-4.538 -1.14072,-1.3391 -2.52945,-2.38061 -4.16613,-3.12456 -1.63666,-0.79353 -3.24857,-1.19031 -4.83565,-1.19031 -1.88464,0 -3.71972,0.24795 -5.50518,0.74391 -1.73588,0.44638 -3.17416,1.19021 -4.31488,2.23174 -0.29757,-1.23991 -0.99185,-2.15737 -2.08298,-2.75252 -1.09112,-0.64476 -2.30624,-0.96719 -3.64534,-0.96719 z m -19.789019,3.57095 c -1.983851,0 -3.471704,0.57039 -4.463632,1.71111 -0.991923,1.09111 -1.66143,2.82691 -2.008605,5.20754 -0.297577,2.38062 -0.4464,5.4308 -0.4464,9.15052 0.04959,3.71971 0.2232,6.76991 0.520774,9.15052 0.347178,2.33103 0.991902,4.06698 1.934231,5.20769 0.991928,1.14072 2.479781,1.7111 4.463632,1.7111 1.983851,0 3.471696,-0.57038 4.463616,-1.7111 0.991928,-1.14071 1.661589,-2.87666 2.008764,-5.20769 0.347179,-2.38061 0.495856,-5.43081 0.446257,-9.15052 0,-3.71972 -0.173458,-6.7699 -0.520634,-9.15052 -0.347178,-2.38063 -1.016833,-4.11643 -2.008764,-5.20754 -0.942329,-1.14072 -2.405388,-1.71111 -4.389239,-1.71111 z m 56.242229,0 c -1.98387,0 -3.4717,0.57039 -4.46364,1.71111 -0.99192,1.09111 -1.66157,2.82691 -2.00875,5.20754 -0.29758,2.38062 -0.44626,5.4308 -0.44626,9.15052 0.0496,3.71971 0.22321,6.76991 0.52079,9.15052 0.34717,2.33103 0.99189,4.06698 1.93422,5.20769 0.99194,1.14072 2.47977,1.7111 4.46364,1.7111 1.98383,0 3.47169,-0.57038 4.46361,-1.7111 0.99193,-1.14071 1.6616,-2.87666 2.00876,-5.20769 0.34717,-2.38061 0.49585,-5.43081 0.44627,-9.15052 0,-3.71972 -0.17363,-6.7699 -0.52079,-9.15052 -0.34718,-2.38063 -1.01669,-4.11643 -2.0086,-5.20754 -0.94234,-1.14072 -2.40542,-1.71111 -4.38925,-1.71111 z" />
    </clipPath>
    <clipPath
       clipPathUnits="userSpaceOnUse"
       id="clipPath66-2">
      <path
         id="path67-0"
         style="fill:#1e97b5;fill-opacity:1;stroke-width:4.99999;stroke-dasharray:none"
         d="m 133.7982,143.67725 c -0.5113,-0.004 -0.97721,0.0553 -1.38368,0.1812 -3.8799,1.20201 -1.2617,8.6494 -1.2617,13.92518 0,5.36451 4.21853,9.07615 8.70413,9.07615 5.01247,0 9.09941,-4.04768 8.70426,-9.07615 -0.64107,-8.15777 -9.82036,-14.06943 -14.76301,-14.10638 z m -56.523497,0.0554 c -0.511302,-0.004 -0.977204,0.0553 -1.383697,0.18121 -3.879881,1.20199 -1.261692,8.6494 -1.261692,13.92518 0,5.3645 4.218528,9.07615 8.70412,9.07615 5.012489,0 9.09942,-4.04768 8.704273,-9.07615 -0.641064,-8.15778 -9.820362,-14.06944 -14.763004,-14.10639 z M 42.18327,166.76647 c -1.587082,0 -2.876545,0.54546 -3.868463,1.63658 -0.991923,1.09112 -1.760707,2.52941 -2.306267,4.31487 -0.495961,1.78548 -0.843182,3.7198 -1.041566,5.80284 -0.198385,2.08305 -0.297503,4.11651 -0.297503,6.10036 0,1.98385 0.09912,4.04208 0.297503,6.17472 0.247983,2.13264 0.64476,4.11638 1.19032,5.95144 0.545561,1.83507 1.314336,3.32306 2.306265,4.46378 1.041521,1.14071 2.330982,1.71096 3.868465,1.71096 2.083043,0 3.521485,-0.54545 4.31502,-1.63658 0.793539,-1.14071 1.239878,-2.55422 1.339067,-4.2405 0.148794,-1.68627 0.223131,-3.39729 0.223131,-5.13316 0,-2.6286 0.396777,-4.73654 1.190316,-6.32363 0.793543,-1.63667 2.033442,-2.45501 3.719716,-2.45501 1.884659,0 3.198897,0.81834 3.942834,2.45501 0.743945,1.58709 1.115944,3.69503 1.115944,6.32363 0,1.73587 0.07449,3.47167 0.223282,5.20754 0.148785,1.68627 0.6199,3.09978 1.413446,4.24049 0.843137,1.09111 2.256642,1.63673 4.240501,1.63673 1.835052,0 3.248565,-0.54562 4.240493,-1.63673 1.041514,-1.14071 1.76059,-2.62856 2.15736,-4.46361 0.446368,-1.88466 0.66953,-3.96783 0.66953,-6.24926 0.0496,-4.46365 -0.495863,-8.38175 -1.636575,-11.75429 -1.091115,-3.42214 -2.85184,-6.10033 -5.282062,-8.03459 -2.430219,-1.93425 -5.554736,-2.90141 -9.373648,-2.90141 -1.686274,0 -3.199053,0.29765 -4.538154,0.89281 -1.289505,0.54556 -2.231742,1.14073 -2.826896,1.78547 -0.694351,-2.579 -2.455071,-3.86846 -5.282059,-3.86846 z m 61.1524,0.52064 c -1.88466,0 -3.347877,0.49605 -4.389396,1.48797 -0.991923,0.94234 -1.710991,2.18223 -2.157359,3.71972 -0.39677,1.53748 -0.644724,3.22371 -0.743908,5.05878 -0.04959,1.78546 -0.07438,3.54619 -0.07438,5.28206 0,2.57901 0.09912,5.08358 0.2975,7.5138 0.198395,2.43021 0.570386,4.58773 1.115947,6.47237 0.545557,1.88466 1.339119,3.39729 2.380638,4.538 1.091118,1.09111 2.479848,1.63673 4.166118,1.63673 1.78547,0 3.14927,-0.42155 4.0916,-1.26469 0.94233,-0.89274 1.58706,-2.03351 1.93423,-3.42222 0.39677,-1.3887 0.61994,-2.82697 0.66953,-4.31486 0.0992,-1.53748 0.14891,-2.951 0.14891,-4.2405 0,-2.4798 0.74385,-4.43892 2.23173,-5.87722 1.53748,-1.48788 3.22389,-2.23173 5.05892,-2.23173 0.69436,0 1.28938,0.0991 1.78535,0.2975 0.49595,0.19839 1.01679,0.42156 1.56234,0.66954 0.54555,0.19838 1.23984,0.29766 2.083,0.29766 1.93424,0 3.42224,-0.64473 4.46375,-1.93424 1.09112,-1.2895 1.63658,-2.65344 1.63658,-4.09174 0,-1.68628 -0.57023,-3.19891 -1.71094,-4.538 -1.14072,-1.3391 -2.52945,-2.38061 -4.16613,-3.12456 -1.63666,-0.79353 -3.24857,-1.19031 -4.83565,-1.19031 -1.88464,0 -3.71972,0.24795 -5.50518,0.74391 -1.73588,0.44638 -3.17416,1.19021 -4.31488,2.23174 -0.29757,-1.23991 -0.99185,-2.15737 -2.08298,-2.75252 -1.09112,-0.64476 -2.30624,-0.96719 -3.64534,-0.96719 z m -19.789019,3.57095 c -1.983851,0 -3.471704,0.57039 -4.463632,1.71111 -0.991923,1.09111 -1.66143,2.82691 -2.008605,5.20754 -0.297577,2.38062 -0.4464,5.4308 -0.4464,9.15052 0.04959,3.71971 0.2232,6.76991 0.520774,9.15052 0.347178,2.33103 0.991902,4.06698 1.934231,5.20769 0.991928,1.14072 2.479781,1.7111 4.463632,1.7111 1.983851,0 3.471696,-0.57038 4.463616,-1.7111 0.991928,-1.14071 1.661589,-2.87666 2.008764,-5.20769 0.347179,-2.38061 0.495856,-5.43081 0.446257,-9.15052 0,-3.71972 -0.173458,-6.7699 -0.520634,-9.15052 -0.347178,-2.38063 -1.016833,-4.11643 -2.008764,-5.20754 -0.942329,-1.14072 -2.405388,-1.71111 -4.389239,-1.71111 z m 56.242229,0 c -1.98387,0 -3.4717,0.57039 -4.46364,1.71111 -0.99192,1.09111 -1.66157,2.82691 -2.00875,5.20754 -0.29758,2.38062 -0.44626,5.4308 -0.44626,9.15052 0.0496,3.71971 0.22321,6.76991 0.52079,9.15052 0.34717,2.33103 0.99189,4.06698 1.93422,5.20769 0.99194,1.14072 2.47977,1.7111 4.46364,1.7111 1.98383,0 3.47169,-0.57038 4.46361,-1.7111 0.99193,-1.14071 1.6616,-2.87666 2.00876,-5.20769 0.34717,-2.38061 0.49585,-5.43081 0.44627,-9.15052 0,-3.71972 -0.17363,-6.7699 -0.52079,-9.15052 -0.34718,-2.38063 -1.01669,-4.11643 -2.0086,-5.20754 -0.94234,-1.14072 -2.40542,-1.71111 -4.38925,-1.71111 z" />
    </clipPath>
    <inkscape:path-effect
       effect="fillet_chamfer"
       id="path-effect431-6"
       is_visible="true"
       lpeversion="1"
       nodesatellites_param="F,0,0,1,0,4.5,0,1 @ F,0,0,1,0,4.5,0,1 @ F,0,0,1,0,4.5,0,1 @ F,0,0,1,0,4.5,0,1"
       radius="10"
       unit="px"
       method="auto"
       mode="F"
       chamfer_steps="1"
       flexible="false"
       use_knot_distance="true"
       apply_no_radius="true"
       apply_with_radius="true"
       only_selected="false"
       hide_knots="false" />
    <linearGradient
       inkscape:collect="always"
       xlink:href="#linearGradient26"
       id="linearGradient431"
       gradientUnits="userSpaceOnUse"
       x1="138.81332"
       y1="202.39629"
       x2="138.78658"
       y2="199.49448" />
    <clipPath
       clipPathUnits="userSpaceOnUse"
       id="clipPath69-3">
      <path
         id="path70-5"
         style="fill:#1e97b5;fill-opacity:1;stroke-width:4.99999;stroke-dasharray:none"
         d="m 133.7982,143.67725 c -0.5113,-0.004 -0.97721,0.0553 -1.38368,0.1812 -3.8799,1.20201 -1.2617,8.6494 -1.2617,13.92518 0,5.36451 4.21853,9.07615 8.70413,9.07615 5.01247,0 9.09941,-4.04768 8.70426,-9.07615 -0.64107,-8.15777 -9.82036,-14.06943 -14.76301,-14.10638 z m -56.523497,0.0554 c -0.511302,-0.004 -0.977204,0.0553 -1.383697,0.18121 -3.879881,1.20199 -1.261692,8.6494 -1.261692,13.92518 0,5.3645 4.218528,9.07615 8.70412,9.07615 5.012489,0 9.09942,-4.04768 8.704273,-9.07615 -0.641064,-8.15778 -9.820362,-14.06944 -14.763004,-14.10639 z M 42.18327,166.76647 c -1.587082,0 -2.876545,0.54546 -3.868463,1.63658 -0.991923,1.09112 -1.760707,2.52941 -2.306267,4.31487 -0.495961,1.78548 -0.843182,3.7198 -1.041566,5.80284 -0.198385,2.08305 -0.297503,4.11651 -0.297503,6.10036 0,1.98385 0.09912,4.04208 0.297503,6.17472 0.247983,2.13264 0.64476,4.11638 1.19032,5.95144 0.545561,1.83507 1.314336,3.32306 2.306265,4.46378 1.041521,1.14071 2.330982,1.71096 3.868465,1.71096 2.083043,0 3.521485,-0.54545 4.31502,-1.63658 0.793539,-1.14071 1.239878,-2.55422 1.339067,-4.2405 0.148794,-1.68627 0.223131,-3.39729 0.223131,-5.13316 0,-2.6286 0.396777,-4.73654 1.190316,-6.32363 0.793543,-1.63667 2.033442,-2.45501 3.719716,-2.45501 1.884659,0 3.198897,0.81834 3.942834,2.45501 0.743945,1.58709 1.115944,3.69503 1.115944,6.32363 0,1.73587 0.07449,3.47167 0.223282,5.20754 0.148785,1.68627 0.6199,3.09978 1.413446,4.24049 0.843137,1.09111 2.256642,1.63673 4.240501,1.63673 1.835052,0 3.248565,-0.54562 4.240493,-1.63673 1.041514,-1.14071 1.76059,-2.62856 2.15736,-4.46361 0.446368,-1.88466 0.66953,-3.96783 0.66953,-6.24926 0.0496,-4.46365 -0.495863,-8.38175 -1.636575,-11.75429 -1.091115,-3.42214 -2.85184,-6.10033 -5.282062,-8.03459 -2.430219,-1.93425 -5.554736,-2.90141 -9.373648,-2.90141 -1.686274,0 -3.199053,0.29765 -4.538154,0.89281 -1.289505,0.54556 -2.231742,1.14073 -2.826896,1.78547 -0.694351,-2.579 -2.455071,-3.86846 -5.282059,-3.86846 z m 61.1524,0.52064 c -1.88466,0 -3.347877,0.49605 -4.389396,1.48797 -0.991923,0.94234 -1.710991,2.18223 -2.157359,3.71972 -0.39677,1.53748 -0.644724,3.22371 -0.743908,5.05878 -0.04959,1.78546 -0.07438,3.54619 -0.07438,5.28206 0,2.57901 0.09912,5.08358 0.2975,7.5138 0.198395,2.43021 0.570386,4.58773 1.115947,6.47237 0.545557,1.88466 1.339119,3.39729 2.380638,4.538 1.091118,1.09111 2.479848,1.63673 4.166118,1.63673 1.78547,0 3.14927,-0.42155 4.0916,-1.26469 0.94233,-0.89274 1.58706,-2.03351 1.93423,-3.42222 0.39677,-1.3887 0.61994,-2.82697 0.66953,-4.31486 0.0992,-1.53748 0.14891,-2.951 0.14891,-4.2405 0,-2.4798 0.74385,-4.43892 2.23173,-5.87722 1.53748,-1.48788 3.22389,-2.23173 5.05892,-2.23173 0.69436,0 1.28938,0.0991 1.78535,0.2975 0.49595,0.19839 1.01679,0.42156 1.56234,0.66954 0.54555,0.19838 1.23984,0.29766 2.083,0.29766 1.93424,0 3.42224,-0.64473 4.46375,-1.93424 1.09112,-1.2895 1.63658,-2.65344 1.63658,-4.09174 0,-1.68628 -0.57023,-3.19891 -1.71094,-4.538 -1.14072,-1.3391 -2.52945,-2.38061 -4.16613,-3.12456 -1.63666,-0.79353 -3.24857,-1.19031 -4.83565,-1.19031 -1.88464,0 -3.71972,0.24795 -5.50518,0.74391 -1.73588,0.44638 -3.17416,1.19021 -4.31488,2.23174 -0.29757,-1.23991 -0.99185,-2.15737 -2.08298,-2.75252 -1.09112,-0.64476 -2.30624,-0.96719 -3.64534,-0.96719 z m -19.789019,3.57095 c -1.983851,0 -3.471704,0.57039 -4.463632,1.71111 -0.991923,1.09111 -1.66143,2.82691 -2.008605,5.20754 -0.297577,2.38062 -0.4464,5.4308 -0.4464,9.15052 0.04959,3.71971 0.2232,6.76991 0.520774,9.15052 0.347178,2.33103 0.991902,4.06698 1.934231,5.20769 0.991928,1.14072 2.479781,1.7111 4.463632,1.7111 1.983851,0 3.471696,-0.57038 4.463616,-1.7111 0.991928,-1.14071 1.661589,-2.87666 2.008764,-5.20769 0.347179,-2.38061 0.495856,-5.43081 0.446257,-9.15052 0,-3.71972 -0.173458,-6.7699 -0.520634,-9.15052 -0.347178,-2.38063 -1.016833,-4.11643 -2.008764,-5.20754 -0.942329,-1.14072 -2.405388,-1.71111 -4.389239,-1.71111 z m 56.242229,0 c -1.98387,0 -3.4717,0.57039 -4.46364,1.71111 -0.99192,1.09111 -1.66157,2.82691 -2.00875,5.20754 -0.29758,2.38062 -0.44626,5.4308 -0.44626,9.15052 0.0496,3.71971 0.22321,6.76991 0.52079,9.15052 0.34717,2.33103 0.99189,4.06698 1.93422,5.20769 0.99194,1.14072 2.47977,1.7111 4.46364,1.7111 1.98383,0 3.47169,-0.57038 4.46361,-1.7111 0.99193,-1.14071 1.6616,-2.87666 2.00876,-5.20769 0.34717,-2.38061 0.49585,-5.43081 0.44627,-9.15052 0,-3.71972 -0.17363,-6.7699 -0.52079,-9.15052 -0.34718,-2.38063 -1.01669,-4.11643 -2.0086,-5.20754 -0.94234,-1.14072 -2.40542,-1.71111 -4.38925,-1.71111 z" />
    </clipPath>
    <linearGradient
       inkscape:collect="always"
       xlink:href="#linearGradient28"
       id="linearGradient432"
       gradientUnits="userSpaceOnUse"
       x1="130.40457"
       y1="164.66142"
       x2="130.02942"
       y2="178.17606" />
    <clipPath
       clipPathUnits="userSpaceOnUse"
       id="clipPath66-91">
      <path
         id="path67-2"
         style="fill:#1e97b5;fill-opacity:1;stroke-width:4.99999;stroke-dasharray:none"
         d="m 133.7982,143.67725 c -0.5113,-0.004 -0.97721,0.0553 -1.38368,0.1812 -3.8799,1.20201 -1.2617,8.6494 -1.2617,13.92518 0,5.36451 4.21853,9.07615 8.70413,9.07615 5.01247,0 9.09941,-4.04768 8.70426,-9.07615 -0.64107,-8.15777 -9.82036,-14.06943 -14.76301,-14.10638 z m -56.523497,0.0554 c -0.511302,-0.004 -0.977204,0.0553 -1.383697,0.18121 -3.879881,1.20199 -1.261692,8.6494 -1.261692,13.92518 0,5.3645 4.218528,9.07615 8.70412,9.07615 5.012489,0 9.09942,-4.04768 8.704273,-9.07615 -0.641064,-8.15778 -9.820362,-14.06944 -14.763004,-14.10639 z M 42.18327,166.76647 c -1.587082,0 -2.876545,0.54546 -3.868463,1.63658 -0.991923,1.09112 -1.760707,2.52941 -2.306267,4.31487 -0.495961,1.78548 -0.843182,3.7198 -1.041566,5.80284 -0.198385,2.08305 -0.297503,4.11651 -0.297503,6.10036 0,1.98385 0.09912,4.04208 0.297503,6.17472 0.247983,2.13264 0.64476,4.11638 1.19032,5.95144 0.545561,1.83507 1.314336,3.32306 2.306265,4.46378 1.041521,1.14071 2.330982,1.71096 3.868465,1.71096 2.083043,0 3.521485,-0.54545 4.31502,-1.63658 0.793539,-1.14071 1.239878,-2.55422 1.339067,-4.2405 0.148794,-1.68627 0.223131,-3.39729 0.223131,-5.13316 0,-2.6286 0.396777,-4.73654 1.190316,-6.32363 0.793543,-1.63667 2.033442,-2.45501 3.719716,-2.45501 1.884659,0 3.198897,0.81834 3.942834,2.45501 0.743945,1.58709 1.115944,3.69503 1.115944,6.32363 0,1.73587 0.07449,3.47167 0.223282,5.20754 0.148785,1.68627 0.6199,3.09978 1.413446,4.24049 0.843137,1.09111 2.256642,1.63673 4.240501,1.63673 1.835052,0 3.248565,-0.54562 4.240493,-1.63673 1.041514,-1.14071 1.76059,-2.62856 2.15736,-4.46361 0.446368,-1.88466 0.66953,-3.96783 0.66953,-6.24926 0.0496,-4.46365 -0.495863,-8.38175 -1.636575,-11.75429 -1.091115,-3.42214 -2.85184,-6.10033 -5.282062,-8.03459 -2.430219,-1.93425 -5.554736,-2.90141 -9.373648,-2.90141 -1.686274,0 -3.199053,0.29765 -4.538154,0.89281 -1.289505,0.54556 -2.231742,1.14073 -2.826896,1.78547 -0.694351,-2.579 -2.455071,-3.86846 -5.282059,-3.86846 z m 61.1524,0.52064 c -1.88466,0 -3.347877,0.49605 -4.389396,1.48797 -0.991923,0.94234 -1.710991,2.18223 -2.157359,3.71972 -0.39677,1.53748 -0.644724,3.22371 -0.743908,5.05878 -0.04959,1.78546 -0.07438,3.54619 -0.07438,5.28206 0,2.57901 0.09912,5.08358 0.2975,7.5138 0.198395,2.43021 0.570386,4.58773 1.115947,6.47237 0.545557,1.88466 1.339119,3.39729 2.380638,4.538 1.091118,1.09111 2.479848,1.63673 4.166118,1.63673 1.78547,0 3.14927,-0.42155 4.0916,-1.26469 0.94233,-0.89274 1.58706,-2.03351 1.93423,-3.42222 0.39677,-1.3887 0.61994,-2.82697 0.66953,-4.31486 0.0992,-1.53748 0.14891,-2.951 0.14891,-4.2405 0,-2.4798 0.74385,-4.43892 2.23173,-5.87722 1.53748,-1.48788 3.22389,-2.23173 5.05892,-2.23173 0.69436,0 1.28938,0.0991 1.78535,0.2975 0.49595,0.19839 1.01679,0.42156 1.56234,0.66954 0.54555,0.19838 1.23984,0.29766 2.083,0.29766 1.93424,0 3.42224,-0.64473 4.46375,-1.93424 1.09112,-1.2895 1.63658,-2.65344 1.63658,-4.09174 0,-1.68628 -0.57023,-3.19891 -1.71094,-4.538 -1.14072,-1.3391 -2.52945,-2.38061 -4.16613,-3.12456 -1.63666,-0.79353 -3.24857,-1.19031 -4.83565,-1.19031 -1.88464,0 -3.71972,0.24795 -5.50518,0.74391 -1.73588,0.44638 -3.17416,1.19021 -4.31488,2.23174 -0.29757,-1.23991 -0.99185,-2.15737 -2.08298,-2.75252 -1.09112,-0.64476 -2.30624,-0.96719 -3.64534,-0.96719 z m -19.789019,3.57095 c -1.983851,0 -3.471704,0.57039 -4.463632,1.71111 -0.991923,1.09111 -1.66143,2.82691 -2.008605,5.20754 -0.297577,2.38062 -0.4464,5.4308 -0.4464,9.15052 0.04959,3.71971 0.2232,6.76991 0.520774,9.15052 0.347178,2.33103 0.991902,4.06698 1.934231,5.20769 0.991928,1.14072 2.479781,1.7111 4.463632,1.7111 1.983851,0 3.471696,-0.57038 4.463616,-1.7111 0.991928,-1.14071 1.661589,-2.87666 2.008764,-5.20769 0.347179,-2.38061 0.495856,-5.43081 0.446257,-9.15052 0,-3.71972 -0.173458,-6.7699 -0.520634,-9.15052 -0.347178,-2.38063 -1.016833,-4.11643 -2.008764,-5.20754 -0.942329,-1.14072 -2.405388,-1.71111 -4.389239,-1.71111 z m 56.242229,0 c -1.98387,0 -3.4717,0.57039 -4.46364,1.71111 -0.99192,1.09111 -1.66157,2.82691 -2.00875,5.20754 -0.29758,2.38062 -0.44626,5.4308 -0.44626,9.15052 0.0496,3.71971 0.22321,6.76991 0.52079,9.15052 0.34717,2.33103 0.99189,4.06698 1.93422,5.20769 0.99194,1.14072 2.47977,1.7111 4.46364,1.7111 1.98383,0 3.47169,-0.57038 4.46361,-1.7111 0.99193,-1.14071 1.6616,-2.87666 2.00876,-5.20769 0.34717,-2.38061 0.49585,-5.43081 0.44627,-9.15052 0,-3.71972 -0.17363,-6.7699 -0.52079,-9.15052 -0.34718,-2.38063 -1.01669,-4.11643 -2.0086,-5.20754 -0.94234,-1.14072 -2.40542,-1.71111 -4.38925,-1.71111 z" />
    </clipPath>
  </defs>
  <g
     id="layer1"
     transform="translate(0,-75.112854)">
    <g
       id="g23"
       transform="matrix(1.2878679,0,0,1.2878679,108.67383,-67.743803)"
       inkscape:label="new logos">
      <g
         id="g427"
         transform="translate(-100.10857,-47.187792)"
         inkscape:label="dark icon">
        <path
           id="path415"
           style="display:inline;fill:#d8d8d8;fill-opacity:1;stroke:#762530;stroke-width:0;stroke-linecap:round;stroke-linejoin:round"
           d="m 16.120526,199.24072 h 15.842083 a 4.5,4.5 45 0 1 4.5,4.5 v 15.84209 a 4.5,4.5 135 0 1 -4.5,4.5 H 16.120526 a 4.5,4.5 45 0 1 -4.5,-4.5 v -15.84209 a 4.5,4.5 135 0 1 4.5,-4.5 z"
           inkscape:path-effect="#path-effect431-6"
           inkscape:original-d="m 11.620526,199.24072 h 24.842083 v 24.84209 H 11.620526 Z"
           transform="translate(4.0836302,-41.127996)"
           inkscape:label="dark icon background"
           sodipodi:nodetypes="ccccc" />
        <ellipse
           style="fill:#d8d8d8;fill-opacity:1;stroke:#762530;stroke-width:0;stroke-linecap:round;stroke-linejoin:round"
           id="ellipse415"
           cx="28.125198"
           cy="170.53377"
           rx="12.421041"
           ry="12.421045"
           inkscape:label="dark icon circle" />
        <g
           id="g432"
           transform="translate(0.05279893,0.51129433)">
          <g
             id="g420"
             transform="matrix(0.89009573,0,0,0.89009573,6.7548834,-17.728307)">
            <path
               id="path416"
               style="fill:#1d1d1d;fill-opacity:1;stroke-width:0.0677574"
               d="m 21.184535,201.55142 c -1.08744,0.0305 -2.190744,0.71608 -2.481256,1.80512 -0.444618,1.41827 -0.08027,2.91251 0.05408,4.35012 0.122874,0.90709 0.100854,1.8286 0.236165,2.73236 0.327127,1.74088 1.550829,3.38889 3.211379,3.93431 1.660551,0.54542 3.255413,0.47372 4.6047,-0.32256 1.657207,-0.93847 2.771707,-2.84414 2.579034,-4.76619 -0.07254,-2.34114 -1.392703,-4.51853 -3.237988,-5.91057 -1.401078,-1.09486 -3.149918,-1.9293 -4.96611,-1.82259 z"
               sodipodi:nodetypes="sccczcccss"
               transform="translate(-1.1257044e-6)" />
            <g
               id="g419">
              <path
                 d="m 21.282558,201.91524 c -0.912596,-0.0186 -1.754635,0.71479 -1.843558,1.62783 -0.281562,1.57983 0.21637,3.1559 0.278015,4.73309 0.0396,0.95573 0.05451,1.97164 0.540078,2.8356 0.797558,1.60417 2.589896,2.67765 4.389751,2.5067 1.87359,-0.13258 3.633061,-1.51515 4.042611,-3.37644 0.414771,-1.86671 -0.38616,-3.79588 -1.589091,-5.20633 -1.261983,-1.4901 -2.989985,-2.6333 -4.909319,-3.04981 -0.298844,-0.0557 -0.604372,-0.0835 -0.908487,-0.0706 z"
                 style="fill:#1e97b5;fill-opacity:1;stroke-width:0.0677574"
                 id="path417"
                 sodipodi:nodetypes="scccccccss" />
              <path
                 d="m 21.678885,203.66447 c -0.218722,-0.002 -0.41821,0.0234 -0.592092,0.0772 -1.659731,0.5142 -0.539478,3.70055 -0.539478,5.95741 0,2.2948 1.804892,3.88226 3.723727,3.88226 2.144221,0 3.892062,-1.73121 3.723026,-3.88226 -0.27423,-3.48971 -4.200837,-6.01871 -6.315183,-6.03458 z"
                 style="fill:#4bacc4;fill-opacity:1;stroke-width:2.13888"
                 id="path418" />
              <path
                 d="m 22.258373,206.47092 c -1.20628,0.37371 -0.392268,2.68913 -0.392268,4.32939 0,1.66784 1.311557,2.8218 2.706146,2.8218 1.558395,0 2.82904,-1.25843 2.706185,-2.8218 -0.199309,-2.53628 -3.053186,-4.37424 -4.58987,-4.38572 z"
                 style="fill:#78c1d3;fill-opacity:1;stroke-width:1.55452;stroke-dasharray:none"
                 id="path419" />
            </g>
          </g>
          <g
             id="g426"
             transform="matrix(0.89009573,0,0,0.89009573,6.7937761,-17.728306)">
            <g
               id="g425">
              <path
                 id="path420"
                 style="fill:#1d1d1d;fill-opacity:1;stroke-width:1.75093"
                 d="m 23.729153,213.80715 c -1.581757,-0.0124 -3.384821,0.83786 -3.755547,2.50265 -0.472614,1.52731 0.546973,3.1908 2.026265,3.66993 1.660231,0.53519 3.657315,0.51088 5.118024,-0.5312 1.365957,-1.03902 1.562194,-3.26646 0.320736,-4.47863 -0.962586,-0.96705 -2.391841,-1.24539 -3.709478,-1.16275 z" />
              <path
                 id="path421"
                 style="fill:#156a7f;fill-opacity:1;stroke-width:1.71913"
                 d="m 23.945601,214.44988 c -1.401915,0.01 -2.578366,0.69319 -2.915406,1.53314 -0.510427,1.10628 -0.283751,2.49916 1.271989,3.23273 1.540599,0.61926 4.028247,0.43404 4.886831,-0.67852 0.653449,-0.7935 0.740393,-1.7762 0.310183,-2.623 -0.403964,-0.83982 -1.643353,-1.50506 -3.067741,-1.46852 -0.161968,-0.007 -0.323909,0.002 -0.485856,0.004 z" />
              <g
                 id="g424"
                 transform="matrix(1.0984993,0,0,1.0985222,-2.3379899,-20.516307)">
                <path
                   d="m 24.522868,213.86471 c -0.849887,0 -1.487411,0.15499 -1.912355,0.46443 -0.424942,0.29597 -0.683914,0.77804 -0.758664,1.09183 -0.07475,0.3138 -0.09325,0.81665 -0.02196,1.08719 0.105312,0.39959 0.376927,0.74564 0.780621,1.05507 0.424944,0.30943 1.062468,0.46398 1.912355,0.46398 0.849879,0 1.487417,-0.15455 1.912356,-0.46398 0.424939,-0.30943 0.715692,-0.77647 0.763719,-1.18893 0.04803,-0.41246 0.08962,-0.70299 -0.0158,-1.03057 -0.105421,-0.32756 -0.354602,-0.71862 -0.779536,-1.01459 -0.403696,-0.30944 -1.030863,-0.46443 -1.880741,-0.46443 z"
                   style="fill:#1e97b5;stroke-width:1.70447"
                   id="path422"
                   sodipodi:nodetypes="sczscsszzcs" />
                <path
                   style="fill:url(#linearGradient431);fill-opacity:1;stroke:none;stroke-width:14;stroke-linecap:round;stroke-linejoin:round;stroke-dasharray:none;stroke-opacity:1"
                   d="m 133.29664,196.76882 c 3.52911,5.3132 8.19412,6.59247 14.38683,-0.56796 l 2.80548,16.75871 c -22.89026,-7.24949 -20.92262,-14.91968 -17.19231,-16.19075 z"
                   id="path423"
                   clip-path="url(#clipPath69-3)"
                   transform="matrix(0.42840096,0,0,0.27126141,-35.359963,162.96227)"
                   sodipodi:nodetypes="cccc" />
                <path
                   id="path424"
                   clip-path="url(#clipPath66-91)"
                   style="fill:url(#linearGradient432);fill-opacity:1;stroke:none;stroke-width:14;stroke-linecap:round;stroke-linejoin:round;stroke-dasharray:none;stroke-opacity:1"
                   d="m 131.09226,172.7724 0.37258,4.43229 c 4.70764,-4.47543 9.33858,-7.26585 15.61042,-1.55443 l 0.69453,-5.25859 -16.93333,-0.66146 0.0718,0.85473 z"
                   transform="matrix(0.42840096,0,0,0.27126141,-35.359963,167.51755)"
                   sodipodi:nodetypes="ccccccc" />
              </g>
            </g>
          </g>
        </g>
      </g>
    </g>
  </g>
</svg>
