<?xml version="1.0" encoding="UTF-8" standalone="no"?>
<svg
   id="niri-svg"
   width="141.95399"
   height="77.037003"
   viewBox="0 0 70.976998 38.585824"
   version="1.1"
   sodipodi:docname="processed.svg"
   inkscape:version="1.4.2 (ebf0e940d0, 2025-05-08)"
   xmlns:inkscape="http://www.inkscape.org/namespaces/inkscape"
   xmlns:sodipodi="http://sodipodi.sourceforge.net/DTD/sodipodi-0.dtd"
   xmlns:xlink="http://www.w3.org/1999/xlink"
   xmlns="http://www.w3.org/2000/svg"
   xmlns:svg="http://www.w3.org/2000/svg">
  <sodipodi:namedview
     id="namedview9"
     pagecolor="#505050"
     bordercolor="#eeeeee"
     borderopacity="1"
     inkscape:showpageshadow="0"
     inkscape:pageopacity="0"
     inkscape:pagecheckerboard="0"
     inkscape:deskcolor="#505050"
     inkscape:zoom="256"
     inkscape:cx="142.31836"
     inkscape:cy="76.998047"
     inkscape:window-width="2464"
     inkscape:window-height="1412"
     inkscape:window-x="0"
     inkscape:window-y="0"
     inkscape:window-maximized="0"
     inkscape:current-layer="layer1" />
  <style
     id="svg-style">
:root {
--color-main: #1e97b5;
--color-dark: #0c3c48;
--color-light: #a5d5e1;
--color-highlight: #40a7c0;
--color-contour: #1a809a;
--color-shadow: #156a7f;
--color-flame-small: #78c1d3;
--color-flame-large: #4bacc4;
}
</style>
  <defs
     id="defs1">
    <linearGradient
       id="linearGradient28">
      <stop
         style="stop-color:#40a7c0;stop-opacity:1;"
         offset="0"
         id="stop27" />
      <stop
         style="stop-color:#1e97b5;stop-opacity:1;"
         offset="1"
         id="stop28" />
    </linearGradient>
    <linearGradient
       id="linearGradient26">
      <stop
         style="stop-color:#1a809a;stop-opacity:1;"
         offset="0"
         id="stop25" />
      <stop
         style="stop-color:#1e97b5;stop-opacity:1;"
         offset="1"
         id="stop26" />
    </linearGradient>
    <linearGradient
       id="linearGradient7">
      <stop
         style="stop-color:#1a809a;stop-opacity:1;"
         offset="0"
         id="stop6" />
      <stop
         style="stop-color:#1e97b5;stop-opacity:1;"
         offset="1"
         id="stop7" />
    </linearGradient>
    <linearGradient
       id="linearGradient5">
      <stop
         style="stop-color:#40a7c0;stop-opacity:1;"
         offset="0"
         id="stop4" />
      <stop
         style="stop-color:#1e97b5;stop-opacity:1;"
         offset="1"
         id="stop5" />
    </linearGradient>
    <linearGradient
       xlink:href="#linearGradient7"
       id="linearGradient146"
       gradientUnits="userSpaceOnUse"
       x1="101.37057"
       y1="202.59308"
       x2="101.34383"
       y2="199.69127" />
    <linearGradient
       id="linearGradient70">
      <stop
         style="stop-color:#1a809a;stop-opacity:1;"
         offset="0"
         id="stop70" />
      <stop
         style="stop-color:#1a809a;stop-opacity:0;"
         offset="1"
         id="stop71" />
    </linearGradient>
    <clipPath
       clipPathUnits="userSpaceOnUse"
       id="clipPath69">
      <path
         id="path70"
         style="fill:#1e97b5;fill-opacity:1;stroke-width:4.99999;stroke-dasharray:none"
         d="m 133.7982,143.67725 c -0.5113,-0.004 -0.97721,0.0553 -1.38368,0.1812 -3.8799,1.20201 -1.2617,8.6494 -1.2617,13.92518 0,5.36451 4.21853,9.07615 8.70413,9.07615 5.01247,0 9.09941,-4.04768 8.70426,-9.07615 -0.64107,-8.15777 -9.82036,-14.06943 -14.76301,-14.10638 z m -56.523497,0.0554 c -0.511302,-0.004 -0.977204,0.0553 -1.383697,0.18121 -3.879881,1.20199 -1.261692,8.6494 -1.261692,13.92518 0,5.3645 4.218528,9.07615 8.70412,9.07615 5.012489,0 9.09942,-4.04768 8.704273,-9.07615 -0.641064,-8.15778 -9.820362,-14.06944 -14.763004,-14.10639 z M 42.18327,166.76647 c -1.587082,0 -2.876545,0.54546 -3.868463,1.63658 -0.991923,1.09112 -1.760707,2.52941 -2.306267,4.31487 -0.495961,1.78548 -0.843182,3.7198 -1.041566,5.80284 -0.198385,2.08305 -0.297503,4.11651 -0.297503,6.10036 0,1.98385 0.09912,4.04208 0.297503,6.17472 0.247983,2.13264 0.64476,4.11638 1.19032,5.95144 0.545561,1.83507 1.314336,3.32306 2.306265,4.46378 1.041521,1.14071 2.330982,1.71096 3.868465,1.71096 2.083043,0 3.521485,-0.54545 4.31502,-1.63658 0.793539,-1.14071 1.239878,-2.55422 1.339067,-4.2405 0.148794,-1.68627 0.223131,-3.39729 0.223131,-5.13316 0,-2.6286 0.396777,-4.73654 1.190316,-6.32363 0.793543,-1.63667 2.033442,-2.45501 3.719716,-2.45501 1.884659,0 3.198897,0.81834 3.942834,2.45501 0.743945,1.58709 1.115944,3.69503 1.115944,6.32363 0,1.73587 0.07449,3.47167 0.223282,5.20754 0.148785,1.68627 0.6199,3.09978 1.413446,4.24049 0.843137,1.09111 2.256642,1.63673 4.240501,1.63673 1.835052,0 3.248565,-0.54562 4.240493,-1.63673 1.041514,-1.14071 1.76059,-2.62856 2.15736,-4.46361 0.446368,-1.88466 0.66953,-3.96783 0.66953,-6.24926 0.0496,-4.46365 -0.495863,-8.38175 -1.636575,-11.75429 -1.091115,-3.42214 -2.85184,-6.10033 -5.282062,-8.03459 -2.430219,-1.93425 -5.554736,-2.90141 -9.373648,-2.90141 -1.686274,0 -3.199053,0.29765 -4.538154,0.89281 -1.289505,0.54556 -2.231742,1.14073 -2.826896,1.78547 -0.694351,-2.579 -2.455071,-3.86846 -5.282059,-3.86846 z m 61.1524,0.52064 c -1.88466,0 -3.347877,0.49605 -4.389396,1.48797 -0.991923,0.94234 -1.710991,2.18223 -2.157359,3.71972 -0.39677,1.53748 -0.644724,3.22371 -0.743908,5.05878 -0.04959,1.78546 -0.07438,3.54619 -0.07438,5.28206 0,2.57901 0.09912,5.08358 0.2975,7.5138 0.198395,2.43021 0.570386,4.58773 1.115947,6.47237 0.545557,1.88466 1.339119,3.39729 2.380638,4.538 1.091118,1.09111 2.479848,1.63673 4.166118,1.63673 1.78547,0 3.14927,-0.42155 4.0916,-1.26469 0.94233,-0.89274 1.58706,-2.03351 1.93423,-3.42222 0.39677,-1.3887 0.61994,-2.82697 0.66953,-4.31486 0.0992,-1.53748 0.14891,-2.951 0.14891,-4.2405 0,-2.4798 0.74385,-4.43892 2.23173,-5.87722 1.53748,-1.48788 3.22389,-2.23173 5.05892,-2.23173 0.69436,0 1.28938,0.0991 1.78535,0.2975 0.49595,0.19839 1.01679,0.42156 1.56234,0.66954 0.54555,0.19838 1.23984,0.29766 2.083,0.29766 1.93424,0 3.42224,-0.64473 4.46375,-1.93424 1.09112,-1.2895 1.63658,-2.65344 1.63658,-4.09174 0,-1.68628 -0.57023,-3.19891 -1.71094,-4.538 -1.14072,-1.3391 -2.52945,-2.38061 -4.16613,-3.12456 -1.63666,-0.79353 -3.24857,-1.19031 -4.83565,-1.19031 -1.88464,0 -3.71972,0.24795 -5.50518,0.74391 -1.73588,0.44638 -3.17416,1.19021 -4.31488,2.23174 -0.29757,-1.23991 -0.99185,-2.15737 -2.08298,-2.75252 -1.09112,-0.64476 -2.30624,-0.96719 -3.64534,-0.96719 z m -19.789019,3.57095 c -1.983851,0 -3.471704,0.57039 -4.463632,1.71111 -0.991923,1.09111 -1.66143,2.82691 -2.008605,5.20754 -0.297577,2.38062 -0.4464,5.4308 -0.4464,9.15052 0.04959,3.71971 0.2232,6.76991 0.520774,9.15052 0.347178,2.33103 0.991902,4.06698 1.934231,5.20769 0.991928,1.14072 2.479781,1.7111 4.463632,1.7111 1.983851,0 3.471696,-0.57038 4.463616,-1.7111 0.991928,-1.14071 1.661589,-2.87666 2.008764,-5.20769 0.347179,-2.38061 0.495856,-5.43081 0.446257,-9.15052 0,-3.71972 -0.173458,-6.7699 -0.520634,-9.15052 -0.347178,-2.38063 -1.016833,-4.11643 -2.008764,-5.20754 -0.942329,-1.14072 -2.405388,-1.71111 -4.389239,-1.71111 z m 56.242229,0 c -1.98387,0 -3.4717,0.57039 -4.46364,1.71111 -0.99192,1.09111 -1.66157,2.82691 -2.00875,5.20754 -0.29758,2.38062 -0.44626,5.4308 -0.44626,9.15052 0.0496,3.71971 0.22321,6.76991 0.52079,9.15052 0.34717,2.33103 0.99189,4.06698 1.93422,5.20769 0.99194,1.14072 2.47977,1.7111 4.46364,1.7111 1.98383,0 3.47169,-0.57038 4.46361,-1.7111 0.99193,-1.14071 1.6616,-2.87666 2.00876,-5.20769 0.34717,-2.38061 0.49585,-5.43081 0.44627,-9.15052 0,-3.71972 -0.17363,-6.7699 -0.52079,-9.15052 -0.34718,-2.38063 -1.01669,-4.11643 -2.0086,-5.20754 -0.94234,-1.14072 -2.40542,-1.71111 -4.38925,-1.71111 z" />
    </clipPath>
    <linearGradient
       xlink:href="#linearGradient70"
       id="linearGradient147"
       gradientUnits="userSpaceOnUse"
       x1="53.549301"
       y1="186.30927"
       x2="53.810921"
       y2="180.57967" />
    <clipPath
       clipPathUnits="userSpaceOnUse"
       id="clipPath68">
      <path
         id="path69"
         style="fill:#1e97b5;fill-opacity:1;stroke-width:4.99999;stroke-dasharray:none"
         d="m 133.7982,143.67725 c -0.5113,-0.004 -0.97721,0.0553 -1.38368,0.1812 -3.8799,1.20201 -1.2617,8.6494 -1.2617,13.92518 0,5.36451 4.21853,9.07615 8.70413,9.07615 5.01247,0 9.09941,-4.04768 8.70426,-9.07615 -0.64107,-8.15777 -9.82036,-14.06943 -14.76301,-14.10638 z m -56.523497,0.0554 c -0.511302,-0.004 -0.977204,0.0553 -1.383697,0.18121 -3.879881,1.20199 -1.261692,8.6494 -1.261692,13.92518 0,5.3645 4.218528,9.07615 8.70412,9.07615 5.012489,0 9.09942,-4.04768 8.704273,-9.07615 -0.641064,-8.15778 -9.820362,-14.06944 -14.763004,-14.10639 z M 42.18327,166.76647 c -1.587082,0 -2.876545,0.54546 -3.868463,1.63658 -0.991923,1.09112 -1.760707,2.52941 -2.306267,4.31487 -0.495961,1.78548 -0.843182,3.7198 -1.041566,5.80284 -0.198385,2.08305 -0.297503,4.11651 -0.297503,6.10036 0,1.98385 0.09912,4.04208 0.297503,6.17472 0.247983,2.13264 0.64476,4.11638 1.19032,5.95144 0.545561,1.83507 1.314336,3.32306 2.306265,4.46378 1.041521,1.14071 2.330982,1.71096 3.868465,1.71096 2.083043,0 3.521485,-0.54545 4.31502,-1.63658 0.793539,-1.14071 1.239878,-2.55422 1.339067,-4.2405 0.148794,-1.68627 0.223131,-3.39729 0.223131,-5.13316 0,-2.6286 0.396777,-4.73654 1.190316,-6.32363 0.793543,-1.63667 2.033442,-2.45501 3.719716,-2.45501 1.884659,0 3.198897,0.81834 3.942834,2.45501 0.743945,1.58709 1.115944,3.69503 1.115944,6.32363 0,1.73587 0.07449,3.47167 0.223282,5.20754 0.148785,1.68627 0.6199,3.09978 1.413446,4.24049 0.843137,1.09111 2.256642,1.63673 4.240501,1.63673 1.835052,0 3.248565,-0.54562 4.240493,-1.63673 1.041514,-1.14071 1.76059,-2.62856 2.15736,-4.46361 0.446368,-1.88466 0.66953,-3.96783 0.66953,-6.24926 0.0496,-4.46365 -0.495863,-8.38175 -1.636575,-11.75429 -1.091115,-3.42214 -2.85184,-6.10033 -5.282062,-8.03459 -2.430219,-1.93425 -5.554736,-2.90141 -9.373648,-2.90141 -1.686274,0 -3.199053,0.29765 -4.538154,0.89281 -1.289505,0.54556 -2.231742,1.14073 -2.826896,1.78547 -0.694351,-2.579 -2.455071,-3.86846 -5.282059,-3.86846 z m 61.1524,0.52064 c -1.88466,0 -3.347877,0.49605 -4.389396,1.48797 -0.991923,0.94234 -1.710991,2.18223 -2.157359,3.71972 -0.39677,1.53748 -0.644724,3.22371 -0.743908,5.05878 -0.04959,1.78546 -0.07438,3.54619 -0.07438,5.28206 0,2.57901 0.09912,5.08358 0.2975,7.5138 0.198395,2.43021 0.570386,4.58773 1.115947,6.47237 0.545557,1.88466 1.339119,3.39729 2.380638,4.538 1.091118,1.09111 2.479848,1.63673 4.166118,1.63673 1.78547,0 3.14927,-0.42155 4.0916,-1.26469 0.94233,-0.89274 1.58706,-2.03351 1.93423,-3.42222 0.39677,-1.3887 0.61994,-2.82697 0.66953,-4.31486 0.0992,-1.53748 0.14891,-2.951 0.14891,-4.2405 0,-2.4798 0.74385,-4.43892 2.23173,-5.87722 1.53748,-1.48788 3.22389,-2.23173 5.05892,-2.23173 0.69436,0 1.28938,0.0991 1.78535,0.2975 0.49595,0.19839 1.01679,0.42156 1.56234,0.66954 0.54555,0.19838 1.23984,0.29766 2.083,0.29766 1.93424,0 3.42224,-0.64473 4.46375,-1.93424 1.09112,-1.2895 1.63658,-2.65344 1.63658,-4.09174 0,-1.68628 -0.57023,-3.19891 -1.71094,-4.538 -1.14072,-1.3391 -2.52945,-2.38061 -4.16613,-3.12456 -1.63666,-0.79353 -3.24857,-1.19031 -4.83565,-1.19031 -1.88464,0 -3.71972,0.24795 -5.50518,0.74391 -1.73588,0.44638 -3.17416,1.19021 -4.31488,2.23174 -0.29757,-1.23991 -0.99185,-2.15737 -2.08298,-2.75252 -1.09112,-0.64476 -2.30624,-0.96719 -3.64534,-0.96719 z m -19.789019,3.57095 c -1.983851,0 -3.471704,0.57039 -4.463632,1.71111 -0.991923,1.09111 -1.66143,2.82691 -2.008605,5.20754 -0.297577,2.38062 -0.4464,5.4308 -0.4464,9.15052 0.04959,3.71971 0.2232,6.76991 0.520774,9.15052 0.347178,2.33103 0.991902,4.06698 1.934231,5.20769 0.991928,1.14072 2.479781,1.7111 4.463632,1.7111 1.983851,0 3.471696,-0.57038 4.463616,-1.7111 0.991928,-1.14071 1.661589,-2.87666 2.008764,-5.20769 0.347179,-2.38061 0.495856,-5.43081 0.446257,-9.15052 0,-3.71972 -0.173458,-6.7699 -0.520634,-9.15052 -0.347178,-2.38063 -1.016833,-4.11643 -2.008764,-5.20754 -0.942329,-1.14072 -2.405388,-1.71111 -4.389239,-1.71111 z m 56.242229,0 c -1.98387,0 -3.4717,0.57039 -4.46364,1.71111 -0.99192,1.09111 -1.66157,2.82691 -2.00875,5.20754 -0.29758,2.38062 -0.44626,5.4308 -0.44626,9.15052 0.0496,3.71971 0.22321,6.76991 0.52079,9.15052 0.34717,2.33103 0.99189,4.06698 1.93422,5.20769 0.99194,1.14072 2.47977,1.7111 4.46364,1.7111 1.98383,0 3.47169,-0.57038 4.46361,-1.7111 0.99193,-1.14071 1.6616,-2.87666 2.00876,-5.20769 0.34717,-2.38061 0.49585,-5.43081 0.44627,-9.15052 0,-3.71972 -0.17363,-6.7699 -0.52079,-9.15052 -0.34718,-2.38063 -1.01669,-4.11643 -2.0086,-5.20754 -0.94234,-1.14072 -2.40542,-1.71111 -4.38925,-1.71111 z" />
    </clipPath>
    <linearGradient
       xlink:href="#linearGradient70"
       id="linearGradient148"
       gradientUnits="userSpaceOnUse"
       x1="120.68726"
       y1="184.44141"
       x2="120.78867"
       y2="180.51254" />
    <clipPath
       clipPathUnits="userSpaceOnUse"
       id="clipPath67">
      <path
         id="path68"
         style="fill:#1e97b5;fill-opacity:1;stroke-width:4.99999;stroke-dasharray:none"
         d="m 133.7982,143.67725 c -0.5113,-0.004 -0.97721,0.0553 -1.38368,0.1812 -3.8799,1.20201 -1.2617,8.6494 -1.2617,13.92518 0,5.36451 4.21853,9.07615 8.70413,9.07615 5.01247,0 9.09941,-4.04768 8.70426,-9.07615 -0.64107,-8.15777 -9.82036,-14.06943 -14.76301,-14.10638 z m -56.523497,0.0554 c -0.511302,-0.004 -0.977204,0.0553 -1.383697,0.18121 -3.879881,1.20199 -1.261692,8.6494 -1.261692,13.92518 0,5.3645 4.218528,9.07615 8.70412,9.07615 5.012489,0 9.09942,-4.04768 8.704273,-9.07615 -0.641064,-8.15778 -9.820362,-14.06944 -14.763004,-14.10639 z M 42.18327,166.76647 c -1.587082,0 -2.876545,0.54546 -3.868463,1.63658 -0.991923,1.09112 -1.760707,2.52941 -2.306267,4.31487 -0.495961,1.78548 -0.843182,3.7198 -1.041566,5.80284 -0.198385,2.08305 -0.297503,4.11651 -0.297503,6.10036 0,1.98385 0.09912,4.04208 0.297503,6.17472 0.247983,2.13264 0.64476,4.11638 1.19032,5.95144 0.545561,1.83507 1.314336,3.32306 2.306265,4.46378 1.041521,1.14071 2.330982,1.71096 3.868465,1.71096 2.083043,0 3.521485,-0.54545 4.31502,-1.63658 0.793539,-1.14071 1.239878,-2.55422 1.339067,-4.2405 0.148794,-1.68627 0.223131,-3.39729 0.223131,-5.13316 0,-2.6286 0.396777,-4.73654 1.190316,-6.32363 0.793543,-1.63667 2.033442,-2.45501 3.719716,-2.45501 1.884659,0 3.198897,0.81834 3.942834,2.45501 0.743945,1.58709 1.115944,3.69503 1.115944,6.32363 0,1.73587 0.07449,3.47167 0.223282,5.20754 0.148785,1.68627 0.6199,3.09978 1.413446,4.24049 0.843137,1.09111 2.256642,1.63673 4.240501,1.63673 1.835052,0 3.248565,-0.54562 4.240493,-1.63673 1.041514,-1.14071 1.76059,-2.62856 2.15736,-4.46361 0.446368,-1.88466 0.66953,-3.96783 0.66953,-6.24926 0.0496,-4.46365 -0.495863,-8.38175 -1.636575,-11.75429 -1.091115,-3.42214 -2.85184,-6.10033 -5.282062,-8.03459 -2.430219,-1.93425 -5.554736,-2.90141 -9.373648,-2.90141 -1.686274,0 -3.199053,0.29765 -4.538154,0.89281 -1.289505,0.54556 -2.231742,1.14073 -2.826896,1.78547 -0.694351,-2.579 -2.455071,-3.86846 -5.282059,-3.86846 z m 61.1524,0.52064 c -1.88466,0 -3.347877,0.49605 -4.389396,1.48797 -0.991923,0.94234 -1.710991,2.18223 -2.157359,3.71972 -0.39677,1.53748 -0.644724,3.22371 -0.743908,5.05878 -0.04959,1.78546 -0.07438,3.54619 -0.07438,5.28206 0,2.57901 0.09912,5.08358 0.2975,7.5138 0.198395,2.43021 0.570386,4.58773 1.115947,6.47237 0.545557,1.88466 1.339119,3.39729 2.380638,4.538 1.091118,1.09111 2.479848,1.63673 4.166118,1.63673 1.78547,0 3.14927,-0.42155 4.0916,-1.26469 0.94233,-0.89274 1.58706,-2.03351 1.93423,-3.42222 0.39677,-1.3887 0.61994,-2.82697 0.66953,-4.31486 0.0992,-1.53748 0.14891,-2.951 0.14891,-4.2405 0,-2.4798 0.74385,-4.43892 2.23173,-5.87722 1.53748,-1.48788 3.22389,-2.23173 5.05892,-2.23173 0.69436,0 1.28938,0.0991 1.78535,0.2975 0.49595,0.19839 1.01679,0.42156 1.56234,0.66954 0.54555,0.19838 1.23984,0.29766 2.083,0.29766 1.93424,0 3.42224,-0.64473 4.46375,-1.93424 1.09112,-1.2895 1.63658,-2.65344 1.63658,-4.09174 0,-1.68628 -0.57023,-3.19891 -1.71094,-4.538 -1.14072,-1.3391 -2.52945,-2.38061 -4.16613,-3.12456 -1.63666,-0.79353 -3.24857,-1.19031 -4.83565,-1.19031 -1.88464,0 -3.71972,0.24795 -5.50518,0.74391 -1.73588,0.44638 -3.17416,1.19021 -4.31488,2.23174 -0.29757,-1.23991 -0.99185,-2.15737 -2.08298,-2.75252 -1.09112,-0.64476 -2.30624,-0.96719 -3.64534,-0.96719 z m -19.789019,3.57095 c -1.983851,0 -3.471704,0.57039 -4.463632,1.71111 -0.991923,1.09111 -1.66143,2.82691 -2.008605,5.20754 -0.297577,2.38062 -0.4464,5.4308 -0.4464,9.15052 0.04959,3.71971 0.2232,6.76991 0.520774,9.15052 0.347178,2.33103 0.991902,4.06698 1.934231,5.20769 0.991928,1.14072 2.479781,1.7111 4.463632,1.7111 1.983851,0 3.471696,-0.57038 4.463616,-1.7111 0.991928,-1.14071 1.661589,-2.87666 2.008764,-5.20769 0.347179,-2.38061 0.495856,-5.43081 0.446257,-9.15052 0,-3.71972 -0.173458,-6.7699 -0.520634,-9.15052 -0.347178,-2.38063 -1.016833,-4.11643 -2.008764,-5.20754 -0.942329,-1.14072 -2.405388,-1.71111 -4.389239,-1.71111 z m 56.242229,0 c -1.98387,0 -3.4717,0.57039 -4.46364,1.71111 -0.99192,1.09111 -1.66157,2.82691 -2.00875,5.20754 -0.29758,2.38062 -0.44626,5.4308 -0.44626,9.15052 0.0496,3.71971 0.22321,6.76991 0.52079,9.15052 0.34717,2.33103 0.99189,4.06698 1.93422,5.20769 0.99194,1.14072 2.47977,1.7111 4.46364,1.7111 1.98383,0 3.47169,-0.57038 4.46361,-1.7111 0.99193,-1.14071 1.6616,-2.87666 2.00876,-5.20769 0.34717,-2.38061 0.49585,-5.43081 0.44627,-9.15052 0,-3.71972 -0.17363,-6.7699 -0.52079,-9.15052 -0.34718,-2.38063 -1.01669,-4.11643 -2.0086,-5.20754 -0.94234,-1.14072 -2.40542,-1.71111 -4.38925,-1.71111 z" />
    </clipPath>
    <linearGradient
       xlink:href="#linearGradient5"
       id="linearGradient149"
       gradientUnits="userSpaceOnUse"
       x1="93.752235"
       y1="164.38313"
       x2="93.377083"
       y2="177.89777" />
    <clipPath
       clipPathUnits="userSpaceOnUse"
       id="clipPath66">
      <path
         id="path67"
         style="fill:#1e97b5;fill-opacity:1;stroke-width:4.99999;stroke-dasharray:none"
         d="m 133.7982,143.67725 c -0.5113,-0.004 -0.97721,0.0553 -1.38368,0.1812 -3.8799,1.20201 -1.2617,8.6494 -1.2617,13.92518 0,5.36451 4.21853,9.07615 8.70413,9.07615 5.01247,0 9.09941,-4.04768 8.70426,-9.07615 -0.64107,-8.15777 -9.82036,-14.06943 -14.76301,-14.10638 z m -56.523497,0.0554 c -0.511302,-0.004 -0.977204,0.0553 -1.383697,0.18121 -3.879881,1.20199 -1.261692,8.6494 -1.261692,13.92518 0,5.3645 4.218528,9.07615 8.70412,9.07615 5.012489,0 9.09942,-4.04768 8.704273,-9.07615 -0.641064,-8.15778 -9.820362,-14.06944 -14.763004,-14.10639 z M 42.18327,166.76647 c -1.587082,0 -2.876545,0.54546 -3.868463,1.63658 -0.991923,1.09112 -1.760707,2.52941 -2.306267,4.31487 -0.495961,1.78548 -0.843182,3.7198 -1.041566,5.80284 -0.198385,2.08305 -0.297503,4.11651 -0.297503,6.10036 0,1.98385 0.09912,4.04208 0.297503,6.17472 0.247983,2.13264 0.64476,4.11638 1.19032,5.95144 0.545561,1.83507 1.314336,3.32306 2.306265,4.46378 1.041521,1.14071 2.330982,1.71096 3.868465,1.71096 2.083043,0 3.521485,-0.54545 4.31502,-1.63658 0.793539,-1.14071 1.239878,-2.55422 1.339067,-4.2405 0.148794,-1.68627 0.223131,-3.39729 0.223131,-5.13316 0,-2.6286 0.396777,-4.73654 1.190316,-6.32363 0.793543,-1.63667 2.033442,-2.45501 3.719716,-2.45501 1.884659,0 3.198897,0.81834 3.942834,2.45501 0.743945,1.58709 1.115944,3.69503 1.115944,6.32363 0,1.73587 0.07449,3.47167 0.223282,5.20754 0.148785,1.68627 0.6199,3.09978 1.413446,4.24049 0.843137,1.09111 2.256642,1.63673 4.240501,1.63673 1.835052,0 3.248565,-0.54562 4.240493,-1.63673 1.041514,-1.14071 1.76059,-2.62856 2.15736,-4.46361 0.446368,-1.88466 0.66953,-3.96783 0.66953,-6.24926 0.0496,-4.46365 -0.495863,-8.38175 -1.636575,-11.75429 -1.091115,-3.42214 -2.85184,-6.10033 -5.282062,-8.03459 -2.430219,-1.93425 -5.554736,-2.90141 -9.373648,-2.90141 -1.686274,0 -3.199053,0.29765 -4.538154,0.89281 -1.289505,0.54556 -2.231742,1.14073 -2.826896,1.78547 -0.694351,-2.579 -2.455071,-3.86846 -5.282059,-3.86846 z m 61.1524,0.52064 c -1.88466,0 -3.347877,0.49605 -4.389396,1.48797 -0.991923,0.94234 -1.710991,2.18223 -2.157359,3.71972 -0.39677,1.53748 -0.644724,3.22371 -0.743908,5.05878 -0.04959,1.78546 -0.07438,3.54619 -0.07438,5.28206 0,2.57901 0.09912,5.08358 0.2975,7.5138 0.198395,2.43021 0.570386,4.58773 1.115947,6.47237 0.545557,1.88466 1.339119,3.39729 2.380638,4.538 1.091118,1.09111 2.479848,1.63673 4.166118,1.63673 1.78547,0 3.14927,-0.42155 4.0916,-1.26469 0.94233,-0.89274 1.58706,-2.03351 1.93423,-3.42222 0.39677,-1.3887 0.61994,-2.82697 0.66953,-4.31486 0.0992,-1.53748 0.14891,-2.951 0.14891,-4.2405 0,-2.4798 0.74385,-4.43892 2.23173,-5.87722 1.53748,-1.48788 3.22389,-2.23173 5.05892,-2.23173 0.69436,0 1.28938,0.0991 1.78535,0.2975 0.49595,0.19839 1.01679,0.42156 1.56234,0.66954 0.54555,0.19838 1.23984,0.29766 2.083,0.29766 1.93424,0 3.42224,-0.64473 4.46375,-1.93424 1.09112,-1.2895 1.63658,-2.65344 1.63658,-4.09174 0,-1.68628 -0.57023,-3.19891 -1.71094,-4.538 -1.14072,-1.3391 -2.52945,-2.38061 -4.16613,-3.12456 -1.63666,-0.79353 -3.24857,-1.19031 -4.83565,-1.19031 -1.88464,0 -3.71972,0.24795 -5.50518,0.74391 -1.73588,0.44638 -3.17416,1.19021 -4.31488,2.23174 -0.29757,-1.23991 -0.99185,-2.15737 -2.08298,-2.75252 -1.09112,-0.64476 -2.30624,-0.96719 -3.64534,-0.96719 z m -19.789019,3.57095 c -1.983851,0 -3.471704,0.57039 -4.463632,1.71111 -0.991923,1.09111 -1.66143,2.82691 -2.008605,5.20754 -0.297577,2.38062 -0.4464,5.4308 -0.4464,9.15052 0.04959,3.71971 0.2232,6.76991 0.520774,9.15052 0.347178,2.33103 0.991902,4.06698 1.934231,5.20769 0.991928,1.14072 2.479781,1.7111 4.463632,1.7111 1.983851,0 3.471696,-0.57038 4.463616,-1.7111 0.991928,-1.14071 1.661589,-2.87666 2.008764,-5.20769 0.347179,-2.38061 0.495856,-5.43081 0.446257,-9.15052 0,-3.71972 -0.173458,-6.7699 -0.520634,-9.15052 -0.347178,-2.38063 -1.016833,-4.11643 -2.008764,-5.20754 -0.942329,-1.14072 -2.405388,-1.71111 -4.389239,-1.71111 z m 56.242229,0 c -1.98387,0 -3.4717,0.57039 -4.46364,1.71111 -0.99192,1.09111 -1.66157,2.82691 -2.00875,5.20754 -0.29758,2.38062 -0.44626,5.4308 -0.44626,9.15052 0.0496,3.71971 0.22321,6.76991 0.52079,9.15052 0.34717,2.33103 0.99189,4.06698 1.93422,5.20769 0.99194,1.14072 2.47977,1.7111 4.46364,1.7111 1.98383,0 3.47169,-0.57038 4.46361,-1.7111 0.99193,-1.14071 1.6616,-2.87666 2.00876,-5.20769 0.34717,-2.38061 0.49585,-5.43081 0.44627,-9.15052 0,-3.71972 -0.17363,-6.7699 -0.52079,-9.15052 -0.34718,-2.38063 -1.01669,-4.11643 -2.0086,-5.20754 -0.94234,-1.14072 -2.40542,-1.71111 -4.38925,-1.71111 z" />
    </clipPath>
    <clipPath
       clipPathUnits="userSpaceOnUse"
       id="clipPath161">
      <g
         id="use161">
        <path
           id="path62"
           style="fill:#1e97b5;fill-opacity:1;stroke-width:2.31594;stroke-dasharray:none"
           d="m -79.263172,177.1396 c -0.9189,0 -1.333001,0.2642 -1.792451,0.79257 -0.459449,0.50539 -0.769623,1.30939 -0.930433,2.41207 -0.137835,1.10267 -0.206697,2.51548 -0.206697,4.23841 0.02297,1.72292 0.103383,3.13574 0.241219,4.23841 0.160805,1.0797 0.459436,1.88377 0.895911,2.41214 0.45945,0.52836 0.873551,0.79256 1.792451,0.79256 0.91889,0 1.057952,-0.2642 1.517397,-0.79256 0.459445,-0.52837 0.769628,-1.33244 0.930429,-2.41214 0.160809,-1.10267 0.229676,-2.51549 0.206706,-4.23841 0,-1.72293 -0.08042,-3.13574 -0.241223,-4.23841 -0.16081,-1.10268 -0.470919,-1.90668 -0.930359,-2.41207 -0.436476,-0.52837 -0.56406,-0.79257 -1.48295,-0.79257 z" />
      </g>
    </clipPath>
    <linearGradient
       xlink:href="#linearGradient7"
       id="linearGradient22"
       gradientUnits="userSpaceOnUse"
       x1="101.37057"
       y1="202.59308"
       x2="101.34383"
       y2="199.69127" />
    <linearGradient
       xlink:href="#linearGradient70"
       id="linearGradient23"
       gradientUnits="userSpaceOnUse"
       x1="53.549301"
       y1="186.30927"
       x2="53.810921"
       y2="180.57967" />
    <linearGradient
       xlink:href="#linearGradient70"
       id="linearGradient24"
       gradientUnits="userSpaceOnUse"
       x1="120.68726"
       y1="184.44141"
       x2="120.78867"
       y2="180.51254" />
    <linearGradient
       xlink:href="#linearGradient5"
       id="linearGradient25"
       gradientUnits="userSpaceOnUse"
       x1="93.752235"
       y1="164.38313"
       x2="93.377083"
       y2="177.89777" />
    <linearGradient
       xlink:href="#linearGradient26"
       id="linearGradient61"
       gradientUnits="userSpaceOnUse"
       x1="137.41386"
       y1="201.52441"
       x2="137.46588"
       y2="196.20343" />
    <linearGradient
       xlink:href="#linearGradient28"
       id="linearGradient62"
       gradientUnits="userSpaceOnUse"
       gradientTransform="matrix(0.46318782,0,0,0.52451075,-144.01168,87.591835)"
       x1="141.64835"
       y1="164.65019"
       x2="141.27319"
       y2="178.16483" />
    <linearGradient
       xlink:href="#linearGradient26"
       id="linearGradient83"
       gradientUnits="userSpaceOnUse"
       x1="137.41386"
       y1="201.52441"
       x2="137.46588"
       y2="196.20343" />
    <linearGradient
       xlink:href="#linearGradient28"
       id="linearGradient84"
       gradientUnits="userSpaceOnUse"
       gradientTransform="matrix(0.46318782,0,0,0.52451075,-144.01168,87.591835)"
       x1="141.64835"
       y1="164.65019"
       x2="141.27319"
       y2="178.16483" />
  </defs>
  <g
     id="layer1"
     transform="translate(0,-75.112854)">
    <g
       id="g1"
       transform="matrix(1.2878679,0,0,1.2878679,62.393696,-122.73874)">
      <path
         id="path136"
         style="fill:#1d1d1d;fill-opacity:1;stroke-width:0.0677574"
         d="m -1.5130548,153.63794 c -1.08744,0.0305 -2.190744,0.71608 -2.481256,1.80512 -0.444618,1.41827 -0.08027,2.91251 0.05408,4.35012 0.122874,0.90709 0.100854,1.8286 0.236165,2.73236 0.327127,1.74088 1.578845,3.25508 3.21137898,3.93431 0.313587,0.11783 -0.310535,0.28555 -0.421247,0.42581 -0.61328298,0.39596 -1.03849898,1.00566 -1.38617698,1.6349 -0.440075,-0.99138 -1.135343,-1.87201 -2.053034,-2.46116 -1.220148,-0.82922 -2.709931,-1.25665 -4.185448,-1.13643 -1.2625069,0.0784 -2.5388952,0.27098 -3.7001582,0.79584 -0.957479,-1.06191 -2.497351,-1.28126 -3.850249,-1.10821 -1.520793,0.15043 -2.878698,1.24465 -3.372659,2.68818 -0.372135,0.89581 -0.493857,1.86987 -0.582002,2.8262 -0.0962,0.16585 -0.169552,0.84851 -0.293792,0.38015 -0.283096,-0.52235 -0.250529,-1.14436 -0.455507,-1.67581 -0.250023,-0.84418 -0.733296,-1.66019 -1.497508,-2.12623 -0.213427,-0.24802 0.06894,-0.51081 0.306681,-0.58803 1.597675,-0.9442 2.657962,-2.79185 2.497351,-4.66334 -0.06203,-2.39921 -1.422543,-4.63476 -3.333594,-6.03441 -1.45408,-1.1175 -3.288846,-1.95432 -5.160135,-1.7206 -0.956697,0.0996 -1.854186,0.73059 -2.158277,1.66125 -0.466568,1.32467 -0.160711,2.7364 -0.033,4.08524 0.137145,0.97796 0.176444,1.96511 0.255565,2.94736 0.282382,1.80536 1.560058,3.39669 3.244688,4.09467 0.39387,0.10854 -0.216358,0.28317 -0.335217,0.42396 -1.073313,0.7322 -1.575948,2.01932 -1.773501,3.25763 -0.175149,0.81479 -0.174678,1.65704 -0.262893,2.47747 -0.09097,0.21062 -0.158515,0.78782 -0.295095,0.28439 -0.282133,-0.51638 -0.261204,-1.1306 -0.44784,-1.68332 -0.540923,-2.11755 -1.694471,-4.21555 -3.630152,-5.34533 -2.013088,-1.15234 -4.508545,-1.29219 -6.708171,-0.64082 -0.226809,0.0215 -0.493576,0.2991 -0.675648,0.16754 -0.739815,-0.92339 -1.999835,-1.20401 -3.130039,-1.09243 -1.25475,0.0525 -2.451616,0.76589 -3.080628,1.85618 -1.01159,1.57808 -1.215994,3.44619 -1.379906,5.27454 -0.200186,2.55869 -0.146695,5.18865 0.458248,7.68844 0.370442,1.48933 1.003276,3.08391 2.389624,3.89859 1.391314,0.80203 3.314779,0.6428 4.509956,-0.44579 1.00726,-1.03092 1.179473,-2.56112 1.216564,-3.93421 0.05434,-1.26886 -0.05679,-2.6035 0.451702,-3.79806 0.148867,-0.45312 0.737386,-0.66196 1.118165,-0.35915 0.408786,0.37513 0.420026,0.98755 0.534168,1.49626 0.286852,1.87607 -0.139714,3.88446 0.706663,5.65341 0.435489,0.9211 1.294191,1.65086 2.316551,1.80689 1.594438,0.37836 3.454373,-0.17291 4.322696,-1.61136 0.6142,-0.89544 0.879531,-1.99537 1.045929,-3.02096 0.09744,-0.13666 0.198711,-0.85566 0.292601,-0.45395 0.303916,0.7434 0.275055,1.57058 0.533666,2.33028 0.348394,1.31139 1.386328,2.47236 2.74657,2.74562 1.50718,0.35093 3.289797,-0.0206 4.260956,-1.29997 0.916478,-1.22604 1.083387,-2.79954 1.210538,-4.27417 0.09536,-0.16734 0.165755,-0.85288 0.291679,-0.38564 0.302597,0.57813 0.287152,1.2758 0.467809,1.87181 0.275804,1.14404 0.713,2.25805 1.571341,3.10629 1.605465,1.61131 4.65754,1.46079 5.996504,-0.4178 0.962607,-1.3722 1.069293,-3.11818 1.12028,-4.72284 0.04595,-0.98381 -0.07424,-2.12171 0.640506,-2.91004 0.5529393,-0.63861 1.5471172,-0.95015 2.3125072,-0.50731 1.440166,0.62186 3.255603,0.45558 4.424509,-0.64343 0.153449,-0.0702 0.540137,-0.64959 0.47499,-0.24243 -0.047,2.23188 -0.07266,4.4751 0.304536,6.66035 0.137549,1.05147 0.547984,2.16081 1.354028,2.91344 0.86333098,0.83061 2.151044,1.06077 3.307152,0.94023 1.215446,-0.11683 2.366894,-0.83523 2.920459,-1.93742 0.831997,-1.55059 0.828819,-3.36392 0.914352,-5.07658 0.05654,-2.23248 -0.01,-4.44223 -0.324019,-6.65405 -0.187966,-1.18235 -0.628166,-2.43395 -1.662015,-3.13407 -0.242641,-0.236 -0.0014,-0.56118 0.273077,-0.61013 1.657207,-0.93847 2.771707,-2.84414 2.579034,-4.76619 -0.07254,-2.34114 -1.392703,-4.51853 -3.237988,-5.91057 -1.401078,-1.09486 -3.149918,-1.9293 -4.96611,-1.82259 z" />
      <path
         id="path137"
         style="fill:#156a7f;fill-opacity:1;stroke-width:0.0677574"
         d="m -1.4147618,154.00212 c -0.912596,-0.0186 -1.754829,0.71481 -1.843752,1.62785 -0.281562,1.57983 0.216203,3.15525 0.277848,4.73244 0.0396,0.95573 0.05487,1.97164 0.540434,2.8356 0.797558,1.60417 2.58935,2.67794 4.389205,2.50699 1.87359,-0.13258 3.633199,-1.51506 4.042749,-3.37635 0.414771,-1.86671 -0.385863,-3.79587 -1.588794,-5.20632 -1.261983,-1.4901 -2.990452,-2.63305 -4.90978602,-3.04956 -0.298844,-0.0557 -0.60378898,-0.0836 -0.90790398,-0.0707 z m -26.1818732,0.0262 c -0.898222,-0.0177 -1.735365,0.69389 -1.837372,1.59221 -0.287672,1.56548 0.193465,3.12939 0.267871,4.69215 0.05334,0.91019 0.03029,1.90687 0.46943,2.75775 0.72764,1.59692 2.415002,2.72785 4.185325,2.6737 1.945242,-0.0175 3.847358,-1.39186 4.301547,-3.31486 0.446681,-1.82065 -0.300261,-3.73176 -1.451419,-5.13782 -1.259002,-1.55425 -3.021098,-2.74018 -4.980962,-3.18533 -0.314106,-0.0603 -0.634449,-0.0922 -0.95442,-0.0778 z m -16.357225,10.67594 c -1.185412,0.057 -2.138051,0.9736 -2.606233,2.00973 -0.782803,1.59904 -0.906473,3.41508 -1.027988,5.16319 -0.121138,2.5762 -0.03152,5.21667 0.776281,7.6867 0.376855,1.05268 0.986898,2.1618 2.061836,2.62391 0.951273,0.37808 2.081876,0.29602 2.975439,-0.19722 0.980444,-0.65225 1.24513,-1.91269 1.309355,-3.01277 0.151478,-1.53107 -0.07984,-3.09798 0.448407,-4.56922 0.210411,-0.59564 0.697026,-1.17478 1.382573,-1.15624 0.651882,-0.0516 1.293329,0.36934 1.475107,1.00313 0.603571,1.50819 0.326751,3.16384 0.489417,4.74203 0.09248,1.10359 0.362426,2.3604 1.341774,3.02202 0.806284,0.45973 1.805221,0.53411 2.701326,0.33291 1.113485,-0.23543 1.894763,-1.2037 2.269857,-2.22922 0.584702,-1.63735 0.62464,-3.41126 0.564455,-5.13112 -0.131902,-2.32799 -0.577738,-4.73548 -1.895677,-6.70471 -0.917504,-1.37855 -2.341776,-2.41605 -3.961594,-2.79181 -1.695034,-0.41205 -3.598963,-0.38895 -5.129244,0.53749 -0.199222,0.19592 -0.284176,0.0634 -0.387403,-0.15077 -0.582679,-0.89078 -1.697523,-1.27265 -2.72621,-1.18 l -0.0463,0.001 z m 28.275266,0.24064 c -1.159669,0.0286 -2.260702,0.73241 -2.763891,1.78005 -0.674634,1.27958 -0.738529,2.76891 -0.779316,4.185 -0.03392,2.62054 -0.06224,5.27829 0.527017,7.84705 0.298022,1.23983 0.83029,2.56059 1.957903,3.26226 1.080589,0.61604 2.497685,0.5747 3.569376,-0.0374 1.086032,-0.7036 1.454174,-2.05385 1.611199,-3.26449 0.190116,-1.26646 0.06285,-2.55849 0.241807,-3.82386 0.318474,-1.45121 1.8758143,-2.64486 3.3736432,-2.2467 0.509835,0.17925 0.992922,0.46385 1.547728,0.49075 1.07996,0.1167 2.245428,-0.25747 2.913521,-1.1474 0.758767,-0.91463 1.018499,-2.22534 0.578137,-3.34132 -0.486833,-1.35056 -1.7368997,-2.26717 -2.977918,-2.86469 -1.0158313,-0.4891 -2.220434,-0.58806 -3.3531689,-0.44323 -1.1295263,0.12145 -2.2775183,0.40116 -3.2417183,1.02252 -0.63509,-1.08829 -2.011106,-1.49932 -3.204319,-1.41851 z m -9.17872,1.65553 c -1.149827,0.0296 -2.252655,0.76866 -2.653442,1.85863 -0.636154,1.46666 -0.594939,3.10168 -0.671394,4.66751 -0.03341,2.0608 -0.01215,4.13655 0.313746,6.17531 0.208286,1.11119 0.686221,2.34029 1.787985,2.83525 1.006796,0.45041 2.211315,0.41619 3.215175,-0.0226 1.116791,-0.5791 1.607799,-1.85686 1.791817,-3.03322 0.35496,-2.1081 0.259262,-4.25771 0.227392,-6.38613 -0.07156,-1.36288 -0.140019,-2.75957 -0.605759,-4.05498 -0.36551,-0.97921 -1.192493,-1.8405 -2.264393,-1.98286 -0.375772,-0.0702 -0.760316,-0.075 -1.141127,-0.0569 z m 26.0506982,0 c -1.14982702,0.0296 -2.252654,0.76866 -2.653441,1.85863 -0.636156,1.46666 -0.594942,3.10168 -0.671396,4.66751 -0.03256,2.07607 -0.01399,4.16802 0.322565,6.22096 0.212255,1.096 0.692127,2.30246 1.77916898,2.7896 1.00679402,0.45041 2.21131402,0.41619 3.21517202,-0.0226 1.114745,-0.57817 1.607025,-1.85297 1.790193,-3.02775 0.356164,-2.09966 0.261358,-4.24147 0.229922,-6.36175 -0.0701,-1.37286 -0.138845,-2.77979 -0.606665,-4.08483 -0.365511,-0.97921 -1.192491,-1.8405 -2.264391,-1.98286 -0.375775,-0.0702 -0.760318,-0.075 -1.141128,-0.0569 z" />
      <path
         id="path138"
         style="fill:#1e97b5;fill-opacity:1;stroke-width:2.31594;stroke-dasharray:none"
         d="m -0.80346982,153.9751 c -0.23682798,-0.002 -0.45263198,0.0256 -0.64090798,0.0839 -1.797123,0.55676 -0.584404,4.0063 -0.584404,6.44998 0,2.48477 1.95397098,4.20396 4.031647,4.20396 2.321719,0 4.214736,-1.87484 4.031707,-4.20396 -0.296931,-3.77858 -4.548671,-6.51672 -6.83804202,-6.53391 z M -26.98447,154.0008 c -0.236828,-0.002 -0.452628,0.0256 -0.640911,0.0839 -1.797113,0.55675 -0.5844,4.0063 -0.5844,6.44997 0,2.48477 1.95397,4.20396 4.031642,4.20396 2.321724,0 4.214741,-1.87483 4.031714,-4.20396 -0.296933,-3.77858 -4.548673,-6.51679 -6.838045,-6.53391 z m -16.253924,10.66899 c -0.735117,0 -1.33238,0.25265 -1.791825,0.75804 -0.459446,0.5054 -0.815537,1.17159 -1.068234,1.9986 -0.229723,0.82701 -0.390552,1.72296 -0.482442,2.6878 -0.09189,0.96485 -0.137798,1.90672 -0.137798,2.82562 0,0.91889 0.04591,1.87224 0.137798,2.86005 0.114864,0.98781 0.298645,1.90666 0.551343,2.75664 0.252697,0.84998 0.608784,1.5392 1.068234,2.06756 0.48242,0.52837 1.079682,0.7925 1.791825,0.7925 0.96484,0 1.631109,-0.25265 1.998666,-0.75804 0.367557,-0.52837 0.574295,-1.18309 0.620239,-1.96415 0.06892,-0.78106 0.103352,-1.57359 0.103352,-2.37762 0,-1.21754 0.183782,-2.19391 0.551339,-2.92903 0.36756,-0.75808 0.941866,-1.13713 1.722928,-1.13713 0.872951,0 1.481689,0.37905 1.826272,1.13713 0.344587,0.73512 0.516892,1.71149 0.516892,2.92903 0,0.80403 0.0345,1.60804 0.103422,2.41207 0.06892,0.78106 0.28713,1.43578 0.65469,1.96414 0.390531,0.50539 1.045249,0.75812 1.964149,0.75812 0.849973,0 1.504695,-0.25273 1.964145,-0.75812 0.482416,-0.52837 0.815484,-1.21751 0.999262,-2.06749 0.206752,-0.87295 0.310118,-1.83785 0.310118,-2.89458 0.02297,-2.06751 -0.229677,-3.88232 -0.758041,-5.44444 -0.505391,-1.5851 -1.320938,-2.8256 -2.446587,-3.72153 -1.125647,-0.89592 -2.572887,-1.34389 -4.341759,-1.34389 -0.781062,0 -1.481764,0.13786 -2.102018,0.41353 -0.597283,0.2527 -1.033717,0.52838 -1.309384,0.82701 -0.321616,-1.19456 -1.13716,-1.79182 -2.446586,-1.79182 z m 28.325046,0.24115 c -0.872946,0 -1.550692,0.22977 -2.033111,0.68921 -0.459449,0.43648 -0.792513,1.01079 -0.999265,1.72293 -0.183779,0.71214 -0.298628,1.49318 -0.344568,2.34317 -0.02297,0.827 -0.03445,1.64255 -0.03445,2.44658 0,1.19457 0.04591,2.35466 0.137798,3.4803 0.09189,1.12565 0.264195,2.12498 0.516893,2.99793 0.252695,0.87295 0.620263,1.57358 1.102685,2.10194 0.505389,0.50539 1.148632,0.75812 1.929691,0.75812 0.827008,0 1.458704,-0.19526 1.89518,-0.58579 0.436475,-0.41351 0.735106,-0.9419 0.895911,-1.58513 0.183779,-0.64323 0.287149,-1.30942 0.310119,-1.99859 0.04595,-0.71215 0.06897,-1.36687 0.06897,-1.96415 0,-1.14862 0.344542,-2.05606 1.03371,-2.72226 0.7121423,-0.68917 1.4932673,-1.03371 2.3432352,-1.03371 0.321614,0 0.597225,0.0459 0.826948,0.1378 0.229722,0.0919 0.470969,0.19526 0.723661,0.31012 0.252692,0.0919 0.574279,0.13787 0.964816,0.13787 0.895921,0 1.58514,-0.29863 2.067559,-0.89591 0.505394,-0.59728 0.758044,-1.22904 0.758044,-1.89525 0,-0.78106 -0.264124,-1.48169 -0.792491,-2.10194 -0.528363,-0.62026 -1.171606,-1.10267 -1.929696,-1.44726 -0.758086,-0.36755 -1.504703,-0.55134 -2.239815,-0.55134 -0.872947,0 -1.7229329,0.11485 -2.5499372,0.34457 -0.804038,0.20676 -1.470232,0.55129 -1.998599,1.03372 -0.137831,-0.57431 -0.459413,-0.99927 -0.964811,-1.27494 -0.505394,-0.29864 -1.068223,-0.44799 -1.688477,-0.44799 z m -9.166031,1.65402 c -0.918896,0 -1.608051,0.2642 -2.067501,0.79257 -0.459446,0.50539 -0.769553,1.30939 -0.930361,2.41207 -0.137834,1.10267 -0.206767,2.51548 -0.206767,4.23841 0.02297,1.72292 0.103384,3.13574 0.241217,4.23841 0.160808,1.0797 0.459436,1.88377 0.895911,2.41214 0.45945,0.52836 1.148605,0.79256 2.067501,0.79256 0.918895,0 1.608047,-0.2642 2.067493,-0.79256 0.459449,-0.52837 0.769627,-1.33244 0.930435,-2.41214 0.160809,-1.10267 0.229673,-2.51549 0.2067,-4.23841 0,-1.72293 -0.08034,-3.13574 -0.241151,-4.23841 -0.160808,-1.10268 -0.470985,-1.90668 -0.930435,-2.41207 -0.436475,-0.52837 -1.114147,-0.79257 -2.033042,-0.79257 z m 26.0507152,0 c -0.9189,0 -1.60805,0.2642 -2.06750002,0.79257 -0.459449,0.50539 -0.769623,1.30939 -0.93043298,2.41207 -0.137835,1.10267 -0.206697,2.51548 -0.206697,4.23841 0.02297,1.72292 0.103383,3.13574 0.24121898,4.23841 0.160805,1.0797 0.459436,1.88377 0.895911,2.41214 0.45945002,0.52836 1.14860002,0.79256 2.06750002,0.79256 0.91889,0 1.608049,-0.2642 2.067494,-0.79256 0.459445,-0.52837 0.769628,-1.33244 0.930429,-2.41214 0.160809,-1.10267 0.229676,-2.51549 0.206706,-4.23841 0,-1.72293 -0.08042,-3.13574 -0.241223,-4.23841 -0.16081,-1.10268 -0.470919,-1.90668 -0.930359,-2.41207 -0.436476,-0.52837 -1.114157,-0.79257 -2.033047,-0.79257 z" />
      <path
         d="m -0.62590182,156.18727 c -1.44560498,0.44786 -0.47009398,3.22265 -0.47009398,5.18833 0,1.99875 1.571768,3.38165 3.243042,3.38165 1.867578,0 3.390317,-1.50811 3.243088,-3.38165 -0.238852,-3.03947 -3.658934,-5.24207 -5.50049402,-5.25584 z"
         style="fill:#4bacc4;fill-opacity:1;stroke-width:1.86293;stroke-dasharray:none"
         id="path139" />
      <path
         d="m 0.2236122,158.28491 c -1.09480902,0.33917 -0.35602002,2.44062 -0.35602002,3.9293 0,1.51372 1.19035602,2.56104 2.45607202,2.56104 1.414381,0 2.567603,-1.14214 2.456104,-2.56104 -0.180893,-2.3019 -2.771039,-3.97001 -4.165721,-3.98043 z"
         style="fill:#78c1d3;fill-opacity:1;stroke-width:1.41087;stroke-dasharray:none"
         id="path140" />
      <path
         d="m -26.839704,156.14395 c -1.445605,0.44785 -0.470094,3.22265 -0.470094,5.18833 0,1.99874 1.571767,3.38165 3.243042,3.38165 1.867578,0 3.390317,-1.50811 3.243088,-3.38165 -0.238852,-3.03947 -3.658934,-5.24208 -5.500494,-5.25585 z"
         style="fill:#4bacc4;fill-opacity:1;stroke-width:1.86293;stroke-dasharray:none"
         id="path141" />
      <path
         d="m -25.99019,158.24158 c -1.094809,0.33918 -0.35602,2.44063 -0.35602,3.92931 0,1.51371 1.190355,2.56104 2.456072,2.56104 1.414381,0 2.567603,-1.14215 2.456104,-2.56104 -0.180893,-2.3019 -2.77104,-3.97001 -4.165721,-3.98044 z"
         style="fill:#78c1d3;fill-opacity:1;stroke-width:1.41087;stroke-dasharray:none"
         id="path142" />
      <path
         style="fill:url(#linearGradient146);fill-opacity:1;stroke:none;stroke-width:14;stroke-linecap:round;stroke-linejoin:round;stroke-dasharray:none;stroke-opacity:1"
         d="m 36.002247,196.57537 c 3.29793,3.09722 6.959432,6.42026 11.180085,4.05522 4.743902,-2.65824 11.242918,-2.46898 11.242918,-2.46898 1.682029,1.20774 5.70845,5.11489 10.201946,2.64732 2.136195,-1.17308 3.432524,-0.28965 6.995776,-3.28142 3.833723,2.59586 8.301357,5.37117 14.159531,1.36599 3.392837,-2.31965 3.314571,3.87719 6.555838,1.55777 6.262549,1.20977 8.650239,2.92552 13.557469,-1.54009 l 23.40083,-2.14236 c 3.52911,5.3132 8.19412,6.59247 14.38683,-0.56796 l 2.80548,16.75871 -119.830288,-2.80633 z"
         id="path143"
         clip-path="url(#clipPath69)"
         transform="matrix(0.46318782,0,0,0.46318782,-62.777172,87.425549)" />
      <path
         style="fill:url(#linearGradient147);fill-opacity:1;stroke:none;stroke-width:14;stroke-linecap:round;stroke-linejoin:round;stroke-dasharray:none;stroke-opacity:1"
         d="m 50.001345,183.28463 c -1.709197,1.48725 -1.576559,5.26352 -1.576559,5.26352 l 9.38917,-0.2251 c 0,0 0.04664,-3.95368 -1.93371,-5.47637 -1.683803,-1.29468 -4.276581,-0.95631 -5.878901,0.43795 z"
         id="path144"
         clip-path="url(#clipPath68)"
         transform="matrix(0.46318782,0,0,0.46318782,-62.777172,87.425549)" />
      <path
         style="fill:url(#linearGradient148);fill-opacity:1;stroke:none;stroke-width:14;stroke-linecap:round;stroke-linejoin:round;stroke-dasharray:none;stroke-opacity:1"
         d="m 113.45558,181.9671 c 3.95353,-3.19652 9.8786,1.45372 14.82368,-0.67597 l 0.78808,7.15987 -18.10869,-0.67184 c 0,0 0.46104,-4.166 2.49693,-5.81206 z"
         id="path145"
         clip-path="url(#clipPath67)"
         transform="matrix(0.46318782,0,0,0.46318782,-62.777172,87.425549)" />
      <path
         id="path146"
         clip-path="url(#clipPath66)"
         style="fill:url(#linearGradient149);fill-opacity:1;stroke:none;stroke-width:14;stroke-linecap:round;stroke-linejoin:round;stroke-dasharray:none;stroke-opacity:1"
         d="M 53.710417,160.07292 47.625,164.04167 c 1.650616,1.25959 3.259363,2.50869 4.86637,3.75739 l -9.979753,-5.47719 -5.205367,5.78466 c 4.176792,-0.076 8.108852,0.11146 10.026261,2.46859 10.938383,-2.43263 16.510277,0.42265 22.499919,8.23205 l 4.118612,-6.29884 z m 50.432063,2.59054 -12.180135,7.29878 4.09019,8.19278 c 1.840752,-8.63677 7.158145,-12.42737 12.993005,-7.26881 -0.98999,-2.83965 -3.26865,-5.48185 -4.90306,-8.22275 z m 9.49606,2.03966 -4.50773,6.18929 c 6.67656,-3.07996 15.56916,-1.23395 20.46541,5.33198 l 1.49604,-3.45199 0.37258,4.43229 c 4.70764,-4.47543 9.33858,-7.26585 15.61042,-1.55443 l 0.69453,-5.25859 -16.93333,-0.66146 0.0718,0.85473 z m -22.489582,4.8948 -16.801041,0.79375 1.612821,6.67556 c 5.820833,-5.97086 8.578288,-5.66971 14.399121,-1.09141 z"
         transform="matrix(0.46318782,0,0,0.46318782,-62.777172,87.425549)" />
    </g>
  </g>
</svg>
