<?xml version="1.0" encoding="UTF-8" standalone="no"?>
<svg
   width="263.06873"
   height="143.7592"
   viewBox="0 0 211.74797 70.607135"
   version="1.1"
   id="svg1"
   sodipodi:docname="processed-logo(3).svg"
   inkscape:version="1.4.2 (ebf0e940d0, 2025-05-08)"
   xmlns:inkscape="http://www.inkscape.org/namespaces/inkscape"
   xmlns:sodipodi="http://sodipodi.sourceforge.net/DTD/sodipodi-0.dtd"
   xmlns:xlink="http://www.w3.org/1999/xlink"
   xmlns="http://www.w3.org/2000/svg"
   xmlns:svg="http://www.w3.org/2000/svg">
  <sodipodi:namedview
     id="namedview1"
     borderopacity="1"
     inkscape:showpageshadow="0"
     inkscape:pageopacity="0"
     inkscape:pagecheckerboard="1"
     inkscape:zoom="2.2356071"
     inkscape:cx="129.27137"
     inkscape:cy="71.792579"
     inkscape:window-width="1653"
     inkscape:window-height="1048"
     inkscape:window-x="0"
     inkscape:window-y="0"
     inkscape:window-maximized="0"
     inkscape:current-layer="g70"
     showguides="false"
     pagecolor="#ffffff"
     bordercolor="#000000"
     inkscape:deskcolor="#d9d9d9" />
  <defs
     id="defs1">
    <linearGradient
       id="linearGradient40"
       inkscape:collect="always">
      <stop
         style="stop-color:#d8485f;stop-opacity:1;"
         offset="0"
         id="stop40" />
      <stop
         style="stop-color:#d88748;stop-opacity:1;"
         offset="1"
         id="stop41" />
    </linearGradient>
    <filter
       style="color-interpolation-filters:sRGB"
       id="filter21"
       x="-0.55626912"
       y="-1.0637679"
       width="2.1125382"
       height="3.1275357">
      <feGaussianBlur
         stdDeviation="8.043 5.792"
         id="feGaussianBlur21" />
    </filter>
    <filter
       style="color-interpolation-filters:sRGB"
       id="filter22"
       x="-0.54784507"
       y="-0.52143788"
       width="2.0956901"
       height="2.0428758">
      <feGaussianBlur
         stdDeviation="8.418 5.292"
         id="feGaussianBlur22" />
    </filter>
    <filter
       style="color-interpolation-filters:sRGB"
       id="filter23"
       x="-0.24653029"
       y="-0.38201636"
       width="1.4930606"
       height="1.7640327">
      <feGaussianBlur
         stdDeviation="4.667 4.667"
         id="feGaussianBlur23" />
    </filter>
    <filter
       style="color-interpolation-filters:sRGB"
       id="filter24"
       x="-0.64596999"
       y="-1.0181498"
       width="2.29194"
       height="3.0362996">
      <feGaussianBlur
         stdDeviation="9.418 5.792"
         id="feGaussianBlur24" />
    </filter>
    <filter
       style="color-interpolation-filters:sRGB"
       id="filter27"
       x="-0.30853596"
       y="-1.6721658"
       width="1.6170719"
       height="4.3443317">
      <feGaussianBlur
         stdDeviation="8.2543341"
         id="feGaussianBlur26" />
    </filter>
    <filter
       style="color-interpolation-filters:sRGB"
       id="filter52"
       x="-0.68423517"
       y="-0.69406234"
       width="2.3684703"
       height="2.3881247">
      <feGaussianBlur
         stdDeviation="8.821 2.694"
         id="feGaussianBlur52" />
    </filter>
    <filter
       style="color-interpolation-filters:sRGB"
       id="filter53"
       x="-0.71441769"
       y="-0.54979964"
       width="2.4288354"
       height="2.0995993">
      <feGaussianBlur
         stdDeviation="9.071 2.318"
         id="feGaussianBlur54" />
    </filter>
    <filter
       style="color-interpolation-filters:sRGB"
       id="filter55"
       x="-0.70788901"
       y="-0.54149084"
       width="2.415778"
       height="2.0829817">
      <feGaussianBlur
         stdDeviation="9.446 2.193"
         id="feGaussianBlur55" />
    </filter>
    <filter
       style="color-interpolation-filters:sRGB"
       id="filter56"
       x="-0.56676746"
       y="-0.49000794"
       width="2.1335349"
       height="1.9800159">
      <feGaussianBlur
         stdDeviation="8.071 2.443"
         id="feGaussianBlur56" />
    </filter>
    <filter
       style="color-interpolation-filters:sRGB"
       id="filter57"
       x="-0.35343365"
       y="-0.37173586"
       width="1.7068673"
       height="1.7434717">
      <feGaussianBlur
         stdDeviation="4.0690733"
         id="feGaussianBlur57" />
    </filter>
    <filter
       style="color-interpolation-filters:sRGB"
       id="filter58"
       x="-0.6591189"
       y="-0.75196975"
       width="2.3182378"
       height="2.5039395">
      <feGaussianBlur
         stdDeviation="8.696 2.819"
         id="feGaussianBlur58" />
    </filter>
    <filter
       style="color-interpolation-filters:sRGB"
       id="filter59"
       x="-0.36482318"
       y="-0.64413503"
       width="1.7296464"
       height="2.2882701">
      <feGaussianBlur
         stdDeviation="4.0690733"
         id="feGaussianBlur59" />
    </filter>
    <filter
       style="color-interpolation-filters:sRGB"
       id="filter60"
       x="-0.2985791"
       y="-1.7272615"
       width="1.5971582"
       height="4.4545231">
      <feGaussianBlur
         stdDeviation="8.1470038"
         id="feGaussianBlur60" />
    </filter>
    <filter
       style="color-interpolation-filters:sRGB"
       id="filter70"
       x="-0.44225678"
       y="-0.3197549"
       width="1.8841637"
       height="1.6395177">
      <feGaussianBlur
         stdDeviation="18.461288"
         id="feGaussianBlur70" />
    </filter>
    <filter
       style="color-interpolation-filters:sRGB"
       id="filter72"
       x="-0.43271318"
       y="-0.31310251"
       width="1.8654264"
       height="1.626205">
      <feGaussianBlur
         stdDeviation="18.509006"
         id="feGaussianBlur72" />
    </filter>
    <filter
       style="color-interpolation-filters:sRGB"
       id="filter1"
       x="-0.38774738"
       y="-0.47884843"
       width="1.7754948"
       height="1.9576969">
      <feGaussianBlur
         stdDeviation="7.293 7.167"
         id="feGaussianBlur1" />
    </filter>
    <filter
       style="color-interpolation-filters:sRGB"
       id="filter2"
       x="-0.62054635"
       y="-0.88111625"
       width="2.2410927"
       height="2.7622325">
      <feGaussianBlur
         stdDeviation="4.917 4.292"
         id="feGaussianBlur2" />
    </filter>
    <clipPath
       clipPathUnits="userSpaceOnUse"
       id="clipPath1">
      <path
         style="font-size:224.608px;line-height:393.415px;font-family:'Cherry Bomb One';-inkscape-font-specification:'Cherry Bomb One';letter-spacing:0px;fill:#bf4040;fill-opacity:1;stroke:none;stroke-width:2.11667;stroke-linecap:square;paint-order:stroke fill markers"
         d="m 452.78682,224.36663 q -8.98432,0 -12.80266,-4.94138 -3.59373,-5.16598 -4.26757,-12.80265 -0.67381,-7.86128 -0.67381,-15.72256 0,-11.90423 -3.36913,-19.09168 -3.36912,-7.41207 -11.90421,-7.41207 -7.63667,0 -11.2304,7.41207 -3.59373,7.18745 -3.59373,19.09168 0,7.86128 -0.67384,15.49795 -0.44921,7.63667 -4.04294,12.80266 -3.59373,4.94137 -13.02726,4.94137 -6.96286,0 -11.67961,-5.16598 -4.49217,-5.16599 -6.96285,-13.47648 -2.47068,-8.3105 -3.59373,-17.96864 -0.89842,-9.65815 -0.89842,-18.64247 0,-8.98432 0.89842,-18.41785 0.89844,-9.43354 3.14452,-17.51943 2.47068,-8.08588 6.96285,-13.02726 4.49215,-4.94138 11.67961,-4.94138 12.80266,0 15.94715,11.67962 2.69531,-2.9199 8.53512,-5.39059 6.0644,-2.6953 13.70107,-2.6953 17.29484,0 28.30063,8.75971 11.00577,8.75972 15.94715,24.25767 5.16599,15.27334 4.94139,35.48806 0,10.33197 -2.02147,18.86707 -1.79687,8.3105 -6.51365,13.47648 -4.49215,4.94138 -12.80263,4.94138 z"
         id="path5" />
    </clipPath>
    <clipPath
       clipPathUnits="userSpaceOnUse"
       id="clipPath5">
      <path
         style="font-size:224.608px;line-height:393.415px;font-family:'Cherry Bomb One';-inkscape-font-specification:'Cherry Bomb One';letter-spacing:0px;fill:#bf4040;fill-opacity:1;stroke:none;stroke-width:2.11667;stroke-linecap:square;paint-order:stroke fill markers"
         d="m 452.78682,224.36663 q -8.98432,0 -12.80266,-4.94138 -3.59373,-5.16598 -4.26757,-12.80265 -0.67381,-7.86128 -0.67381,-15.72256 0,-11.90423 -3.36913,-19.09168 -3.36912,-7.41207 -11.90421,-7.41207 -7.63667,0 -11.2304,7.41207 -3.59373,7.18745 -3.59373,19.09168 0,7.86128 -0.67384,15.49795 -0.44921,7.63667 -4.04294,12.80266 -3.59373,4.94137 -13.02726,4.94137 -6.96286,0 -11.67961,-5.16598 -4.49217,-5.16599 -6.96285,-13.47648 -2.47068,-8.3105 -3.59373,-17.96864 -0.89842,-9.65815 -0.89842,-18.64247 0,-8.98432 0.89842,-18.41785 0.89844,-9.43354 3.14452,-17.51943 2.47068,-8.08588 6.96285,-13.02726 4.49215,-4.94138 11.67961,-4.94138 12.80266,0 15.94715,11.67962 2.69531,-2.9199 8.53512,-5.39059 6.0644,-2.6953 13.70107,-2.6953 17.29484,0 28.30063,8.75971 11.00577,8.75972 15.94715,24.25767 5.16599,15.27334 4.94139,35.48806 0,10.33197 -2.02147,18.86707 -1.79687,8.3105 -6.51365,13.47648 -4.49215,4.94138 -12.80263,4.94138 z"
         id="path8" />
    </clipPath>
    <clipPath
       clipPathUnits="userSpaceOnUse"
       id="clipPath8">
      <path
         style="font-size:224.608px;line-height:393.415px;font-family:'Cherry Bomb One';-inkscape-font-specification:'Cherry Bomb One';letter-spacing:0px;fill:#bf4040;fill-opacity:1;stroke:none;stroke-width:2.11667;stroke-linecap:square;paint-order:stroke fill markers"
         d="m 452.78682,224.36663 q -8.98432,0 -12.80266,-4.94138 -3.59373,-5.16598 -4.26757,-12.80265 -0.67381,-7.86128 -0.67381,-15.72256 0,-11.90423 -3.36913,-19.09168 -3.36912,-7.41207 -11.90421,-7.41207 -7.63667,0 -11.2304,7.41207 -3.59373,7.18745 -3.59373,19.09168 0,7.86128 -0.67384,15.49795 -0.44921,7.63667 -4.04294,12.80266 -3.59373,4.94137 -13.02726,4.94137 -6.96286,0 -11.67961,-5.16598 -4.49217,-5.16599 -6.96285,-13.47648 -2.47068,-8.3105 -3.59373,-17.96864 -0.89842,-9.65815 -0.89842,-18.64247 0,-8.98432 0.89842,-18.41785 0.89844,-9.43354 3.14452,-17.51943 2.47068,-8.08588 6.96285,-13.02726 4.49215,-4.94138 11.67961,-4.94138 12.80266,0 15.94715,11.67962 2.69531,-2.9199 8.53512,-5.39059 6.0644,-2.6953 13.70107,-2.6953 17.29484,0 28.30063,8.75971 11.00577,8.75972 15.94715,24.25767 5.16599,15.27334 4.94139,35.48806 0,10.33197 -2.02147,18.86707 -1.79687,8.3105 -6.51365,13.47648 -4.49215,4.94138 -12.80263,4.94138 z"
         id="path11" />
    </clipPath>
    <clipPath
       clipPathUnits="userSpaceOnUse"
       id="clipPath11">
      <path
         style="font-size:224.608px;line-height:393.415px;font-family:'Cherry Bomb One';-inkscape-font-specification:'Cherry Bomb One';letter-spacing:0px;fill:#bf4040;fill-opacity:1;stroke:none;stroke-width:2.11667;stroke-linecap:square;paint-order:stroke fill markers"
         d="m 452.78682,224.36663 q -8.98432,0 -12.80266,-4.94138 -3.59373,-5.16598 -4.26757,-12.80265 -0.67381,-7.86128 -0.67381,-15.72256 0,-11.90423 -3.36913,-19.09168 -3.36912,-7.41207 -11.90421,-7.41207 -7.63667,0 -11.2304,7.41207 -3.59373,7.18745 -3.59373,19.09168 0,7.86128 -0.67384,15.49795 -0.44921,7.63667 -4.04294,12.80266 -3.59373,4.94137 -13.02726,4.94137 -6.96286,0 -11.67961,-5.16598 -4.49217,-5.16599 -6.96285,-13.47648 -2.47068,-8.3105 -3.59373,-17.96864 -0.89842,-9.65815 -0.89842,-18.64247 0,-8.98432 0.89842,-18.41785 0.89844,-9.43354 3.14452,-17.51943 2.47068,-8.08588 6.96285,-13.02726 4.49215,-4.94138 11.67961,-4.94138 12.80266,0 15.94715,11.67962 2.69531,-2.9199 8.53512,-5.39059 6.0644,-2.6953 13.70107,-2.6953 17.29484,0 28.30063,8.75971 11.00577,8.75972 15.94715,24.25767 5.16599,15.27334 4.94139,35.48806 0,10.33197 -2.02147,18.86707 -1.79687,8.3105 -6.51365,13.47648 -4.49215,4.94138 -12.80263,4.94138 z"
         id="path12" />
    </clipPath>
    <clipPath
       clipPathUnits="userSpaceOnUse"
       id="clipPath12">
      <path
         style="font-size:224.608px;line-height:393.415px;font-family:'Cherry Bomb One';-inkscape-font-specification:'Cherry Bomb One';letter-spacing:0px;fill:#bf4040;fill-opacity:1;stroke:none;stroke-width:2.11667;stroke-linecap:square;paint-order:stroke fill markers"
         d="m 452.78682,224.36663 q -8.98432,0 -12.80266,-4.94138 -3.59373,-5.16598 -4.26757,-12.80265 -0.67381,-7.86128 -0.67381,-15.72256 0,-11.90423 -3.36913,-19.09168 -3.36912,-7.41207 -11.90421,-7.41207 -7.63667,0 -11.2304,7.41207 -3.59373,7.18745 -3.59373,19.09168 0,7.86128 -0.67384,15.49795 -0.44921,7.63667 -4.04294,12.80266 -3.59373,4.94137 -13.02726,4.94137 -6.96286,0 -11.67961,-5.16598 -4.49217,-5.16599 -6.96285,-13.47648 -2.47068,-8.3105 -3.59373,-17.96864 -0.89842,-9.65815 -0.89842,-18.64247 0,-8.98432 0.89842,-18.41785 0.89844,-9.43354 3.14452,-17.51943 2.47068,-8.08588 6.96285,-13.02726 4.49215,-4.94138 11.67961,-4.94138 12.80266,0 15.94715,11.67962 2.69531,-2.9199 8.53512,-5.39059 6.0644,-2.6953 13.70107,-2.6953 17.29484,0 28.30063,8.75971 11.00577,8.75972 15.94715,24.25767 5.16599,15.27334 4.94139,35.48806 0,10.33197 -2.02147,18.86707 -1.79687,8.3105 -6.51365,13.47648 -4.49215,4.94138 -12.80263,4.94138 z"
         id="path14" />
    </clipPath>
    <clipPath
       clipPathUnits="userSpaceOnUse"
       id="clipPath15">
      <path
         style="font-size:224.608px;line-height:393.415px;font-family:'Cherry Bomb One';-inkscape-font-specification:'Cherry Bomb One';letter-spacing:0px;fill:#bf4040;fill-opacity:1;stroke:none;stroke-width:2.11667;stroke-linecap:square;paint-order:stroke fill markers"
         d="m 511.63431,224.36663 q -8.98433,0 -13.47647,-5.16598 -4.26755,-5.16599 -5.83981,-15.72256 -1.34765,-10.78119 -1.57226,-27.62679 0,-16.8456 1.34763,-27.62678 1.57226,-10.78119 6.06444,-15.72256 4.49214,-5.16599 13.47647,-5.16599 8.98432,0 13.25187,5.16599 4.49217,4.94137 6.06443,15.72256 1.57223,10.78118 1.57223,27.62678 0.22461,16.8456 -1.34762,27.62679 -1.57226,10.55657 -6.06444,15.72256 -4.49215,5.16598 -13.47647,5.16598 z"
         id="path16" />
    </clipPath>
    <clipPath
       clipPathUnits="userSpaceOnUse"
       id="clipPath17">
      <path
         style="font-size:224.608px;line-height:393.415px;font-family:'Cherry Bomb One';-inkscape-font-specification:'Cherry Bomb One';letter-spacing:0px;fill:#bf4040;fill-opacity:1;stroke:none;stroke-width:2.11667;stroke-linecap:square;paint-order:stroke fill markers"
         d="m 681.32926,224.3022 q -8.98433,0 -13.47647,-5.16597 -4.26755,-5.16599 -5.83981,-15.72257 -1.34765,-10.78118 -1.57226,-27.62678 0,-16.8456 1.34763,-27.62678 1.57226,-10.78119 6.06444,-15.72257 4.49214,-5.16598 13.47647,-5.16598 8.98432,0 13.25187,5.16598 4.49217,4.94138 6.06443,15.72257 1.57223,10.78118 1.57223,27.62678 0.22461,16.8456 -1.34762,27.62678 -1.57226,10.55658 -6.06444,15.72257 -4.49215,5.16597 -13.47647,5.16597 z"
         id="path17" />
    </clipPath>
    <clipPath
       clipPathUnits="userSpaceOnUse"
       id="clipPath18">
      <path
         style="font-size:224.608px;line-height:393.415px;font-family:'Cherry Bomb One';-inkscape-font-specification:'Cherry Bomb One';letter-spacing:0px;fill:#bf4040;fill-opacity:1;stroke:none;stroke-width:2.11667;stroke-linecap:square;paint-order:stroke fill markers"
         d="m 573.177,224.36663 q -7.63667,0 -12.57805,-4.94138 -4.71678,-5.16598 -7.18746,-13.70108 -2.47068,-8.53511 -3.36913,-19.5409 -0.89842,-11.00579 -0.89842,-22.68541 0,-7.86128 0.22461,-15.94717 0.44921,-8.31049 2.24607,-15.27334 2.02147,-6.96285 6.51362,-11.2304 4.71678,-4.49216 13.25187,-4.49216 6.06443,0 11.00582,2.9199 4.94136,2.6953 6.28901,8.3105 5.16599,-4.71677 13.02727,-6.73824 8.08587,-2.24608 16.62099,-2.24608 7.18746,0 14.59952,3.59373 7.41207,3.36912 12.57803,9.43353 5.16599,6.06442 5.16599,13.70109 0,6.51363 -4.94136,12.35344 -4.71678,5.83981 -13.4765,5.83981 -3.81831,0 -6.28901,-0.89843 -2.47068,-1.12304 -4.71676,-2.02147 -2.2461,-0.89844 -5.39059,-0.89844 -8.31051,0 -15.27337,6.73824 -6.73822,6.51364 -6.73822,17.74404 0,5.8398 -0.44921,12.80265 -0.22463,6.73824 -2.02147,13.02727 -1.57226,6.28902 -5.83983,10.33196 -4.26754,3.81834 -12.35342,3.81834 z"
         id="path19" />
    </clipPath>
    <clipPath
       clipPathUnits="userSpaceOnUse"
       id="clipPath19">
      <path
         style="font-size:224.608px;line-height:393.415px;font-family:'Cherry Bomb One';-inkscape-font-specification:'Cherry Bomb One';letter-spacing:0px;fill:#bf4040;fill-opacity:1;stroke:none;stroke-width:2.11667;stroke-linecap:square;paint-order:stroke fill markers"
         d="m 573.177,224.36663 q -7.63667,0 -12.57805,-4.94138 -4.71678,-5.16598 -7.18746,-13.70108 -2.47068,-8.53511 -3.36913,-19.5409 -0.89842,-11.00579 -0.89842,-22.68541 0,-7.86128 0.22461,-15.94717 0.44921,-8.31049 2.24607,-15.27334 2.02147,-6.96285 6.51362,-11.2304 4.71678,-4.49216 13.25187,-4.49216 6.06443,0 11.00582,2.9199 4.94136,2.6953 6.28901,8.3105 5.16599,-4.71677 13.02727,-6.73824 8.08587,-2.24608 16.62099,-2.24608 7.18746,0 14.59952,3.59373 7.41207,3.36912 12.57803,9.43353 5.16599,6.06442 5.16599,13.70109 0,6.51363 -4.94136,12.35344 -4.71678,5.83981 -13.4765,5.83981 -3.81831,0 -6.28901,-0.89843 -2.47068,-1.12304 -4.71676,-2.02147 -2.2461,-0.89844 -5.39059,-0.89844 -8.31051,0 -15.27337,6.73824 -6.73822,6.51364 -6.73822,17.74404 0,5.8398 -0.44921,12.80265 -0.22463,6.73824 -2.02147,13.02727 -1.57226,6.28902 -5.83983,10.33196 -4.26754,3.81834 -12.35342,3.81834 z"
         id="path20" />
    </clipPath>
    <clipPath
       clipPathUnits="userSpaceOnUse"
       id="clipPath20">
      <path
         style="font-size:224.608px;line-height:393.415px;font-family:'Cherry Bomb One';-inkscape-font-specification:'Cherry Bomb One';letter-spacing:0px;fill:#bf4040;fill-opacity:1;stroke:none;stroke-width:2.11667;stroke-linecap:square;paint-order:stroke fill markers"
         d="m 573.177,224.36663 q -7.63667,0 -12.57805,-4.94138 -4.71678,-5.16598 -7.18746,-13.70108 -2.47068,-8.53511 -3.36913,-19.5409 -0.89842,-11.00579 -0.89842,-22.68541 0,-7.86128 0.22461,-15.94717 0.44921,-8.31049 2.24607,-15.27334 2.02147,-6.96285 6.51362,-11.2304 4.71678,-4.49216 13.25187,-4.49216 6.06443,0 11.00582,2.9199 4.94136,2.6953 6.28901,8.3105 5.16599,-4.71677 13.02727,-6.73824 8.08587,-2.24608 16.62099,-2.24608 7.18746,0 14.59952,3.59373 7.41207,3.36912 12.57803,9.43353 5.16599,6.06442 5.16599,13.70109 0,6.51363 -4.94136,12.35344 -4.71678,5.83981 -13.4765,5.83981 -3.81831,0 -6.28901,-0.89843 -2.47068,-1.12304 -4.71676,-2.02147 -2.2461,-0.89844 -5.39059,-0.89844 -8.31051,0 -15.27337,6.73824 -6.73822,6.51364 -6.73822,17.74404 0,5.8398 -0.44921,12.80265 -0.22463,6.73824 -2.02147,13.02727 -1.57226,6.28902 -5.83983,10.33196 -4.26754,3.81834 -12.35342,3.81834 z"
         id="path21" />
    </clipPath>
    <clipPath
       clipPathUnits="userSpaceOnUse"
       id="clipPath21">
      <path
         style="font-size:224.608px;line-height:393.415px;font-family:'Cherry Bomb One';-inkscape-font-specification:'Cherry Bomb One';letter-spacing:0px;fill:#bf4040;fill-opacity:1;stroke:none;stroke-width:2.11667;stroke-linecap:square;paint-order:stroke fill markers"
         d="m 573.177,224.36663 q -7.63667,0 -12.57805,-4.94138 -4.71678,-5.16598 -7.18746,-13.70108 -2.47068,-8.53511 -3.36913,-19.5409 -0.89842,-11.00579 -0.89842,-22.68541 0,-7.86128 0.22461,-15.94717 0.44921,-8.31049 2.24607,-15.27334 2.02147,-6.96285 6.51362,-11.2304 4.71678,-4.49216 13.25187,-4.49216 6.06443,0 11.00582,2.9199 4.94136,2.6953 6.28901,8.3105 5.16599,-4.71677 13.02727,-6.73824 8.08587,-2.24608 16.62099,-2.24608 7.18746,0 14.59952,3.59373 7.41207,3.36912 12.57803,9.43353 5.16599,6.06442 5.16599,13.70109 0,6.51363 -4.94136,12.35344 -4.71678,5.83981 -13.4765,5.83981 -3.81831,0 -6.28901,-0.89843 -2.47068,-1.12304 -4.71676,-2.02147 -2.2461,-0.89844 -5.39059,-0.89844 -8.31051,0 -15.27337,6.73824 -6.73822,6.51364 -6.73822,17.74404 0,5.8398 -0.44921,12.80265 -0.22463,6.73824 -2.02147,13.02727 -1.57226,6.28902 -5.83983,10.33196 -4.26754,3.81834 -12.35342,3.81834 z"
         id="path22" />
    </clipPath>
    <clipPath
       clipPathUnits="userSpaceOnUse"
       id="clipPath23">
      <path
         style="font-size:224.608px;line-height:393.415px;font-family:'Cherry Bomb One';-inkscape-font-specification:'Cherry Bomb One';letter-spacing:0px;fill:#bf4040;fill-opacity:1;stroke:none;stroke-width:2.11667;stroke-linecap:square;paint-order:stroke fill markers"
         d="m 681.43807,224.36663 q -8.98432,0 -13.47647,-5.16598 -4.26757,-5.16599 -5.83983,-15.72256 -1.34763,-10.78119 -1.57226,-27.62679 0,-16.8456 1.34765,-27.62678 1.57226,-10.78119 6.06444,-15.72256 4.49215,-5.16599 13.47647,-5.16599 8.98432,0 13.25187,5.16599 4.49215,4.94137 6.06441,15.72256 1.57226,10.78118 1.57226,27.62678 0.2246,16.8456 -1.34766,27.62679 -1.57223,10.55657 -6.06441,15.72256 -4.49215,5.16598 -13.47647,5.16598 z"
         id="path25" />
    </clipPath>
    <clipPath
       clipPathUnits="userSpaceOnUse"
       id="clipPath25">
      <path
         style="font-size:224.608px;line-height:393.415px;font-family:'Cherry Bomb One';-inkscape-font-specification:'Cherry Bomb One';letter-spacing:0px;fill:#bf4040;fill-opacity:1;stroke:none;stroke-width:2.11667;stroke-linecap:square;paint-order:stroke fill markers"
         d="m 681.43807,224.36663 q -8.98432,0 -13.47647,-5.16598 -4.26757,-5.16599 -5.83983,-15.72256 -1.34763,-10.78119 -1.57226,-27.62679 0,-16.8456 1.34765,-27.62678 1.57226,-10.78119 6.06444,-15.72256 4.49215,-5.16599 13.47647,-5.16599 8.98432,0 13.25187,5.16599 4.49215,4.94137 6.06441,15.72256 1.57226,10.78118 1.57226,27.62678 0.2246,16.8456 -1.34766,27.62679 -1.57223,10.55657 -6.06441,15.72256 -4.49215,5.16598 -13.47647,5.16598 z"
         id="path26" />
    </clipPath>
    <clipPath
       clipPathUnits="userSpaceOnUse"
       id="clipPath34">
      <path
         id="path35"
         style="fill:#bf4040;fill-opacity:1;stroke-width:2.11667;stroke-linecap:square;paint-order:stroke fill markers"
         d="m 169.33334,220.13334 c 0,8.46667 -4.23334,16.93333 -33.86667,16.93333 -29.63333,0 -33.86667,-8.46666 -33.86667,-16.93333 0,-12.7 8.46667,-21.16667 33.86667,-21.16667 25.4,0 33.86667,8.46667 33.86667,21.16667 z" />
    </clipPath>
    <clipPath
       clipPathUnits="userSpaceOnUse"
       id="clipPath35">
      <path
         id="path36"
         style="fill:#bf4040;fill-opacity:1;stroke-width:2.11667;stroke-linecap:square;paint-order:stroke fill markers"
         d="m 715.91343,141.3418 c 0,8.46667 -4.23334,16.93332 -33.86667,16.93332 -29.63333,0 -33.86667,-8.46665 -33.86667,-16.93332 0,-12.7 8.46667,-21.16668 33.86667,-21.16668 25.4,0 33.86667,8.46668 33.86667,21.16668 z" />
    </clipPath>
    <filter
       style="color-interpolation-filters:sRGB"
       id="filter61"
       x="-0.43233621"
       y="-0.31282973"
       width="1.8646724"
       height="1.6256595">
      <feGaussianBlur
         stdDeviation="18.492881"
         id="feGaussianBlur61" />
    </filter>
    <linearGradient
       inkscape:collect="always"
       xlink:href="#linearGradient40"
       id="linearGradient41"
       x1="364.06616"
       y1="224.36601"
       x2="544.73029"
       y2="-51.757523"
       gradientUnits="userSpaceOnUse" />
  </defs>
  <g
     id="layer1"
     transform="translate(86.850271,-68.660142)">
    <g
       id="g70"
       transform="matrix(0.5970241,0,0,0.5970241,-300.22456,23.402945)"
       inkscape:label="LOGO">
      <g
         id="g23"
         inkscape:label="OUTLINE"
         transform="translate(-3.7962151,4.2463771)">
        <path
           id="path1"
           style="font-size:224.608px;line-height:393.415px;font-family:'Cherry Bomb One';-inkscape-font-specification:'Cherry Bomb One';letter-spacing:0px;fill:#2d2d2d;fill-opacity:1;stroke:none;stroke-width:2.11667;stroke-linecap:square;paint-order:stroke fill markers"
           d="m 682.62547,119.9344 c -5.82472,0.15452 -11.86008,2.1601 -15.87109,6.53906 -4.40852,4.79146 -6.47258,11.21886 -7.47899,17.53454 -1.32256,8.95661 -1.50332,18.0318 -1.60383,27.0705 -0.0342,10.51093 0.37835,21.04059 1.68178,31.47549 0.95154,6.40002 2.84169,12.90893 6.98626,18.00714 3.77623,4.44734 9.62692,6.644 15.3472,6.94966 4.95117,0.2877 10.13017,-0.34869 14.51031,-2.80922 3.43975,-1.8997 6.2221,-4.87379 8.03208,-8.34989 3.60368,-6.53945 4.56414,-14.09353 5.19891,-21.41933 0.89527,-10.94486 0.68577,-21.94324 0.36677,-32.90858 -0.33009,-8.17527 -0.83709,-16.43455 -3.04081,-24.35286 -1.62617,-5.47011 -4.57978,-10.82545 -9.38306,-14.10385 -4.29754,-2.90631 -9.64446,-3.79706 -14.74553,-3.63266 z" />
        <path
           id="path2"
           style="font-size:224.608px;line-height:393.415px;font-family:'Cherry Bomb One';-inkscape-font-specification:'Cherry Bomb One';letter-spacing:0px;fill:#2d2d2d;fill-opacity:1;stroke:none;stroke-width:2.11667;stroke-linecap:square;paint-order:stroke fill markers"
           d="m 572.6157,109.15119 c -6.04139,0.14653 -12.29385,2.20211 -16.49986,6.69535 -4.90779,5.02974 -7.45805,11.90224 -8.47649,18.75582 -1.63088,9.32353 -1.33267,18.82734 -1.38274,28.2523 0.0871,12.32831 0.6019,24.73414 3.0855,36.84197 1.52581,7.0944 3.99558,14.19652 8.60259,19.90723 3.07753,3.72432 7.39338,6.43998 12.15207,7.37476 5.40625,1.17606 11.16732,0.66195 16.30537,-1.37118 4.43836,-1.87456 7.92924,-5.55082 10.08543,-9.80958 2.80026,-5.43667 3.82574,-11.57193 4.42173,-17.59787 0.58635,-6.36203 0.47871,-12.76065 0.83746,-19.13434 0.42881,-4.67447 2.70568,-9.21431 6.46302,-12.08718 3.49777,-2.84366 8.21632,-4.62851 12.72624,-3.54017 2.42121,0.68847 4.59458,2.05409 7.03007,2.71747 3.09285,0.82046 6.35053,0.92346 9.52633,0.64045 4.88362,-0.46238 9.69381,-2.42805 13.18129,-5.93536 4.65574,-4.65677 7.81653,-11.06229 7.70533,-17.73467 -0.004,-6.7272 -2.90314,-13.2912 -7.55164,-18.1041 -5.9472,-6.44121 -14.00093,-10.74753 -22.47994,-12.79183 -6.91429,-1.50131 -14.08318,-0.79143 -20.97317,0.47792 -4.94855,0.97762 -9.84738,2.47336 -14.25468,4.9684 -3.63353,-4.72274 -9.41368,-7.3403 -15.19531,-8.23437 -1.75639,-0.25885 -3.53477,-0.34262 -5.3086,-0.29102 z" />
        <path
           id="path3"
           style="font-size:224.608px;line-height:393.415px;font-family:'Cherry Bomb One';-inkscape-font-specification:'Cherry Bomb One';letter-spacing:0px;fill:#2d2d2d;fill-opacity:1;stroke:none;stroke-width:2.11667;stroke-linecap:square;paint-order:stroke fill markers"
           d="m 512.52195,119.94026 c -5.8113,0.22218 -11.81912,2.29479 -15.75404,6.73144 -4.40908,4.9242 -6.43354,11.47231 -7.37078,17.8981 -1.2233,8.39655 -1.3895,16.90112 -1.51884,25.37235 -0.0847,10.90792 0.3304,21.838 1.68155,32.66715 0.96025,6.43823 2.88115,12.99226 7.09493,18.08877 3.85791,4.44153 9.78408,6.5908 15.55604,6.83099 5.50593,0.2841 11.32384,-0.6471 15.89903,-3.90521 2.9196,-2.01321 5.15703,-4.8745 6.72202,-8.03438 3.43299,-6.69489 4.268,-14.30899 4.87771,-21.70039 0.79863,-10.67205 0.59542,-21.38827 0.27203,-32.0756 -0.32908,-8.1888 -0.85978,-16.46247 -3.10132,-24.38453 -1.6728,-5.5044 -4.72951,-10.87117 -9.63958,-14.07854 -4.34262,-2.77965 -9.64231,-3.61327 -14.71875,-3.41015 z" />
        <path
           id="path15"
           style="font-size:224.608px;line-height:393.415px;font-family:'Cherry Bomb One';-inkscape-font-specification:'Cherry Bomb One';letter-spacing:0px;fill:#2d2d2d;fill-opacity:1;stroke:none;stroke-width:2.11667;stroke-linecap:square;paint-order:stroke fill markers"
           d="m 388.19578,107.58088 c -6.59946,0.11285 -12.98853,3.66425 -16.65637,9.13759 -4.73278,6.39017 -6.93542,14.2339 -8.20158,21.98018 -2.075,12.00732 -2.39441,24.24928 -1.99752,36.40567 0.46691,11.31284 1.8967,22.71901 5.76655,33.41364 2.14803,5.7591 5.38445,11.367 10.40728,15.07269 4.28264,3.07131 9.73632,4.20141 14.93201,3.66134 4.8396,-0.35504 9.85676,-1.92973 13.23485,-5.57715 3.4326,-3.71903 5.13671,-8.70382 5.90745,-13.62689 0.66666,-4.50261 0.77109,-9.06528 0.98233,-13.60574 0.16353,-5.96145 -0.0999,-11.94916 1.44922,-17.76953 0.29882,-1.07477 0.68951,-2.38637 1.18154,-3.49972 0.91357,-2.00273 2.04538,-4.2314 4.23409,-5.0583 2.46192,-0.9272 5.43246,-0.64977 7.59381,0.88593 1.6028,1.14569 2.28113,3.08762 2.99717,4.83899 1.17476,3.3552 1.69742,6.94233 1.92655,10.42785 0.33099,5.60399 0.12035,11.33087 0.58535,16.97779 0.33311,6.05219 1.25364,12.30755 4.48278,17.56077 1.97206,3.29407 5.04276,5.94919 8.69438,7.19933 5.02273,1.87732 10.59465,1.98245 15.80296,0.87607 4.5313,-1.03681 8.70636,-3.61931 11.54034,-7.32031 4.38054,-5.39339 6.43775,-12.24119 7.51436,-19.00307 1.69849,-10.06933 1.50826,-20.35604 0.63601,-30.49766 -1.1446,-11.57284 -3.89518,-23.14015 -9.34364,-33.47702 -5.11053,-9.38482 -13.14462,-17.39732 -23.10805,-21.49222 -8.78507,-3.5774 -18.51454,-4.59587 -27.90132,-3.46592 -4.77585,0.70817 -9.37234,2.4079 -13.59219,4.73108 -2.92297,-4.41363 -7.72452,-7.51678 -12.95898,-8.33594 -2.01368,-0.36659 -4.06526,-0.47969 -6.10938,-0.43945 z" />
        <path
           id="path18"
           style="display:inline;mix-blend-mode:normal;fill:#2d2d2d;fill-opacity:1;stroke:none;stroke-width:2.11667;stroke-linecap:square;paint-order:stroke fill markers"
           d="m 495.80516,33.797682 c -4.75498,0.243275 -8.9874,3.739805 -10.55395,8.170131 -2.10977,5.049993 -2.28849,10.608339 -2.56667,15.997046 -0.24963,7.779343 -0.0347,15.593329 -0.52168,23.331049 -0.32865,7.363114 -0.47425,14.964749 2.01399,22.010912 2.13051,5.87629 6.56979,10.87712 12.19532,13.62036 2.34666,1.18336 4.95478,2.2169 7.62945,1.97617 3.25061,-0.38916 6.14603,-3.11824 6.40431,-6.43868 0.44852,-3.21977 -1.27846,-6.14087 -2.34491,-9.05176 -1.19962,-3.503706 -1.75155,-7.298986 -1.46485,-11.056635 0.30996,-3.851645 0.89222,-7.72913 2.21968,-11.371955 0.1173,-0.680148 0.52449,-0.882354 1.11595,-0.52069 4.68206,1.513415 8.60998,4.991582 11.04914,9.222723 1.87617,3.685417 2.11849,8.167271 0.55078,12.005857 -0.31617,0.84974 -0.88243,1.89787 -1.38366,2.77595 -1.54106,2.70175 -2.7263,5.96152 -1.75317,9.06587 0.82316,3.00141 3.85928,5.08015 6.93289,4.99252 3.20902,-0.0509 6.14029,-1.6698 8.74914,-3.39949 6.38386,-4.23714 10.48329,-11.40209 11.73164,-18.884637 1.29545,-6.602599 0.92707,-13.614464 -1.64856,-19.87392 -3.1279,-8.006195 -8.47886,-14.914457 -14.30797,-21.139181 -6.27071,-6.581883 -13.39028,-12.372617 -21.17234,-17.076426 -3.30463,-1.892542 -6.79409,-3.687511 -10.59703,-4.273903 -0.75539,-0.09525 -1.51727,-0.116114 -2.2775,-0.08131 z" />
        <path
           id="path23"
           style="display:inline;mix-blend-mode:normal;fill:#2d2d2d;fill-opacity:1;stroke:none;stroke-width:2.11667;stroke-linecap:square;paint-order:stroke fill markers"
           d="m 665.14891,33.797682 c -4.75615,0.237978 -8.99371,3.732408 -10.56286,8.162673 -2.11383,5.071391 -2.2938,10.650907 -2.57227,16.061119 -0.24493,7.602156 -0.0286,15.234581 -0.49593,22.796445 -0.3377,7.407312 -0.54296,15.046247 1.87557,22.162301 2.02327,5.81926 6.28665,10.83661 11.77362,13.66348 2.40412,1.29495 5.07707,2.39378 7.85296,2.29656 3.30221,-0.26623 6.34833,-2.92574 6.69306,-6.28445 0.50228,-3.05309 -0.99671,-5.9039 -2.10047,-8.64414 -1.0498,-2.8801 -1.67275,-5.877886 -1.74884,-8.905395 -0.013,-3.778091 0.48148,-7.560416 1.37368,-11.229454 0.33074,-1.24145 0.71181,-2.476701 1.25913,-3.641639 4.5687,1.200924 8.43876,4.38442 11.08444,8.228963 2.69635,4.073274 3.06985,9.531199 0.97415,13.941715 -1.13659,2.31698 -2.60891,4.53928 -3.03906,7.134 -0.54459,2.68333 0.31654,5.68832 2.51563,7.40626 1.94663,1.66628 4.72217,1.88285 7.11715,1.23754 2.67692,-0.71604 5.07898,-2.20286 7.32426,-3.78637 5.52251,-4.14996 9.17715,-10.5029 10.49322,-17.242853 1.35085,-6.355742 1.28161,-13.120008 -0.9139,-19.282771 -2.65323,-7.654088 -7.47791,-14.335188 -12.77464,-20.376719 -6.33857,-7.101989 -13.7079,-13.267242 -21.70703,-18.416015 -3.54825,-2.154819 -7.28343,-4.171437 -11.36328,-5.087891 -1.01013,-0.174324 -2.03449,-0.241622 -3.05859,-0.193359 z" />
      </g>
      <path
         id="path50"
         style="font-size:224.608px;line-height:393.415px;font-family:'Cherry Bomb One';-inkscape-font-specification:'Cherry Bomb One';letter-spacing:0px;display:inline;fill:url(#linearGradient41);fill-opacity:1;stroke:none;stroke-width:2.11667;stroke-linecap:square;paint-order:stroke fill markers"
         d="m 494.34766,41.193505 c -8.89614,0 -8.89504,13.345618 -8.89504,31.137904 0,11.661898 -2.22563,24.464205 2.22245,33.360351 2.7424,5.4848 7.34049,8.26926 11.17541,9.67974 3.51005,1.29099 4.81979,-1.04842 3.25467,-4.45279 -1.65954,-3.60974 -3.30997,-8.59007 -3.30997,-14.121994 0,-6.942354 2.22453,-20.017783 6.6726,-20.017788 3.18256,-5e-6 8.89712,2.224523 13.34519,6.672596 4.44807,4.448073 6.66996,8.895528 6.66996,15.567635 0,3.724441 -1.46692,7.358991 -3.2099,10.361751 -2.59416,4.46915 -1.30158,7.37249 3.36263,5.19535 6.15691,-2.8739 13.19246,-9.44143 13.19246,-24.45214 0,-22.240356 -35.58431,-48.930615 -44.48046,-48.930615 z m 169.33226,0 c -8.89614,0 -8.89504,13.345618 -8.89504,31.137904 0,11.661898 -2.22299,24.464205 2.22508,33.360351 2.7424,5.4848 7.3405,8.26926 11.17541,9.67974 3.51006,1.29099 4.81979,-1.04842 3.25467,-4.45279 -1.65953,-3.60974 -3.30996,-8.59007 -3.30996,-14.121994 0,-6.942354 2.22189,-20.017783 6.66996,-20.017788 3.18256,-5e-6 8.89712,2.224523 13.34519,6.672596 4.44807,4.448073 6.6726,8.895528 6.6726,15.567635 0,3.724441 -1.46693,7.358991 -3.20991,10.361751 -2.59416,4.46915 -1.30421,7.37249 3.36,5.19535 6.15692,-2.8739 13.19247,-9.44143 13.19247,-24.45214 0,-22.240356 -35.58432,-48.930615 -44.48047,-48.930615 z M 386.75139,114.98178 c -4.79163,0 -8.68358,1.64831 -11.67836,4.94256 -2.99477,3.29426 -5.31512,7.63599 -6.96225,13.02658 -1.49738,5.39059 -2.54775,11.22982 -3.1467,17.51885 -0.59896,6.28902 -0.89793,12.42987 -0.89793,18.41942 0,5.98955 0.29897,12.20184 0.89793,18.64061 0.74869,6.43876 1.94723,12.42881 3.59435,17.96914 1.64712,5.54033 3.96748,10.03286 6.96225,13.47685 3.14452,3.44399 7.0391,5.16639 11.681,5.16639 6.28902,0 10.63075,-1.64832 13.02657,-4.94256 2.39582,-3.444 3.74252,-7.71164 4.042,-12.80275 0.44921,-5.09111 0.67411,-10.25569 0.67411,-15.49654 0,-7.93615 1.19853,-14.29926 3.59435,-19.09089 2.39582,-4.94138 6.1396,-7.41253 11.23071,-7.41253 5.69007,0 9.65874,2.47115 11.90482,7.41253 2.24608,4.79163 3.36789,11.15474 3.36789,19.09089 0,5.24085 0.22489,10.48214 0.67411,15.723 0.44921,5.09111 1.87264,9.35876 4.26846,12.80274 2.54556,3.29426 6.8132,4.93994 12.80275,4.93994 5.54032,0 9.80797,-1.64568 12.80274,-4.93994 3.14452,-3.44398 5.31407,-7.93652 6.51197,-13.47685 1.34766,-5.69007 2.02232,-11.97909 2.02232,-18.86707 0.14973,-13.47648 -1.49858,-25.30576 -4.94256,-35.48799 -3.29426,-10.33197 -8.60963,-18.41747 -15.94682,-24.25728 -7.3372,-5.83981 -16.76941,-8.76075 -28.29929,-8.76075 -5.09111,0 -9.65774,0.89956 -13.70068,2.69643 -3.8932,1.64712 -6.74005,3.44361 -8.53692,5.39021 -2.09634,-7.78641 -7.41171,-11.68099 -15.94682,-11.68099 z m 184.62868,1.57203 c -5.69007,0 -10.10852,1.49752 -13.25303,4.49229 -2.99477,2.84503 -5.16432,6.58881 -6.51197,11.23071 -1.19791,4.6419 -1.94666,9.73239 -2.24614,15.27271 -0.14974,5.3906 -0.22383,10.7086 -0.22383,15.94946 0,7.78641 0.29898,15.34805 0.89793,22.68524 0.59896,7.3372 1.72078,13.8511 3.3679,19.54118 1.64713,5.69006 4.0442,10.25669 7.18871,13.70067 3.29425,3.29426 7.48518,4.93994 12.57629,4.93994 5.39059,0 9.51006,-1.27262 12.3551,-3.81818 2.84503,-2.6953 4.79232,-6.1401 5.84049,-10.33278 1.19791,-4.19269 1.86995,-8.53441 2.01969,-13.02657 0.29947,-4.6419 0.45028,-8.90955 0.45028,-12.80275 0,-7.48693 2.24627,-13.40025 6.73843,-17.74268 4.6419,-4.49216 9.73238,-6.73843 15.27271,-6.73843 2.09634,0 3.89283,0.29897 5.39022,0.89793 1.49738,0.59896 3.06898,1.27363 4.7161,2.02232 1.64713,0.59895 3.74523,0.89793 6.29078,0.89793 5.83981,0 10.33234,-1.94729 13.47686,-5.8405 3.29425,-3.8932 4.93993,-8.01004 4.93993,-12.35246 0,-5.09111 -1.7224,-9.65773 -5.16639,-13.70068 -3.44399,-4.04294 -7.63492,-7.18877 -12.57629,-9.43485 -4.94138,-2.39582 -9.80961,-3.59435 -14.60124,-3.59435 -5.69008,0 -11.23033,0.74875 -16.62093,2.24614 -5.24085,1.34765 -9.58258,3.59391 -13.02657,6.73843 -0.89843,-3.74347 -2.9939,-6.5136 -6.28814,-8.31047 -3.29426,-1.9466 -6.96394,-2.92025 -11.00689,-2.92025 z m -59.74528,10.78307 c -5.98954,0 -10.48208,1.72239 -13.47685,5.16639 -2.99477,3.29424 -5.01615,8.5329 -6.06432,15.72036 -0.89843,7.18745 -1.34821,16.39741 -1.34821,27.62781 0.14973,11.2304 0.6736,20.44035 1.57203,27.62781 1.04818,7.03772 2.99547,12.27637 5.8405,15.72037 2.99477,3.44398 7.48731,5.16639 13.47685,5.16639 5.98955,0 10.48208,-1.72241 13.47686,-5.16639 2.99477,-3.444 5.01614,-8.68265 6.06432,-15.72037 1.04816,-7.18746 1.49532,-16.39741 1.34558,-27.62781 0,-11.2304 -0.52387,-20.44036 -1.57204,-27.62781 -1.04817,-7.18746 -3.06955,-12.42612 -6.06432,-15.72036 -2.84503,-3.444 -7.26085,-5.16639 -13.2504,-5.16639 z m 169.80361,0 c -5.98954,0 -10.48208,1.72239 -13.47685,5.16639 -2.99477,3.29424 -5.01615,8.5329 -6.06432,15.72036 -0.89843,7.18745 -1.34821,16.39741 -1.34821,27.62781 0.14974,11.2304 0.6736,20.44035 1.57203,27.62781 1.04817,7.03772 2.99546,12.27637 5.8405,15.72037 2.99477,3.44398 7.48731,5.16639 13.47685,5.16639 5.98955,0 10.48208,-1.72241 13.47686,-5.16639 2.99477,-3.444 5.01615,-8.68265 6.06432,-15.72037 1.04817,-7.18746 1.49795,-16.39741 1.34821,-27.62781 0,-11.2304 -0.5265,-20.44036 -1.57467,-27.62781 -1.04817,-7.18746 -3.06955,-12.42612 -6.06432,-15.72036 -2.84503,-3.444 -7.26085,-5.16639 -13.2504,-5.16639 z"
         transform="translate(-4.8972753e-6)" />
      <g
         id="g56"
         clip-path="none"
         inkscape:label="I2">
        <path
           style="mix-blend-mode:lighten;fill:#ffffff;fill-opacity:0.745098;fill-rule:nonzero;stroke:none;stroke-width:1.292;stroke-linecap:round;stroke-linejoin:round;stroke-opacity:1;filter:url(#filter24)"
           d="m 663.74595,140.4318 c 0.56979,-1.23815 1.6596,-3.06661 3.45102,-4.81664 0.90735,-0.88639 1.83543,-1.60367 2.75858,-2.23305 0.46707,-0.31845 0.95496,-0.62367 1.46612,-0.91253 2.90323,-1.64065 6.25938,-2.56926 9.75852,-2.56687 0.0572,4e-5 0.11442,3.3e-4 0.17151,8.7e-4 3.44818,0.0328 6.74561,0.98469 9.60455,2.54496 0.5569,0.30394 1.0871,0.62484 1.59382,0.95846 0.88544,0.58298 1.77615,1.23325 2.65706,2.02902 1.81333,1.63809 2.93862,3.33614 3.52992,4.49601 -0.27178,-1.22044 -0.7818,-3.33176 -2.20401,-5.59401 -0.69472,-1.10506 -1.51406,-2.09304 -2.40931,-2.91894 -0.51569,-0.47573 -1.07947,-0.92722 -1.68865,-1.34848 -3.14653,-2.17586 -7.0794,-3.26695 -11.05933,-3.29138 -0.0664,-4.1e-4 -0.13285,-5.2e-4 -0.19941,-3.3e-4 -4.0438,0.0117 -8.03841,1.14323 -11.21303,3.43671 -0.55504,0.40098 -1.07075,0.82766 -1.54562,1.27508 -0.93405,0.88007 -1.78415,1.93586 -2.49948,3.12584 -1.40149,2.33139 -1.90618,4.52942 -2.17226,5.81528 z"
           id="path4"
           clip-path="url(#clipPath25)" />
        <path
           style="mix-blend-mode:darken;fill:#000000;fill-opacity:0.74902;fill-rule:nonzero;stroke:none;stroke-width:1.292;stroke-linecap:round;stroke-linejoin:round;filter:url(#filter58)"
           d="m 665.74495,215.42741 c 0.25098,0.71266 0.74312,1.99176 1.95672,3.42624 0.5248,0.62032 1.12183,1.19323 1.7627,1.69405 0.48184,0.37655 1.01656,0.74452 1.60462,1.09558 2.55664,1.52628 5.78799,2.53144 9.18187,2.74033 0,0 0.0243,0.001 0.0243,0.001 3.41838,0.20655 6.89934,-0.39129 9.90766,-1.81613 0.64998,-0.30785 1.258,-0.6449 1.82314,-1.00462 2.95986,-1.88402 4.52556,-4.3869 5.40307,-6.02372 -1.32912,1.5226 -3.32515,3.08144 -6.29121,4.36681 -0.55335,0.2398 -1.13356,0.46253 -1.74306,0.66422 -2.82848,0.93599 -5.87029,1.27841 -8.94036,1.1037 0,0 -0.0217,-0.001 -0.0217,-0.001 -3.05462,-0.17625 -5.92122,-0.84172 -8.39792,-1.88332 -0.5649,-0.23758 -1.08911,-0.48607 -1.57532,-0.74008 -0.65105,-0.34013 -1.28693,-0.70167 -1.9089,-1.11539 -1.43537,-0.95479 -2.31389,-1.88047 -2.78562,-2.50791 z"
           id="path30"
           clip-path="url(#clipPath23)" />
      </g>
      <g
         id="g16"
         clip-path="none"
         style="fill:#bf4040;fill-opacity:1;stroke:none"
         inkscape:label="R">
        <path
           style="mix-blend-mode:lighten;fill:#ffffff;fill-opacity:0.745098;fill-rule:nonzero;stroke:none;stroke-width:1.292;stroke-linecap:round;stroke-linejoin:round;stroke-opacity:1;filter:url(#filter22)"
           d="m 550.17453,140.76877 c 0.40053,-1.32463 1.39921,-4.41095 2.53117,-7.15636 0.0494,-0.1197 0.10014,-0.24093 0.15236,-0.36348 0.78399,-1.83987 1.84396,-3.87834 3.29912,-5.72505 1.22269,-1.54928 2.62644,-2.77167 4.13858,-3.74949 1.52996,-0.98934 3.0812,-1.67156 4.51705,-2.20635 0.0644,-0.024 0.12921,-0.0478 0.19449,-0.0716 1.42323,-0.51759 3.19367,-1.02914 5.21428,-1.38964 2.11261,-0.37692 4.25876,-0.54412 6.23593,-0.43896 2.16923,0.11351 3.95638,0.59265 5.37344,1.18977 0.0971,0.0409 0.19391,0.0827 0.29033,0.12519 2.34541,1.03467 4.0512,2.37559 4.93078,3.15517 -0.64814,-0.90371 -2.02557,-2.76791 -4.25691,-4.33718 -0.0934,-0.0657 -0.18766,-0.13043 -0.28291,-0.19426 -1.37597,-0.92217 -3.22374,-1.91467 -5.65351,-2.51673 -2.17424,-0.54027 -4.60503,-0.76289 -7.0326,-0.64951 -2.3012,0.10747 -4.46727,0.51157 -6.23234,1.14683 -0.0824,0.0296 -0.16443,0.06 -0.2462,0.0911 -1.75405,0.6668 -3.59097,1.70925 -5.28016,3.18153 -1.67261,1.45784 -3.06433,3.21678 -4.13443,5.23396 -1.2324,2.32638 -1.93805,4.7471 -2.41954,6.70907 -0.0328,0.13378 -0.0647,0.26574 -0.0956,0.39557 -0.68782,2.89225 -1.06983,6.24842 -1.24338,7.5704 z"
           id="path6"
           clip-path="url(#clipPath21)"
           sodipodi:nodetypes="csscsscscsccsccsccscsccc" />
        <path
           style="mix-blend-mode:lighten;fill:#ffffff;fill-opacity:0.745098;fill-rule:nonzero;stroke:none;stroke-width:1.292;stroke-linecap:round;stroke-linejoin:round;stroke-opacity:1;filter:url(#filter23)"
           d="m 605.08878,120.33572 c 0.007,0.0715 0.23481,0.14824 1.30824,0.19957 1.04326,0.0499 2.88398,0.0681 5.0867,0.13007 1.86056,0.0524 3.7503,0.13468 5.55228,0.28906 0.42586,0.0365 0.83465,0.076 1.22716,0.11852 0.49076,0.0532 0.96719,0.11395 1.42436,0.18293 0.83625,0.12616 1.60162,0.2789 2.26575,0.46014 2.67015,0.71961 5.50907,1.86307 8.21419,3.20831 1.1283,0.56111 2.24494,1.16342 3.31169,1.78664 0.12228,0.0714 0.24423,0.14342 0.36578,0.21594 1.08787,0.64901 2.11987,1.32661 3.03046,2.00557 1.8562,1.38393 3.47101,2.5556 4.92328,3.8261 1.49077,1.30418 2.71467,2.63208 3.85394,4.28866 0.19065,0.2784 0.36901,0.54378 0.53725,0.799 0.38043,0.57707 0.74281,1.14007 1.08394,1.70763 0.47952,0.79781 0.89845,1.57385 1.27333,2.40228 0.40638,0.89803 0.73227,1.79543 1.00834,2.72357 0.38047,1.27916 0.63915,2.53778 0.77605,3.35694 0.0439,-0.73591 0.15594,-2.20244 0.18352,-3.48365 0.0212,-0.98633 10e-4,-2.02306 -0.12006,-3.09122 -0.11318,-0.99578 -0.31022,-1.98372 -0.62086,-2.99828 -0.2208,-0.72114 -0.49166,-1.43129 -0.80908,-2.13242 -0.14032,-0.30995 -0.29311,-0.62898 -0.45961,-0.95885 -1.0601,-2.09197 -2.36552,-3.84696 -4.00587,-5.4871 -1.55022,-1.55001 -3.32266,-2.91861 -5.14803,-4.27696 -1.0669,-0.794 -2.25493,-1.54393 -3.47456,-2.22007 -0.13706,-0.076 -0.27446,-0.15101 -0.4121,-0.22504 -1.20046,-0.64572 -2.45572,-1.23035 -3.72449,-1.74469 -3.04543,-1.23456 -6.23774,-2.09375 -9.24532,-2.48094 -0.80321,-0.10539 -1.678,-0.16684 -2.5818,-0.19718 -0.49706,-0.0167 -1.00787,-0.0241 -1.52664,-0.0238 -0.41488,2.2e-4 -0.84475,0.006 -1.28825,0.0184 -1.85121,0.0502 -3.82657,0.19991 -5.67728,0.4027 -2.26461,0.24813 -4.04448,0.54135 -5.077,0.76596 -1.05545,0.22959 -1.26207,0.36636 -1.25531,0.43223 z"
           id="path7"
           clip-path="url(#clipPath20)" />
        <path
           style="mix-blend-mode:darken;fill:#000000;fill-opacity:0.74902;fill-rule:nonzero;stroke:none;stroke-width:1.292;stroke-linecap:round;stroke-linejoin:round;filter:url(#filter56)"
           d="m 556.41242,213.30565 c 0.61683,1.62998 1.8893,4.3792 4.77769,6.80746 0.37274,0.31337 0.77074,0.62106 1.19344,0.91984 2.74822,1.94255 6.20923,3.27711 9.87701,3.62004 0.38618,0.0361 0.77011,0.0608 1.15125,0.0745 3.29262,0.11789 6.59742,-0.55069 9.52351,-2.2296 0.9795,-0.56201 1.86694,-1.21 2.65491,-1.91969 0.63866,-0.57521 1.25351,-1.24053 1.83028,-1.98218 1.71252,-2.2021 2.63388,-4.47423 3.16889,-5.82089 -0.81905,1.26328 -2.26057,3.08162 -4.2791,4.75349 -0.6727,0.55717 -1.3274,1.03349 -1.96787,1.46545 -0.7864,0.53038 -1.61503,1.02033 -2.50093,1.45343 -2.62317,1.28242 -5.44273,1.9065 -8.34969,1.82261 -0.33565,-0.01 -0.67441,-0.0285 -1.01596,-0.0566 -3.26343,-0.26864 -6.35065,-1.34648 -9.0307,-2.85166 -0.41104,-0.23085 -0.80449,-0.46704 -1.18116,-0.70594 -2.97294,-1.88552 -4.80009,-3.78071 -5.85157,-5.35023 z"
           id="path28"
           clip-path="url(#clipPath19)" />
        <path
           style="mix-blend-mode:darken;fill:#000000;fill-opacity:0.74902;fill-rule:nonzero;stroke:none;stroke-width:1.292;stroke-linecap:round;stroke-linejoin:round;filter:url(#filter57)"
           d="m 620.59877,160.62772 c -0.65915,-0.3663 -2.04477,-1.25019 -3.75601,-1.79323 -0.44919,-0.14254 -0.95985,-0.28124 -1.51656,-0.3977 -1.39869,-0.29261 -2.92045,-0.41307 -4.61934,-0.24935 -1.37178,0.13074 -2.59364,0.37366 -3.8853,0.82198 -1.22755,0.42607 -2.45211,1.01417 -3.8759,1.77167 -1.5601,0.83309 -2.69565,1.70337 -3.61217,2.60988 -0.0436,0.0431 -0.0869,0.0866 -0.13001,0.13033 -0.96754,0.98311 -1.74463,2.06551 -2.56046,3.32419 -0.37477,0.57964 -0.71281,1.10792 -1.01608,1.61541 -0.30804,0.51547 -0.58481,1.01692 -0.84079,1.55169 -0.2645,0.55254 -0.49755,1.12136 -0.71898,1.75667 -0.23321,0.6691 -0.44935,1.40075 -0.66401,2.21499 -0.13169,0.48537 -0.22255,1.00825 -0.28607,1.52323 -0.068,0.55174 -0.10777,1.1198 -0.12895,1.665 -0.0487,1.25327 -0.003,2.47639 0.0569,3.38105 0,0 5.5e-4,0.008 5.5e-4,0.008 0.21552,3.21496 0.70938,3.82886 0.78946,3.82293 0.19131,-0.0142 0.3117,-0.67246 0.55232,-3.81789 0,6e-5 6.2e-4,-0.008 6.2e-4,-0.008 0.0663,-0.86645 0.16964,-2.07539 0.34753,-3.22075 0.0785,-0.5056 0.17363,-1.01354 0.28993,-1.48812 0.10952,-0.44693 0.23602,-0.85654 0.38042,-1.20005 0.30349,-0.74365 0.59298,-1.37104 0.88563,-1.92412 0.27457,-0.51893 0.54671,-0.96248 0.8352,-1.3852 0.28006,-0.41038 0.57722,-0.80398 0.91535,-1.24106 0.33109,-0.42796 0.71703,-0.91736 1.13948,-1.47634 0.88026,-1.16196 1.56925,-2.01005 2.35226,-2.79608 0.0345,-0.0347 0.0691,-0.0691 0.10376,-0.10322 0.71124,-0.70119 1.58607,-1.43251 2.85791,-2.19734 1.36264,-0.816 2.39447,-1.4252 3.39201,-1.90908 1.02643,-0.49788 2.01284,-0.85624 3.19668,-1.14609 1.44335,-0.35543 2.74729,-0.47368 4.05624,-0.44977 0.51923,0.009 1.00353,0.0409 1.44512,0.079 1.70127,0.14717 3.23598,0.34903 4.01325,0.5271 z"
           id="path29"
           clip-path="url(#clipPath18)" />
      </g>
      <g
         id="g19"
         clip-path="none"
         style="fill:#bf4040;fill-opacity:1;stroke:none"
         inkscape:label="I1">
        <path
           style="mix-blend-mode:lighten;fill:#ffffff;fill-opacity:0.745098;fill-rule:nonzero;stroke:none;stroke-width:1.292;stroke-linecap:round;stroke-linejoin:round;stroke-opacity:1;filter:url(#filter21)"
           d="m 663.74595,140.4318 c 0.63156,-1.2486 1.80514,-3.10298 3.6677,-4.86219 0.89999,-0.85004 1.81337,-1.5439 2.72046,-2.14905 0.51941,-0.34652 1.06378,-0.67553 1.63592,-0.98288 2.97972,-1.60071 6.35235,-2.40834 9.8106,-2.32949 0.0562,0.001 0.11228,0.003 0.16828,0.005 3.40879,0.10631 6.65718,1.06423 9.43806,2.62211 0.56983,0.31922 1.10754,0.65622 1.61579,1.00602 0.82236,0.56599 1.63958,1.1961 2.43385,1.94437 1.68397,1.58644 2.68804,3.18171 3.21053,4.24679 -0.26182,-1.11544 -0.76961,-3.04466 -2.13384,-5.13771 -0.64623,-0.99146 -1.39952,-1.88553 -2.21832,-2.64857 -0.50862,-0.47397 -1.06681,-0.92828 -1.67319,-1.35582 -2.9661,-2.09132 -6.70984,-3.28342 -10.58399,-3.41367 -0.0639,-0.002 -0.128,-0.004 -0.19216,-0.006 -3.93315,-0.0967 -7.86482,0.90455 -11.08848,3.06709 -0.61555,0.41293 -1.18732,0.85653 -1.71401,1.32428 -0.91593,0.81342 -1.76884,1.78687 -2.5165,2.89209 -1.5366,2.27149 -2.2129,4.47263 -2.5807,5.77767 z"
           id="path13"
           transform="translate(-169.69495,0.06442481)"
           clip-path="url(#clipPath17)" />
        <path
           style="mix-blend-mode:darken;fill:#000000;fill-opacity:0.74902;fill-rule:nonzero;stroke:none;stroke-width:1.292;stroke-linecap:round;stroke-linejoin:round;filter:url(#filter55)"
           d="m 495.59524,214.83842 c 0.26222,0.85292 0.77138,2.34282 2.10763,3.99257 0.875,1.08027 1.93814,2.01666 3.0634,2.7379 0.21891,0.14032 0.44368,0.2759 0.67397,0.40667 2.87099,1.63023 6.46093,2.44038 10.10054,2.48943 0,0 0.0246,3.2e-4 0.0246,3.2e-4 3.56759,0.0447 7.12545,-0.72364 10.02409,-2.34027 0.50935,-0.28408 0.98499,-0.58696 1.42684,-0.90508 0.85543,-0.61588 1.65819,-1.35714 2.35779,-2.21063 1.37627,-1.67902 1.95359,-3.29947 2.24644,-4.26201 -0.48551,0.91857 -1.39284,2.27275 -2.96451,3.54557 -0.79295,0.64218 -1.62497,1.16174 -2.46535,1.60389 -0.43341,0.22804 -0.89111,0.44343 -1.3744,0.64372 -2.75386,1.1413 -5.94302,1.62534 -9.18852,1.49487 0,0 -0.0223,-9.1e-4 -0.0223,-9.1e-4 -3.31409,-0.13649 -6.46204,-0.9859 -9.12422,-2.13352 -0.21497,-0.0927 -0.42672,-0.18721 -0.63525,-0.28342 -1.08379,-0.50004 -2.16264,-1.05504 -3.20831,-1.77976 -1.58744,-1.10021 -2.53886,-2.22341 -3.0425,-2.99934 z"
           id="path27"
           clip-path="url(#clipPath15)" />
      </g>
      <g
         id="g21"
         clip-path="none"
         style="fill:#bf4040;fill-opacity:1;stroke:none"
         inkscape:label="N">
        <path
           style="mix-blend-mode:lighten;fill:#ffffff;fill-opacity:0.745098;fill-rule:nonzero;stroke:none;stroke-width:1.292;stroke-linecap:round;stroke-linejoin:round;stroke-opacity:1;filter:url(#filter2)"
           d="m 383.66728,115.20492 c 1.43519,0.28584 3.34392,0.75718 5.35617,1.40808 0.25829,0.0835 0.51603,0.17272 0.77301,0.26733 1.69323,0.62332 3.07245,1.36899 4.61578,2.23948 0.0957,0.054 0.1919,0.10839 0.28831,0.16317 0.57288,0.32227 1.25143,0.73322 1.99217,1.24958 0.67552,0.4709 1.3865,1.01867 2.07066,1.63282 0.0597,0.0536 0.12044,0.10836 0.18228,0.16445 0.71036,0.64436 1.42848,1.34173 2.10885,2.11442 0.86845,0.98627 1.37042,1.75419 1.62956,2.22275 -0.0833,-0.53364 -0.26483,-1.44655 -0.82222,-2.73049 -0.42587,-0.98099 -0.97366,-1.94891 -1.54932,-2.78855 -0.051,-0.0745 -0.10182,-0.14716 -0.15218,-0.21802 -0.57581,-0.81009 -1.19258,-1.5851 -1.83372,-2.26546 -0.69355,-0.736 -1.43621,-1.38313 -2.20158,-1.83699 -0.11112,-0.0656 -0.22296,-0.12925 -0.33555,-0.1908 -1.8011,-0.9846 -3.70536,-1.38672 -5.59568,-1.55969 -0.29461,-0.0269 -0.58614,-0.0483 -0.87375,-0.0658 -1.99891,-0.12205 -4.43259,0.10931 -5.65279,0.19375 z"
           id="path9"
           clip-path="url(#clipPath12)" />
        <path
           style="mix-blend-mode:lighten;fill:#ffffff;fill-opacity:0.745098;fill-rule:nonzero;stroke:none;stroke-width:1.292;stroke-linecap:round;stroke-linejoin:round;stroke-opacity:1;filter:url(#filter1)"
           d="m 424.97166,118.58636 c -0.0153,0.11214 0.23664,0.57633 1.33765,1.00355 1.09435,0.42464 2.91582,0.98402 5.18698,1.64991 0.30311,0.0889 0.62119,0.18253 0.94855,0.27983 1.8683,0.5553 4.25424,1.29169 6.57528,2.17493 2.13092,0.81088 4.20643,1.74452 5.87017,2.79317 2.98701,1.87376 5.44592,3.7736 7.57683,5.67844 0.38601,0.34506 0.76618,0.69501 1.14106,1.05038 2.46805,2.33962 4.57304,4.78727 6.53576,7.40948 0.99938,1.33375 2.05118,2.90053 3.041,4.42219 0.58399,0.89777 1.16271,1.80514 1.68652,2.62604 0.42622,0.66795 0.87191,1.35503 1.29736,1.99926 1.17434,1.7782 2.13361,3.14086 2.80515,3.94223 0.6703,0.7999 1.10641,0.77752 1.10641,0.77752 v 0 c 0,0 0.12037,-0.24516 -0.11048,-1.26943 -0.22804,-1.01199 -0.75777,-2.63999 -1.57056,-4.62664 -0.29911,-0.73109 -0.62545,-1.48249 -0.96774,-2.22191 -0.42129,-0.91005 -0.89399,-1.88292 -1.40282,-2.87362 -0.85049,-1.65592 -1.81697,-3.39061 -2.79432,-4.91354 -1.87957,-2.93165 -4.09583,-5.70984 -6.79347,-8.26265 -0.41026,-0.38824 -0.82847,-0.76824 -1.25473,-1.14011 -2.35103,-2.05102 -5.1296,-4.00465 -8.42959,-5.7978 -2.03527,-1.11034 -4.42642,-1.98293 -6.71266,-2.65204 -2.53985,-0.74334 -5.03952,-1.262 -7.02882,-1.59379 -0.34683,-0.0578 -0.68142,-0.11058 -1.00233,-0.15846 -2.38299,-0.35554 -4.35379,-0.45033 -5.524,-0.39756 -1.19347,0.0538 -1.50321,-0.002 -1.51724,0.10062 z"
           id="path10"
           clip-path="url(#clipPath11)"
           sodipodi:nodetypes="csssscsscsssssscssscsscscsscc" />
        <path
           style="mix-blend-mode:darken;fill:#000000;fill-opacity:0.74902;fill-rule:nonzero;stroke:none;stroke-width:1.292;stroke-linecap:round;stroke-linejoin:round;filter:url(#filter52)"
           d="m 437.57331,215.30772 c 0.28991,0.8578 0.83815,2.34929 2.09768,3.92569 0.54754,0.68529 1.1644,1.30321 1.82379,1.83386 0.49475,0.39817 1.0409,0.77778 1.63806,1.13101 2.58436,1.52868 5.785,2.3643 9.12925,2.40822 0.0255,3.3e-4 0.051,6.3e-4 0.0765,8.7e-4 3.31086,0.0321 6.69951,-0.67858 9.6028,-2.20458 0.8006,-0.42081 1.52417,-0.88336 2.16545,-1.37119 2.55017,-1.93997 3.7566,-4.33678 4.40671,-5.73878 -1.13141,1.31838 -2.86654,2.68136 -5.48477,4.06922 -0.63864,0.33852 -1.32309,0.67008 -2.06519,0.98188 -2.69492,1.13228 -5.63324,1.77489 -8.61712,1.78724 -0.0228,9e-5 -0.0455,1.5e-4 -0.0682,1.7e-4 -2.99578,0.003 -5.8136,-0.59436 -8.24507,-1.66825 -0.56188,-0.24816 -1.08725,-0.51448 -1.57954,-0.79348 -0.65912,-0.37355 -1.31282,-0.78686 -1.95568,-1.27478 -1.4862,-1.12799 -2.41858,-2.29451 -2.92466,-3.0871 z"
           id="path31"
           clip-path="url(#clipPath8)" />
        <path
           style="mix-blend-mode:darken;fill:#000000;fill-opacity:0.74902;fill-rule:nonzero;stroke:none;stroke-width:1.292;stroke-linecap:round;stroke-linejoin:round;filter:url(#filter59)"
           d="m 406.69631,176.38219 v 0 c 0.0547,0.019 0.19205,-0.0832 0.55593,-0.72256 0.38933,-0.68402 0.87711,-1.68186 1.603,-3.15859 -0.0273,0.0556 0.29191,-0.59286 0.26456,-0.53723 0.38698,-0.78387 0.87167,-1.73439 1.36342,-2.58547 0.26427,-0.45738 0.53653,-0.89627 0.79905,-1.2674 0.24905,-0.3521 0.48198,-0.6322 0.67284,-0.79946 0.87,-0.81469 1.79371,-1.48195 2.81666,-1.94536 0.94874,-0.42979 1.97494,-0.6816 3.14983,-0.74353 1.12584,-0.0632 2.17456,-0.0326 3.1583,0.0636 1.25048,0.1222 2.56249,0.35903 3.89618,0.8255 1.03788,0.35908 1.96703,0.87873 2.81005,1.52116 0.88238,0.67242 1.62288,1.44368 2.23603,2.19586 0.14466,0.16818 0.30644,0.41236 0.47153,0.69909 0.17452,0.30311 0.34985,0.64833 0.51763,1.00243 0.37738,0.79644 0.74368,1.69671 1.00519,2.35601 0.12151,0.30634 0.2366,0.60193 0.32981,0.84258 0.69079,1.78344 0.89513,2.04802 0.98925,2.02426 0.065,-0.0164 0.19293,-0.36496 -0.18408,-2.25803 -0.0523,-0.26247 -0.11481,-0.56425 -0.18798,-0.89776 -0.15774,-0.71892 -0.38017,-1.65322 -0.64119,-2.55945 -0.11371,-0.3948 -0.23848,-0.79699 -0.3694,-1.16927 -0.12159,-0.34576 -0.25841,-0.69428 -0.40612,-0.9916 -0.46711,-0.97678 -1.12109,-2.0597 -2.0368,-3.07719 -0.87943,-0.97716 -1.97693,-1.86582 -3.32377,-2.5245 -1.58524,-0.77917 -3.2154,-1.21091 -4.76365,-1.3722 -1.21555,-0.12663 -2.49712,-0.10343 -3.82068,0.0746 -1.62016,0.21446 -3.01439,0.76144 -4.21357,1.55444 -1.26244,0.83485 -2.2436,1.89909 -3.03274,2.98519 -0.26025,0.34661 -0.50617,0.77628 -0.72571,1.20487 -0.23836,0.46533 -0.47176,0.98117 -0.6878,1.49242 -0.40653,0.96203 -0.78143,1.9781 -1.07592,2.8251 -0.0677,0.19469 -0.13307,0.38754 -0.19592,0.57737 -0.50277,1.51857 -0.81344,2.74305 -0.94389,3.45098 -0.13403,0.72732 -0.0817,0.89619 -0.03,0.91413 z"
           id="path32"
           clip-path="url(#clipPath5)" />
        <path
           style="mix-blend-mode:darken;fill:#000000;fill-opacity:0.74902;fill-rule:nonzero;stroke:none;stroke-width:1.292;stroke-linecap:round;stroke-linejoin:round;filter:url(#filter53)"
           d="m 402.7195,214.2125 c -0.41442,0.90246 -1.2119,2.22404 -2.63165,3.47617 -0.67363,0.59409 -1.38255,1.08358 -2.10258,1.50882 -0.42867,0.25316 -0.88715,0.49137 -1.37664,0.71172 -2.50243,1.12649 -5.4398,1.62081 -8.51335,1.58667 -0.047,-5.2e-4 -0.094,-0.001 -0.1409,-0.002 -3.05342,-0.0497 -6.05906,-0.61852 -8.70983,-1.74446 -0.48633,-0.20657 -0.95077,-0.42773 -1.39326,-0.66169 -0.83222,-0.44004 -1.66309,-0.94253 -2.4715,-1.55312 -1.61322,-1.21846 -2.59764,-2.47372 -3.13322,-3.32218 0.31495,0.91995 0.92057,2.49288 2.2975,4.18108 0.6926,0.84916 1.47994,1.60222 2.31317,2.23576 0.44481,0.33821 0.92075,0.66342 1.4278,0.97165 2.75083,1.67222 6.15175,2.67541 9.62505,2.72771 0.0535,8e-4 0.10706,0.001 0.1607,0.002 3.4951,0.0226 6.88317,-0.92402 9.52312,-2.63816 0.51841,-0.33661 0.99348,-0.6931 1.42671,-1.06336 0.72666,-0.62104 1.38941,-1.35067 1.94981,-2.16969 1.16853,-1.70784 1.56115,-3.31271 1.74907,-4.24672 z"
           id="path33"
           clip-path="url(#clipPath1)" />
      </g>
    </g>
  </g>
</svg>
